<svg width="318" height="307" viewBox="0 0 318 307" fill="none" xmlns="http://www.w3.org/2000/svg">
<path d="M318 234.794H0V234.946H318V234.794Z" fill="#EBEBEB"/>
<path d="M286.136 244.673H265.072V244.826H286.136V244.673Z" fill="#EBEBEB"/>
<path d="M210.656 246.343H205.129V246.496H210.656V246.343Z" fill="#EBEBEB"/>
<path d="M264.436 238.975H252.231V239.128H264.436V238.975Z" fill="#EBEBEB"/>
<path d="M60.8334 240.006H33.3646V240.159H60.8334V240.006Z" fill="#EBEBEB"/>
<path d="M70.5261 240.006H66.5002V240.159H70.5261V240.006Z" fill="#EBEBEB"/>
<path d="M143.195 242.598H83.6149V242.75H143.195V242.598Z" fill="#EBEBEB"/>
<path d="M150.732 207.409H27.9268C26.9647 207.408 26.0427 207.038 25.363 206.38C24.6833 205.723 24.3016 204.832 24.3016 203.903V37.2453C24.3099 36.3218 24.6954 35.4389 25.3742 34.7882C26.0529 34.1375 26.9702 33.7716 27.9268 33.77H150.732C151.695 33.77 152.619 34.1394 153.3 34.7969C153.981 35.4544 154.364 36.3461 154.364 37.276V203.903C154.364 204.833 153.981 205.725 153.3 206.382C152.619 207.04 151.695 207.409 150.732 207.409ZM27.9268 33.8928C27.0069 33.8944 26.1253 34.2484 25.4754 34.8769C24.8256 35.5054 24.4606 36.3572 24.4606 37.2453V203.903C24.4606 204.791 24.8256 205.643 25.4754 206.272C26.1253 206.9 27.0069 207.254 27.9268 207.256H150.732C151.652 207.254 152.535 206.9 153.186 206.272C153.837 205.644 154.203 204.792 154.205 203.903V37.2453C154.203 36.3566 153.837 35.5049 153.186 34.8765C152.535 34.2482 151.652 33.8944 150.732 33.8928H27.9268Z" fill="#EBEBEB"/>
<path d="M288.305 207.409H165.494C164.531 207.408 163.608 207.038 162.928 206.381C162.247 205.723 161.864 204.833 161.862 203.903V37.2453C161.872 36.3213 162.259 35.4383 162.939 34.7878C163.619 34.1373 164.536 33.7716 165.494 33.77H288.305C289.261 33.7732 290.176 34.1398 290.854 34.7903C291.531 35.4408 291.916 36.3229 291.924 37.2453V203.903C291.924 204.831 291.543 205.721 290.865 206.378C290.187 207.035 289.266 207.406 288.305 207.409ZM165.494 33.8928C164.573 33.8944 163.691 34.2482 163.04 34.8765C162.389 35.5049 162.023 36.3566 162.021 37.2453V203.903C162.023 204.792 162.389 205.644 163.04 206.272C163.691 206.9 164.573 207.254 165.494 207.256H288.305C289.226 207.254 290.108 206.9 290.759 206.272C291.41 205.644 291.776 204.792 291.778 203.903V37.2453C291.776 36.3566 291.41 35.5049 290.759 34.8765C290.108 34.2482 289.226 33.8944 288.305 33.8928H165.494Z" fill="#EBEBEB"/>
<path d="M124.764 254.767C123.583 254.783 122.411 254.558 121.326 254.109C120.24 253.659 119.264 252.994 118.461 252.158C114.009 247.479 116.909 240.436 120.369 234.167C123.39 228.641 128.205 221.421 135.08 212.063C147.609 194.994 165.093 173.449 181.998 152.61C195.309 136.198 207.921 120.651 217.881 107.622C217.607 107.911 217.334 108.205 217.048 108.5C203.889 122.426 188.033 140.158 171.256 158.934C152.646 179.749 133.407 201.3 118.016 217.307C92.1945 244.2 86.5469 245.876 81.8405 245.281C80.5625 245.128 79.3453 244.666 78.3023 243.937C77.2592 243.208 76.4241 242.236 75.8748 241.112C71.5055 232.375 82.2793 216.73 143.723 142.632C159.56 123.537 175.937 103.784 188.103 88.0354C192.644 82.1655 196.155 77.407 198.877 73.5511C195.786 76.5106 192.066 80.2191 187.588 84.8733C174.576 98.4181 158.453 116.488 142.858 133.993C125.368 153.5 107.306 173.762 92.7479 188.658C70.367 211.541 62.894 215.207 56.922 213.954C55.3825 213.634 53.9655 212.906 52.8291 211.854C51.6926 210.801 50.8813 209.464 50.4857 207.993C48.6603 201.975 51.3061 193.14 70.1508 169.587C82.6164 154.004 99.6039 135.203 116.032 116.998C130.297 101.206 143.768 86.2978 154.02 73.8397C161.207 65.1025 165.246 59.4475 167.503 55.8127C163.566 58.3546 157.245 63.2912 147.323 72.8757C134.342 85.4136 119.485 101.666 105.124 117.378C68.1919 157.798 57.9141 167.855 49.608 166.296C48.2185 166.028 46.9268 165.411 45.8627 164.508C44.7987 163.605 43.9999 162.447 43.5469 161.15C39.6355 150.553 53.3795 131.562 87.768 90.2581C92.6525 84.3821 98.0839 77.843 102.631 72.1328C101.207 73.2093 99.6697 74.4066 98.0203 75.7247C89.7523 82.3497 81.2235 90.123 78.228 93.8008C77.1847 95.0808 75.6575 95.9082 73.9823 96.1011C72.3071 96.2939 70.6212 95.8365 69.2954 94.8293C67.9696 93.8221 67.1125 92.3477 66.9127 90.7305C66.7129 89.1132 67.1868 87.4856 68.2301 86.2056C72.1605 81.3796 82.1839 72.2801 92.061 64.5683C111.192 49.5806 116.471 49.734 120.242 51.1094C122.869 52.0918 125.553 54.7382 125.222 59.2326C124.809 64.8139 117.743 73.766 97.6641 97.9146C87.7807 109.808 76.568 123.285 68.211 134.755C64.7766 139.47 62.2707 143.252 60.4518 146.267C62.2008 144.622 64.2678 142.638 66.6019 140.244C74.8699 131.863 84.9505 120.872 95.5844 109.237C110.664 92.7141 126.303 75.651 139.92 62.6281C158.224 45.172 168.413 39.1732 176.28 41.2056C177.771 41.5557 179.142 42.2749 180.257 43.2924C181.373 44.3099 182.194 45.5905 182.64 47.0079C184.287 52.2392 182.061 59.1897 165.792 79.2368C155.178 92.3211 140.823 108.218 125.629 125.047C109.837 142.552 93.492 160.629 81.408 175.641C73.3817 185.582 68.7961 192.25 66.1821 196.677C70.3734 193.177 76.6507 187.362 85.9745 177.704C99.852 163.324 116.801 144.29 133.197 125.931C194.19 57.5687 206.592 46.2895 216.138 50.5015C217.249 50.9917 218.228 51.7216 219 52.6351C219.772 53.5485 220.316 54.621 220.59 55.7697C221.862 60.9027 218.968 68.3567 200.098 93.0088C187.595 109.341 170.334 130.156 153.639 150.289C137.452 169.808 120.719 189.984 108.228 206.163C104.24 211.345 101.016 215.68 98.421 219.315C101.913 215.895 106.11 211.634 111.141 206.322C125.934 190.77 144.06 170.489 161.595 150.872C179.403 130.936 196.25 112.104 209.931 97.7611C232.776 73.8151 237.571 72.0959 241.871 72.3047C243.002 72.3528 244.106 72.6513 245.099 73.1773C246.091 73.7032 246.945 74.4424 247.595 75.3378C253.001 82.7979 245.725 93.8929 191.983 160.144C176.547 179.178 160.584 198.826 148.519 214.974C141.898 223.809 137.503 230.207 134.59 234.824C137.77 231.914 141.923 227.917 147.234 222.428C158.796 210.467 172.801 194.712 186.342 179.448C200.594 163.41 215.324 146.832 226.969 134.982C243.9 117.747 251.36 113.148 257.669 116.064C258.796 116.581 259.787 117.338 260.565 118.28C261.343 119.222 261.888 120.322 262.159 121.498C264.239 130.033 252.619 145.444 221.455 184.126C211.966 195.878 202.159 208.029 194.864 217.933C191.322 222.747 188.847 226.4 187.124 229.157C190.392 226.672 193.529 224.03 196.524 221.243C204.735 213.733 213.696 204.37 221.551 196.106C226.639 190.794 231.002 186.202 234.43 182.898C235.918 181.426 237.494 180.038 239.149 178.742C243.944 175.156 247.379 176.629 249 177.821C255.78 182.812 251.614 193.121 242.704 208.146C236.815 218.068 230.302 227.278 230.028 227.665C229.566 228.35 228.966 228.938 228.265 229.396C227.564 229.854 226.775 230.172 225.945 230.332C225.114 230.492 224.259 230.49 223.43 230.326C222.6 230.163 221.813 229.841 221.114 229.38C220.415 228.919 219.818 228.328 219.359 227.641C218.9 226.954 218.587 226.186 218.439 225.381C218.292 224.577 218.312 223.751 218.499 222.954C218.686 222.157 219.036 221.404 219.528 220.739C219.579 220.672 224.177 214.157 228.992 206.433C204.519 232.012 189.916 245.729 179.734 245.729C177.733 245.74 175.776 245.161 174.124 244.071C173.162 243.447 172.345 242.636 171.726 241.69C171.108 240.744 170.7 239.683 170.531 238.576C169.812 234.278 171.72 228.408 183.359 212.383C190.946 201.945 201.345 189.051 211.406 176.605C220.896 164.853 230.703 152.702 237.991 142.798C239.026 141.39 239.973 140.08 240.834 138.868C238.627 141.017 236.09 143.572 233.164 146.611C222.288 157.915 208.926 172.952 196.002 187.491C181.813 203.455 167.141 219.959 155.108 232.313C136.982 250.899 130.119 254.693 124.929 254.779L124.764 254.767Z" fill="#F5F5F5"/>
<path d="M131.913 249.542C131.398 249.545 130.885 249.483 130.386 249.358C129.791 249.229 129.241 248.95 128.794 248.548C128.347 248.147 128.018 247.638 127.842 247.074C125.406 239.356 147.342 214.317 183.753 174.008C215.203 139.182 250.851 99.7136 247.798 89.6379C247.55 88.8397 247.162 88.6555 246.832 88.5879C244.472 88.0967 237.533 91.7316 217.875 111.834C203.425 126.607 185.439 146.789 168.006 166.308C151.063 185.305 133.535 204.947 119.841 218.952C99.3813 239.878 93.9881 241.535 91.4123 240.399C91.0499 240.239 90.7317 239.999 90.4831 239.698C90.2345 239.398 90.0626 239.045 89.9813 238.668C88.0923 231.054 113.615 199.55 155.877 148.588C173.176 127.712 191.061 106.154 203.863 89.337C221.252 66.4901 223.783 59.4598 222.848 57.5932C222.823 57.5255 222.777 57.4665 222.717 57.4239C222.657 57.3812 222.585 57.3568 222.511 57.3537C220.431 57.102 213.569 61.3447 192.657 83.1417C177.355 99.1057 158.154 120.559 139.583 141.331C96.9328 189.044 70.4751 218.081 63.7844 218.081H63.6699C63.3618 218.072 63.0598 217.995 62.7882 217.854C62.5165 217.714 62.2827 217.513 62.1054 217.27C60.6871 215.305 61.5266 210.59 77.1722 189.591C87.698 175.469 102.199 157.589 117.546 138.672C134.4 117.9 151.826 96.4164 164.253 79.4884C182.03 55.26 182.653 49.513 181.425 48.242C181.305 48.1177 181.156 48.0229 180.99 47.9652C180.824 47.9076 180.646 47.8888 180.471 47.9104C172.299 48.0455 141.764 82.4049 114.817 112.724C100.615 128.688 85.9236 145.236 74.3738 156.994C57.0492 174.628 52.2919 175.886 49.9323 174.8C49.5358 174.617 49.1882 174.349 48.9168 174.016C48.6454 173.682 48.4575 173.293 48.3678 172.878C46.8032 166.455 63.0785 145.665 88.0923 114.677C107.064 91.179 128.567 64.5375 127.524 58.1888C127.516 58.0418 127.474 57.8986 127.4 57.7699C127.326 57.6412 127.223 57.5304 127.098 57.4458C120.554 53.2461 95.012 80.0103 79.748 96.0112C64.7193 111.748 61.3231 114.971 59.5423 113.658C57.6343 112.276 56.4259 108.328 67.2506 90.0799C73.0319 80.3296 79.6272 70.9968 79.6971 70.9047C79.847 70.7218 80.0632 70.6006 80.3021 70.5655C80.541 70.5305 80.7847 70.5843 80.9841 70.716C81.1835 70.8477 81.3237 71.0475 81.3764 71.2752C81.4291 71.5028 81.3904 71.7412 81.2681 71.9424C81.2045 72.0406 74.6473 81.3182 68.9042 90.9764C59.2561 107.26 59.8221 111.134 60.5281 112.024C62.5824 111.238 70.5833 102.851 78.3361 94.7341C101.264 70.7021 120.84 51.1892 128.141 55.874C128.486 56.0998 128.777 56.3931 128.996 56.7348C129.215 57.0765 129.357 57.4589 129.413 57.8572C130.615 65.0349 110.709 89.6931 89.6315 115.807C70.4624 139.531 48.7621 166.394 50.244 172.46C50.2667 172.608 50.3267 172.748 50.4188 172.868C50.5109 172.988 50.6321 173.084 50.7719 173.148C52.0947 173.762 56.7312 172.301 73.0319 155.741C84.5498 144.014 99.2224 127.497 113.418 111.533C143.234 77.978 171.427 46.2342 180.446 46.0807C180.891 46.0546 181.337 46.1236 181.751 46.2828C182.166 46.442 182.539 46.6875 182.844 47.0017C188.638 53.0803 162.612 86.1258 119.046 139.82C103.713 158.725 89.2244 176.58 78.7177 190.678C63.3647 211.29 63.0785 215.41 63.6699 216.226C63.7272 216.263 64.942 216.81 71.4928 211.191C75.7349 207.532 81.408 202.006 88.7792 194.3C102.568 179.92 119.848 160.586 138.139 140.121C184.37 88.416 215.254 54.603 222.759 55.5424C223.147 55.5841 223.517 55.722 223.834 55.9425C224.15 56.163 224.402 56.4588 224.565 56.8011C228.031 63.7332 201.491 96.5392 157.365 149.748C125.801 187.816 90.0258 230.956 91.8193 238.226C91.8329 238.329 91.8733 238.427 91.9367 238.51C92.0001 238.594 92.0844 238.661 92.1818 238.705C93.6701 239.356 99.0506 237.477 118.436 217.669C132.104 203.694 149.6 184.071 166.543 165.092C209.791 116.635 238.742 84.9899 247.22 86.7705C247.805 86.9021 248.34 87.1911 248.762 87.604C249.184 88.017 249.476 88.5369 249.605 89.1037C252.956 100.156 220.031 136.597 185.171 175.199C156.742 206.685 127.346 239.239 129.649 246.533C129.729 246.803 129.888 247.045 130.107 247.23C130.326 247.415 130.595 247.535 130.882 247.577C141.478 250.316 176.267 212.278 204.213 181.701C231.65 151.689 248.765 133.361 254.667 134.423C255.136 134.511 255.57 134.722 255.922 135.033C256.275 135.344 256.531 135.743 256.664 136.185C260.169 145.757 235.282 175.69 213.321 202.104C200.117 217.988 187.645 232.988 187.353 236.869C187.289 237.759 187.582 237.864 187.677 237.9C192.454 239.681 223.293 214.943 231.326 205.058C231.399 204.952 231.494 204.862 231.605 204.794C231.715 204.725 231.84 204.679 231.97 204.659C232.1 204.639 232.232 204.646 232.36 204.678C232.487 204.71 232.606 204.767 232.709 204.845C232.813 204.924 232.898 205.022 232.96 205.134C233.022 205.246 233.06 205.369 233.07 205.496C233.081 205.623 233.064 205.75 233.021 205.87C232.978 205.99 232.91 206.1 232.821 206.193C226.333 214.175 193.827 242.168 186.984 239.62C186.348 239.38 185.305 238.692 185.451 236.74C185.769 232.497 195.678 220.377 211.833 200.95C231.326 177.507 258.019 145.401 254.864 136.799C254.705 136.363 254.502 136.271 254.305 136.234C252.81 135.952 248.581 138.033 236.955 149.552C228.184 158.24 217.239 170.213 205.644 182.892C175.682 215.692 144.741 249.536 131.913 249.542Z" fill="#EBEBEB"/>
<path d="M159 262.522C227.104 262.522 282.314 259.41 282.314 255.571C282.314 251.733 227.104 248.621 159 248.621C90.8955 248.621 35.686 251.733 35.686 255.571C35.686 259.41 90.8955 262.522 159 262.522Z" fill="#F5F5F5"/>
<path d="M263.368 140.323C263.367 139.525 263.172 138.737 262.8 138.023C262.428 137.309 261.889 136.689 261.225 136.212C260.561 135.735 259.791 135.415 258.976 135.276C258.161 135.137 257.324 135.183 256.531 135.411C256.613 134.891 256.653 134.366 256.651 133.84C256.652 132.414 256.362 131.002 255.797 129.684C255.232 128.367 254.404 127.17 253.36 126.162C252.316 125.154 251.076 124.354 249.711 123.809C248.346 123.264 246.884 122.983 245.407 122.984C244.712 122.986 244.018 123.048 243.334 123.168C242.22 121.424 240.551 120.074 238.576 119.322C236.602 118.569 234.428 118.454 232.38 118.994C230.332 119.534 228.52 120.7 227.216 122.317C225.912 123.933 225.185 125.915 225.144 127.964H224.979C222.617 128.024 220.374 128.972 218.726 130.606C217.078 132.239 216.156 134.43 216.156 136.71C216.156 138.99 217.078 141.181 218.726 142.814C220.374 144.448 222.617 145.396 224.979 145.457H258.216C259.598 145.417 260.909 144.858 261.871 143.899C262.833 142.941 263.37 141.658 263.368 140.323Z" fill="#263238"/>
<g opacity="0.7">
<path d="M263.368 140.323C263.367 139.525 263.172 138.737 262.8 138.023C262.428 137.309 261.889 136.689 261.225 136.212C260.561 135.735 259.791 135.415 258.976 135.276C258.161 135.137 257.324 135.183 256.531 135.411C256.613 134.891 256.653 134.366 256.651 133.84C256.652 132.414 256.362 131.002 255.797 129.684C255.232 128.367 254.404 127.17 253.36 126.162C252.316 125.154 251.076 124.354 249.711 123.809C248.346 123.264 246.884 122.983 245.407 122.984C244.712 122.986 244.018 123.048 243.334 123.168C242.22 121.424 240.551 120.074 238.576 119.322C236.602 118.569 234.428 118.454 232.38 118.994C230.332 119.534 228.52 120.7 227.216 122.317C225.912 123.933 225.185 125.915 225.144 127.964H224.979C222.617 128.024 220.374 128.972 218.726 130.606C217.078 132.239 216.156 134.43 216.156 136.71C216.156 138.99 217.078 141.181 218.726 142.814C220.374 144.448 222.617 145.396 224.979 145.457H258.216C259.598 145.417 260.909 144.858 261.871 143.899C262.833 142.941 263.37 141.658 263.368 140.323Z" fill="white"/>
</g>
<path d="M229.927 155.274L226.594 156.011L230.232 148.121L222.218 157.552L225.551 156.816L221.913 164.705L229.927 155.274Z" fill="#407BFF"/>
<path d="M240.109 155.274L236.776 156.011L240.414 148.121L232.401 157.552L235.733 156.816L232.095 164.705L240.109 155.274Z" fill="#407BFF"/>
<path d="M250.291 155.274L246.959 156.011L250.597 148.121L242.583 157.552L245.916 156.816L242.278 164.705L250.291 155.274Z" fill="#407BFF"/>
<g opacity="0.7">
<path d="M229.927 155.274L226.594 156.011L230.232 148.121L222.218 157.552L225.551 156.816L221.913 164.705L229.927 155.274Z" fill="white"/>
</g>
<g opacity="0.7">
<path d="M240.109 155.274L236.776 156.011L240.414 148.121L232.401 157.552L235.733 156.816L232.095 164.705L240.109 155.274Z" fill="white"/>
</g>
<g opacity="0.7">
<path d="M250.291 155.274L246.959 156.011L250.597 148.121L242.583 157.552L245.916 156.816L242.278 164.705L250.291 155.274Z" fill="white"/>
</g>
<path d="M105.086 114.941C105.085 114.28 104.924 113.629 104.617 113.039C104.309 112.449 103.863 111.936 103.314 111.542C102.765 111.148 102.128 110.883 101.454 110.769C100.78 110.654 100.088 110.693 99.4322 110.882C99.4985 110.451 99.5325 110.016 99.534 109.581C99.534 107.2 98.5543 104.917 96.8106 103.233C95.0668 101.55 92.7017 100.604 90.2357 100.604C89.6597 100.605 89.0849 100.656 88.5185 100.757C87.604 99.3006 86.2229 98.1709 84.5842 97.5393C82.9455 96.9077 81.1384 96.8084 79.436 97.2566C77.7337 97.7047 76.2289 98.6759 75.1492 100.023C74.0694 101.37 73.4735 103.02 73.4516 104.724H73.3181C72.3163 104.696 71.3188 104.862 70.3846 105.212C69.4505 105.563 68.5988 106.091 67.8798 106.765C67.1609 107.439 66.5894 108.246 66.1991 109.137C65.8088 110.028 65.6077 110.986 65.6077 111.954C65.6077 112.921 65.8088 113.879 66.1991 114.77C66.5894 115.661 67.1609 116.468 67.8798 117.142C68.5988 117.816 69.4505 118.344 70.3846 118.695C71.3188 119.046 72.3163 119.212 73.3181 119.183H100.819C101.963 119.155 103.05 118.695 103.848 117.902C104.646 117.109 105.09 116.046 105.086 114.941Z" fill="#263238"/>
<g opacity="0.7">
<path d="M105.086 114.941C105.085 114.28 104.924 113.629 104.617 113.039C104.309 112.449 103.863 111.936 103.314 111.542C102.765 111.148 102.128 110.883 101.454 110.769C100.78 110.654 100.088 110.693 99.4322 110.882C99.4985 110.451 99.5325 110.016 99.534 109.581C99.534 107.2 98.5543 104.917 96.8106 103.233C95.0668 101.55 92.7017 100.604 90.2357 100.604C89.6597 100.605 89.0849 100.656 88.5185 100.757C87.604 99.3006 86.2229 98.1709 84.5842 97.5393C82.9455 96.9077 81.1384 96.8084 79.436 97.2566C77.7337 97.7047 76.2289 98.6759 75.1492 100.023C74.0694 101.37 73.4735 103.02 73.4516 104.724H73.3181C72.3163 104.696 71.3188 104.862 70.3846 105.212C69.4505 105.563 68.5988 106.091 67.8798 106.765C67.1609 107.439 66.5894 108.246 66.1991 109.137C65.8088 110.028 65.6077 110.986 65.6077 111.954C65.6077 112.921 65.8088 113.879 66.1991 114.77C66.5894 115.661 67.1609 116.468 67.8798 117.142C68.5988 117.816 69.4505 118.344 70.3846 118.695C71.3188 119.046 72.3163 119.212 73.3181 119.183H100.819C101.963 119.155 103.05 118.695 103.848 117.902C104.646 117.109 105.09 116.046 105.086 114.941Z" fill="white"/>
</g>
<path d="M96.9709 125.397C98.7645 124.783 94.9993 121.099 94.9993 121.099C94.9993 121.099 95.1774 125.993 96.9709 125.397Z" fill="#407BFF"/>
<path d="M98.2302 128.16C98.2302 128.16 98.4019 133.072 100.195 132.489C101.989 131.906 98.2302 128.16 98.2302 128.16Z" fill="#407BFF"/>
<path d="M101.455 135.258C101.455 135.258 101.626 140.17 103.42 139.587C105.213 139.003 101.455 135.258 101.455 135.258Z" fill="#407BFF"/>
<path d="M91.0116 125.44C92.8051 124.826 89.04 121.111 89.04 121.111C89.04 121.111 89.2181 126.042 91.0116 125.44Z" fill="#407BFF"/>
<path d="M92.2709 128.203C92.2709 128.203 92.4426 133.115 94.2361 132.538C96.0296 131.961 92.2709 128.203 92.2709 128.203Z" fill="#407BFF"/>
<path d="M95.4954 135.301C95.4954 135.301 95.6671 140.213 97.4606 139.599C99.2541 138.985 95.4954 135.301 95.4954 135.301Z" fill="#407BFF"/>
<path d="M85.0523 125.483C86.8458 124.869 83.087 121.154 83.087 121.154C83.087 121.154 83.2588 126.085 85.0523 125.483Z" fill="#407BFF"/>
<path d="M86.3116 128.252C86.3116 128.252 86.4833 133.164 88.2768 132.581C90.0703 131.998 86.3116 128.252 86.3116 128.252Z" fill="#407BFF"/>
<path d="M89.5361 135.344C89.5361 135.344 89.7078 140.256 91.5013 139.642C93.2948 139.028 89.5361 135.344 89.5361 135.344Z" fill="#407BFF"/>
<path d="M77.1277 121.197C77.1277 121.197 77.2994 126.109 79.0929 125.526C80.8864 124.943 77.1277 121.197 77.1277 121.197Z" fill="#407BFF"/>
<path d="M80.3522 128.326C80.3522 128.326 80.524 133.238 82.3175 132.655C84.111 132.071 80.3522 128.326 80.3522 128.326Z" fill="#407BFF"/>
<path d="M83.5768 135.387C83.5768 135.387 83.7485 140.299 85.542 139.716C87.3355 139.132 83.5768 135.387 83.5768 135.387Z" fill="#407BFF"/>
<g opacity="0.7">
<path d="M96.9709 125.397C98.7644 124.783 94.9993 121.099 94.9993 121.099C94.9993 121.099 95.1774 125.993 96.9709 125.397Z" fill="white"/>
<path d="M98.2302 128.16C98.2302 128.16 98.4019 133.072 100.195 132.489C101.989 131.906 98.2302 128.16 98.2302 128.16Z" fill="white"/>
<path d="M101.455 135.258C101.455 135.258 101.626 140.17 103.42 139.587C105.213 139.003 101.455 135.258 101.455 135.258Z" fill="white"/>
<path d="M91.0116 125.44C92.8051 124.826 89.04 121.111 89.04 121.111C89.04 121.111 89.2181 126.042 91.0116 125.44Z" fill="white"/>
<path d="M92.2709 128.203C92.2709 128.203 92.4426 133.115 94.2361 132.538C96.0296 131.961 92.2709 128.203 92.2709 128.203Z" fill="white"/>
<path d="M95.4954 135.301C95.4954 135.301 95.6671 140.213 97.4606 139.599C99.2541 138.985 95.4954 135.301 95.4954 135.301Z" fill="white"/>
<path d="M85.0523 125.483C86.8458 124.869 83.087 121.154 83.087 121.154C83.087 121.154 83.2588 126.085 85.0523 125.483Z" fill="white"/>
<path d="M86.3115 128.252C86.3115 128.252 86.4832 133.164 88.2768 132.581C90.0703 131.998 86.3115 128.252 86.3115 128.252Z" fill="white"/>
<path d="M89.5361 135.344C89.5361 135.344 89.7078 140.256 91.5013 139.642C93.2948 139.028 89.5361 135.344 89.5361 135.344Z" fill="white"/>
<path d="M77.1277 121.197C77.1277 121.197 77.2994 126.109 79.0929 125.526C80.8864 124.943 77.1277 121.197 77.1277 121.197Z" fill="white"/>
<path d="M80.3522 128.326C80.3522 128.326 80.524 133.238 82.3175 132.655C84.111 132.071 80.3522 128.326 80.3522 128.326Z" fill="white"/>
<path d="M83.5767 135.387C83.5767 135.387 83.7484 140.299 85.542 139.716C87.3355 139.132 83.5767 135.387 83.5767 135.387Z" fill="white"/>
</g>
<path d="M230.232 96.2014C230.753 94.648 229.729 93.1314 227.516 92.4683C226.631 92.1361 225.673 92.0233 224.731 92.1402C223.789 92.2571 222.892 92.6 222.123 93.1376L219.922 90.5219C222.237 88.9194 225.252 88.4528 228.826 89.5764C233.049 90.8965 235.237 93.6349 234.169 96.8277C232.649 101.341 227.599 100.223 226.499 103.49L222.854 102.348C224.241 98.2399 229.297 98.9706 230.232 96.2014ZM220.908 106.639C221.046 106.198 221.316 105.807 221.685 105.514C222.054 105.222 222.504 105.042 222.979 104.998C223.454 104.954 223.932 105.047 224.352 105.266C224.772 105.485 225.115 105.819 225.337 106.227C225.56 106.634 225.651 107.097 225.601 107.555C225.55 108.013 225.359 108.446 225.053 108.799C224.746 109.152 224.338 109.409 223.88 109.537C223.421 109.666 222.934 109.659 222.479 109.519C222.177 109.439 221.896 109.3 221.651 109.111C221.407 108.922 221.205 108.688 221.057 108.421C220.91 108.155 220.82 107.862 220.793 107.561C220.767 107.26 220.803 106.957 220.902 106.67L220.908 106.639Z" fill="#407BFF"/>
<path d="M67.3206 147.262C67.6513 146.224 66.9517 145.248 65.4698 144.806C64.8764 144.597 64.2387 144.534 63.6137 144.622C62.9888 144.71 62.3962 144.946 61.8891 145.309L60.42 143.602C61.94 142.509 63.9371 142.166 66.3411 142.872C69.165 143.701 70.6532 145.5 69.9791 147.63C69.0251 150.651 65.6543 149.963 64.961 152.149L62.5251 151.437C63.3647 148.692 66.7355 149.116 67.3206 147.262ZM61.2468 154.329C61.3331 154.035 61.508 153.772 61.7493 153.574C61.9906 153.376 62.2874 153.252 62.602 153.218C62.9165 153.183 63.2346 153.24 63.5159 153.38C63.7971 153.52 64.0288 153.738 64.1814 154.006C64.334 154.274 64.4007 154.579 64.373 154.884C64.3452 155.188 64.2243 155.478 64.0257 155.716C63.827 155.954 63.5595 156.13 63.2572 156.22C62.9549 156.311 62.6315 156.313 62.328 156.226C62.1244 156.176 61.9338 156.086 61.7677 155.961C61.6016 155.837 61.4637 155.681 61.3624 155.503C61.2611 155.326 61.1986 155.13 61.1787 154.928C61.1588 154.726 61.182 154.522 61.2468 154.329Z" fill="#407BFF"/>
<path d="M103.808 80.5568L106.581 79.5314L109.462 88.1826L107.605 88.8642L103.808 80.5568ZM108.171 91.9956C108.097 91.806 108.064 91.604 108.073 91.4017C108.082 91.1993 108.134 91.0009 108.225 90.8184C108.316 90.6359 108.444 90.4731 108.602 90.3398C108.76 90.2066 108.944 90.1056 109.144 90.043C109.333 89.9646 109.537 89.9239 109.742 89.9234C109.948 89.9228 110.152 89.9625 110.341 90.0399C110.531 90.1173 110.702 90.2309 110.845 90.3739C110.988 90.5169 111.099 90.6863 111.173 90.872C111.25 91.0586 111.287 91.2584 111.282 91.4593C111.277 91.6601 111.23 91.858 111.144 92.0409C111.058 92.2238 110.934 92.388 110.781 92.5237C110.627 92.6594 110.447 92.7638 110.251 92.8306C110.058 92.9105 109.85 92.9523 109.64 92.9534C109.43 92.9545 109.222 92.915 109.028 92.8372C108.834 92.7593 108.658 92.6447 108.511 92.5002C108.364 92.3556 108.248 92.184 108.171 91.9956Z" fill="#407BFF"/>
<path d="M69.8582 224.472C69.8873 224.158 69.9816 223.854 70.1353 223.576C70.2891 223.298 70.4993 223.053 70.7534 222.855C71.0074 222.657 71.3001 222.511 71.614 222.425C71.9279 222.339 72.2565 222.315 72.5803 222.354C72.9054 222.368 73.224 222.446 73.5173 222.582C73.8107 222.718 74.0726 222.91 74.2875 223.146C74.5024 223.381 74.6659 223.657 74.7683 223.955C74.8707 224.253 74.9097 224.568 74.8833 224.881C74.8568 225.194 74.7652 225.499 74.6141 225.777C74.463 226.055 74.2554 226.301 74.0036 226.5C73.7519 226.7 73.4612 226.848 73.149 226.936C72.8367 227.024 72.5092 227.051 72.186 227.014C71.8583 227 71.5369 226.923 71.2409 226.787C70.9449 226.65 70.6803 226.458 70.4631 226.22C70.2458 225.983 70.0803 225.706 69.9764 225.406C69.8725 225.105 69.8323 224.788 69.8582 224.472ZM71.6899 205.579L76.3009 205.942L74.323 219.953L71.2384 219.708L71.6899 205.579Z" fill="#407BFF"/>
<path d="M192.027 161.697L194.921 161.046L196.569 169.986L194.629 170.422L192.027 161.697ZM194.756 173.602C194.709 173.405 194.703 173.2 194.74 173.001C194.777 172.801 194.856 172.611 194.971 172.442C195.087 172.272 195.236 172.127 195.411 172.016C195.586 171.904 195.783 171.827 195.99 171.791C196.189 171.746 196.394 171.74 196.596 171.772C196.797 171.804 196.99 171.874 197.163 171.978C197.337 172.082 197.487 172.218 197.606 172.378C197.725 172.538 197.81 172.72 197.856 172.912C197.903 173.103 197.91 173.302 197.876 173.497C197.843 173.691 197.77 173.877 197.663 174.045C197.555 174.212 197.414 174.357 197.248 174.472C197.082 174.587 196.894 174.669 196.696 174.714C196.493 174.767 196.281 174.78 196.072 174.753C195.864 174.725 195.663 174.658 195.482 174.554C195.301 174.451 195.144 174.313 195.019 174.149C194.894 173.986 194.805 173.8 194.756 173.602Z" fill="#407BFF"/>
<path d="M198.686 98.1049C198.614 98.1036 198.546 98.0749 198.496 98.0251C198.445 97.976 193.592 92.9105 196.778 89.3861C197.144 88.9612 197.602 88.6195 198.12 88.3853C197.315 86.3991 196.843 84.3015 196.721 82.1716C196.619 80.8454 197.224 79.949 198.413 79.6542C199.2 79.4999 200.012 79.5167 200.792 79.7034C200.778 79.0727 200.955 78.4519 201.3 77.9166C201.854 77.1491 203.094 76.486 205.835 77.7017C205.897 77.7298 205.945 77.7803 205.969 77.8423C205.993 77.9044 205.99 77.973 205.962 78.0333C205.948 78.063 205.928 78.0896 205.903 78.1116C205.877 78.1336 205.848 78.1506 205.816 78.1614C205.784 78.1723 205.75 78.1769 205.716 78.1749C205.682 78.1729 205.649 78.1645 205.619 78.1499C204.283 77.5359 202.528 77.0877 201.727 78.1991C201.417 78.685 201.268 79.2504 201.3 79.82C203.488 80.3972 205.822 81.7787 206.49 83.1786C206.683 83.5358 206.724 83.9512 206.605 84.3372C206.487 84.7233 206.217 85.0497 205.854 85.2478C204.913 85.8618 203.844 85.7021 202.846 84.7382C201.665 83.4836 200.943 81.8895 200.792 80.2007C200.053 80.0088 199.277 79.9857 198.527 80.1332C197.573 80.3726 197.135 81.048 197.217 82.1348C197.334 84.2204 197.796 86.2746 198.585 88.2195C199.316 88.0436 200.088 88.1355 200.753 88.4774C201.905 89.0423 202.763 90.1905 202.585 90.9334C202.538 91.1246 202.42 91.2926 202.254 91.4057C202.088 91.5188 201.884 91.5692 201.682 91.5474C200.359 91.5904 199.195 90.5896 198.311 88.8213C197.861 89.0273 197.463 89.3271 197.147 89.6993C194.266 92.8859 198.807 97.626 198.852 97.6813C198.876 97.7047 198.895 97.7324 198.908 97.763C198.921 97.7935 198.928 97.8263 198.928 97.8593C198.928 97.8924 198.921 97.9252 198.908 97.9557C198.895 97.9863 198.876 98.014 198.852 98.0374C198.807 98.0791 198.748 98.1032 198.686 98.1049ZM198.82 88.68C199.602 90.215 200.614 91.136 201.688 91.0624C202.051 91.0624 202.089 90.8966 202.102 90.8352C202.197 90.4238 201.625 89.4537 200.544 88.9256C200.016 88.6545 199.407 88.5677 198.82 88.68ZM201.332 80.3296C201.514 81.8398 202.181 83.2571 203.24 84.382C203.806 84.9346 204.678 85.4565 205.593 84.8364C205.723 84.7715 205.838 84.6819 205.931 84.5729C206.024 84.4639 206.093 84.3379 206.134 84.2025C206.175 84.067 206.187 83.925 206.17 83.7849C206.152 83.6448 206.105 83.5095 206.032 83.3874C205.473 82.2269 203.367 80.9068 201.332 80.3296Z" fill="#263238"/>
<path d="M195.252 151.228C193.605 151.228 191.977 150.676 191.252 149.263C190.666 148.121 190.895 146.807 191.156 145.739C191.544 144.21 192.752 140.213 195.271 137.757C192.797 138.733 190.183 141.386 189.184 143.111C189.15 143.167 189.094 143.208 189.029 143.226C188.964 143.243 188.894 143.235 188.835 143.203C188.805 143.188 188.778 143.167 188.757 143.141C188.735 143.116 188.72 143.087 188.71 143.055C188.701 143.024 188.698 142.991 188.702 142.958C188.706 142.926 188.716 142.894 188.733 142.866C189.744 141.146 192.937 137.659 196.079 136.996H196.225C197.022 136.42 197.952 136.039 198.934 135.884C199.699 135.757 200.485 135.828 201.212 136.089C201.939 136.35 202.582 136.792 203.075 137.37C203.428 137.853 203.675 138.401 203.801 138.98C203.927 139.558 203.928 140.156 203.806 140.735C204.191 140.853 204.531 141.077 204.786 141.38C205.294 141.994 205.339 142.915 204.919 144.081C204.288 145.768 203.244 147.282 201.877 148.495C200.509 149.709 198.858 150.585 197.065 151.05C196.47 151.181 195.861 151.241 195.252 151.228ZM196.429 137.426C193.465 139.593 192.072 144.216 191.659 145.856C191.417 146.814 191.201 148.048 191.716 149.042C192.581 150.737 195.029 150.995 196.937 150.528C198.648 150.083 200.222 149.246 201.527 148.089C202.831 146.931 203.827 145.487 204.429 143.879C204.792 142.878 204.773 142.129 204.379 141.644C204.2 141.435 203.967 141.276 203.704 141.183C203.633 141.453 203.542 141.718 203.431 141.975C202.312 144.609 198.947 148.484 195.532 148.901C195.465 148.908 195.397 148.89 195.344 148.85C195.29 148.81 195.255 148.751 195.246 148.686C195.241 148.654 195.243 148.621 195.252 148.59C195.261 148.558 195.276 148.529 195.297 148.503C195.318 148.477 195.343 148.456 195.373 148.44C195.402 148.424 195.435 148.414 195.468 148.41C198.648 148.023 201.911 144.247 202.954 141.791C203.057 141.552 203.142 141.305 203.208 141.054C202.935 141.009 202.659 140.984 202.381 140.981C201.863 140.975 201.344 141.005 200.83 141.073C200.835 142.318 200.433 143.533 199.68 144.544C198.927 145.555 197.863 146.311 196.638 146.703C195.849 146.953 194.991 146.9 194.241 146.556C194.042 146.458 193.867 146.322 193.725 146.156C193.582 145.99 193.477 145.798 193.414 145.592C193.185 144.8 193.624 143.916 194.648 143.105C196.277 141.833 198.217 140.987 200.283 140.649C200.239 140.111 200.079 139.587 199.814 139.111C199.549 138.636 199.185 138.218 198.744 137.886C198.412 137.664 198.037 137.508 197.641 137.429C197.245 137.35 196.837 137.349 196.441 137.426H196.429ZM200.314 141.146C198.357 141.473 196.519 142.281 194.978 143.492C194.482 143.885 193.706 144.665 193.91 145.457C193.952 145.6 194.025 145.732 194.124 145.846C194.222 145.961 194.344 146.054 194.482 146.12C195.113 146.397 195.828 146.434 196.486 146.224C197.592 145.864 198.555 145.183 199.245 144.274C199.935 143.365 200.317 142.273 200.34 141.146H200.314ZM197.3 136.885C197.93 136.924 198.535 137.137 199.042 137.499C199.536 137.868 199.946 138.331 200.246 138.859C200.547 139.387 200.733 139.969 200.791 140.569C201.321 140.502 201.854 140.471 202.388 140.477C202.697 140.48 203.005 140.506 203.31 140.557C203.414 140.052 203.412 139.531 203.302 139.027C203.193 138.522 202.979 138.045 202.674 137.622C202.237 137.114 201.668 136.727 201.026 136.5C200.384 136.272 199.691 136.213 199.017 136.326C198.42 136.419 197.844 136.608 197.313 136.885H197.3Z" fill="#263238"/>
<path d="M118.881 125.698C118.831 125.697 118.782 125.682 118.74 125.655C118.699 125.627 118.666 125.589 118.647 125.544C118.627 125.499 118.622 125.45 118.63 125.402C118.639 125.354 118.662 125.31 118.697 125.274C119.072 124.903 119.335 124.439 119.456 123.934C119.578 123.428 119.552 122.9 119.384 122.407C119.303 122.121 119.192 121.843 119.053 121.578C117.436 122.197 115.703 122.482 113.965 122.413C112.527 122.327 111.593 121.916 111.332 121.265C111.116 120.731 111.364 120.105 112.063 119.423C112.528 118.935 113.123 118.581 113.782 118.398C114.442 118.215 115.141 118.21 115.803 118.385C117.246 118.794 118.478 119.71 119.256 120.952C120.213 120.579 121.022 119.92 121.565 119.073C122.022 118.222 122.271 117.282 122.293 116.324C122.315 115.366 122.109 114.416 121.692 113.547C121.187 113.616 120.676 113.647 120.166 113.639C117.278 113.572 114.366 112.141 113.685 110.913C113.595 110.774 113.547 110.613 113.547 110.449C113.547 110.285 113.595 110.125 113.685 109.986C113.99 109.525 114.83 109.317 116.184 109.372C117.359 109.407 118.505 109.735 119.508 110.326C120.512 110.917 121.339 111.75 121.908 112.743C121.959 112.829 122.01 112.915 122.055 113.001C124.599 112.626 128.071 111.478 129.254 109.525C129.533 109.053 129.668 108.513 129.642 107.97C129.616 107.426 129.431 106.901 129.108 106.455C128.173 104.927 126.424 104.884 125.464 104.988C125.097 105.031 124.736 105.105 124.383 105.209C124.552 105.635 124.673 106.078 124.745 106.529C124.936 107.757 124.497 109.937 123.365 110.538C122.939 110.766 122.226 110.864 121.285 110.066C120.908 109.801 120.627 109.429 120.481 109.001C120.335 108.574 120.331 108.113 120.471 107.683C120.834 106.547 122.118 105.491 123.683 104.908C123.354 104.25 122.864 103.678 122.256 103.241C121.648 102.805 120.939 102.518 120.191 102.403C120.139 102.385 120.094 102.352 120.063 102.308C120.032 102.265 120.016 102.212 120.017 102.159C120.019 102.106 120.037 102.054 120.071 102.012C120.105 101.97 120.151 101.939 120.204 101.924C121.046 102.054 121.842 102.381 122.523 102.877C123.203 103.372 123.748 104.021 124.109 104.767C124.512 104.649 124.925 104.565 125.343 104.515C127.206 104.3 128.682 104.908 129.49 106.222C129.867 106.745 130.081 107.361 130.107 107.997C130.133 108.634 129.97 109.264 129.636 109.814C128.364 111.852 124.879 113.074 122.214 113.498C122.633 114.421 122.833 115.423 122.798 116.43C122.764 117.437 122.497 118.424 122.017 119.319C121.427 120.25 120.548 120.978 119.504 121.4C119.654 121.687 119.773 121.987 119.861 122.297C120.055 122.873 120.081 123.491 119.936 124.081C119.791 124.671 119.481 125.211 119.04 125.643C118.995 125.679 118.939 125.698 118.881 125.698ZM114.798 118.742C114.354 118.743 113.916 118.833 113.51 119.008C113.105 119.182 112.742 119.437 112.445 119.755C112.07 120.129 111.656 120.663 111.809 121.087C111.961 121.511 112.807 121.842 113.997 121.916C115.63 121.978 117.258 121.712 118.779 121.136C118.068 120.035 116.964 119.222 115.676 118.852C115.389 118.782 115.094 118.745 114.798 118.742ZM115.714 109.906C114.442 109.906 114.168 110.195 114.105 110.293C114.072 110.361 114.059 110.436 114.067 110.511C114.075 110.585 114.103 110.656 114.149 110.717C114.677 111.674 117.329 113.111 120.191 113.173C120.616 113.18 121.041 113.16 121.463 113.111C121.451 113.083 121.436 113.057 121.419 113.031C120.893 112.116 120.132 111.347 119.208 110.8C118.284 110.252 117.23 109.944 116.146 109.906H115.714ZM123.848 105.399C122.424 105.921 121.234 106.873 120.916 107.855C120.814 108.188 120.82 108.544 120.934 108.873C121.048 109.202 121.264 109.49 121.552 109.697C122.131 110.189 122.634 110.311 123.047 110.109C123.937 109.636 124.319 107.69 124.166 106.615C124.11 106.189 124.003 105.771 123.848 105.369V105.399Z" fill="#263238"/>
<path d="M83.5132 211.118C82.8754 211.115 82.2437 210.998 81.6497 210.774C81.5868 210.748 81.5366 210.7 81.5094 210.639C81.4822 210.579 81.48 210.511 81.5034 210.449C81.5289 210.388 81.5776 210.34 81.6393 210.314C81.701 210.287 81.7708 210.285 81.8341 210.307C82.4677 210.567 83.1585 210.67 83.8438 210.607C84.5291 210.544 85.1871 210.316 85.7582 209.945C87.361 208.907 88.474 206.74 88.5312 204.548C88.5312 204.37 88.5312 204.173 88.5312 203.971C87.6921 204.568 86.6573 204.852 85.6183 204.769C85.1971 204.775 84.7799 204.69 84.3978 204.518C84.0156 204.347 83.6785 204.095 83.4114 203.78C83.231 203.591 83.1119 203.354 83.069 203.1C83.026 202.846 83.0611 202.585 83.1697 202.35C83.7103 201.331 85.8982 201.091 86.6995 201.085C87.1143 201.107 87.5149 201.238 87.858 201.465C88.201 201.691 88.4734 202.003 88.6457 202.368C88.7288 202.535 88.7989 202.707 88.8556 202.884C88.9703 202.714 89.0702 202.536 89.1545 202.35C89.441 201.603 89.5464 200.803 89.4626 200.012C89.3788 199.22 89.1081 198.457 88.6711 197.782C88.0351 199.182 85.5547 199.845 84.0347 199.624C82.8899 199.427 82.3111 198.752 82.4765 197.782C82.5723 197.4 82.7632 197.047 83.0326 196.753C83.3019 196.458 83.6415 196.232 84.022 196.093C84.6904 195.738 85.4562 195.591 86.2144 195.673C86.9726 195.754 87.6863 196.06 88.2577 196.548C87.9976 195.82 87.5249 195.18 86.8967 194.706C85.2685 193.306 83.7167 192.63 82.1903 192.686C82.1226 192.686 82.0574 192.661 82.0078 192.617C81.9583 192.572 81.928 192.511 81.9232 192.446C81.9215 192.413 81.9266 192.381 81.9382 192.35C81.9498 192.319 81.9677 192.291 81.9908 192.267C82.014 192.243 82.0418 192.223 82.0728 192.21C82.1038 192.196 82.1372 192.189 82.1712 192.188C83.8057 192.114 85.5102 192.845 87.2592 194.331C88.3786 195.301 88.9128 196.247 88.8492 197.149C89.4459 197.912 89.8319 198.808 89.971 199.755C90.1101 200.701 89.9976 201.666 89.6442 202.559C89.4872 202.916 89.2726 203.248 89.0082 203.541C89.0472 203.884 89.062 204.228 89.0527 204.573C88.9891 206.918 87.7807 209.251 86.0508 210.369C85.3035 210.862 84.4183 211.123 83.5132 211.118ZM86.6932 201.582C85.6629 201.582 83.9711 201.908 83.6213 202.577C83.5601 202.732 83.5467 202.901 83.5828 203.064C83.6189 203.226 83.703 203.375 83.8248 203.492C84.0485 203.743 84.327 203.943 84.6405 204.078C84.9539 204.213 85.2944 204.279 85.6374 204.272C86.1456 204.317 86.6579 204.259 87.1419 204.102C87.6258 203.946 88.0708 203.694 88.4485 203.363C88.3993 203.095 88.3116 202.834 88.1878 202.589C88.0562 202.309 87.8494 202.068 87.5888 201.891C87.3283 201.714 87.0235 201.607 86.7059 201.582H86.6932ZM85.8791 196.161C85.308 196.171 84.746 196.301 84.2319 196.541C83.9292 196.653 83.657 196.829 83.4365 197.058C83.2159 197.287 83.0528 197.562 82.9599 197.862C82.8136 198.709 83.4941 199.004 84.0919 199.09C85.6819 199.354 88.0351 198.506 88.2704 197.248C88.1941 197.162 88.1115 197.076 88.0288 196.996C87.4569 196.458 86.6898 196.159 85.8918 196.161H85.8791Z" fill="#263238"/>
<path d="M93.3966 161.083C92.177 161.067 90.9969 160.663 90.0385 159.935C88.1623 158.535 87.4945 156.318 88.1814 153.856C88.2196 153.715 88.2641 153.58 88.3022 153.451C88.0346 153.249 87.728 153.102 87.4003 153.016C87.0726 152.931 86.7306 152.909 86.3942 152.954C85.93 153.101 85.5802 153.568 85.3321 154.415C85.3115 154.477 85.2672 154.529 85.2082 154.561C85.1492 154.593 85.0798 154.602 85.0141 154.587C84.9819 154.578 84.9518 154.562 84.9257 154.542C84.8996 154.522 84.8779 154.496 84.862 154.468C84.846 154.439 84.8361 154.408 84.8327 154.376C84.8293 154.343 84.8326 154.311 84.8424 154.28C85.135 153.273 85.5929 152.683 86.2352 152.481C86.6193 152.407 87.0153 152.411 87.3976 152.493C87.7799 152.576 88.1401 152.735 88.4549 152.96C88.6288 152.394 88.9114 151.865 89.288 151.4C90.5982 149.841 93.2948 150.387 95.1456 151.818C95.6026 152.129 95.9909 152.525 96.2879 152.982C96.5849 153.44 96.7846 153.95 96.8755 154.482C97.0083 154.406 97.1558 154.357 97.3089 154.338C97.462 154.319 97.6175 154.331 97.7659 154.372C98.2459 154.515 98.6481 154.835 98.8853 155.262C99.6676 156.736 98.6881 158.547 97.2826 159.315C96.995 159.462 96.695 159.585 96.3858 159.683C96.1156 160.066 95.759 160.385 95.3428 160.616C94.7464 160.931 94.0761 161.092 93.3966 161.083ZM88.7538 153.715L88.6775 153.973C88.0415 156.232 88.6775 158.271 90.3502 159.499C91.8066 160.586 93.7973 160.856 95.0947 160.144C95.2379 160.06 95.374 159.965 95.5018 159.861C94.2388 160.159 92.9088 160.04 91.7239 159.523C91.338 159.319 91.0163 159.017 90.7925 158.651C90.5687 158.285 90.451 157.867 90.4519 157.442C90.4502 157.376 90.4752 157.312 90.5215 157.264C90.5679 157.216 90.6319 157.187 90.7 157.184C90.7339 157.182 90.7678 157.187 90.7997 157.199C90.8317 157.21 90.861 157.227 90.8859 157.249C90.9108 157.272 90.9308 157.299 90.9447 157.329C90.9587 157.358 90.9663 157.391 90.9671 157.424C90.9646 157.765 91.0587 158.1 91.2391 158.393C91.4196 158.686 91.6796 158.926 91.991 159.087C93.085 159.701 94.8022 159.585 96.0614 159.223C96.4592 158.476 96.5932 157.624 96.443 156.797L96.4049 156.521C96.4049 156.423 96.3731 156.318 96.3604 156.214L96.3031 156.281C94.7894 158.123 92.4426 156.374 90.3756 154.832C89.8223 154.47 89.2753 154.065 88.7538 153.727V153.715ZM97.4479 154.814C97.3368 154.813 97.228 154.846 97.1363 154.906C96.7038 155.176 96.8056 155.839 96.901 156.478L96.9391 156.76C97.0629 157.516 96.9931 158.29 96.7356 159.014L97.0345 158.866C98.2111 158.252 99.0761 156.681 98.4337 155.477C98.261 155.183 97.9791 154.964 97.6451 154.863C97.5806 154.845 97.5146 154.833 97.4479 154.826V154.814ZM88.9064 153.218C89.4788 153.574 90.0703 154.016 90.6745 154.446C93.104 156.251 94.7767 157.331 95.8897 155.974C97.0027 154.618 96.0678 153.132 94.8276 152.168C93.2122 150.94 90.789 150.375 89.6887 151.676C89.3317 152.144 89.0666 152.67 88.9064 153.23V153.218Z" fill="#263238"/>
<path d="M237.724 218.498C236.576 218.466 235.432 218.349 234.302 218.148L234.08 218.111C234.046 218.108 234.013 218.097 233.984 218.081C233.954 218.064 233.928 218.042 233.908 218.016C233.888 217.989 233.873 217.959 233.866 217.927C233.858 217.895 233.857 217.861 233.864 217.829C233.868 217.796 233.88 217.765 233.897 217.737C233.914 217.709 233.937 217.684 233.964 217.665C233.992 217.646 234.023 217.632 234.056 217.624C234.089 217.616 234.123 217.615 234.156 217.62L234.385 217.657C236.859 218.038 239.67 218.467 241.597 216.705C242.074 216.263 242.454 215.732 242.713 215.144C242.972 214.556 243.105 213.924 243.105 213.285C243.115 211.99 242.759 210.716 242.074 209.601C241.898 211.336 241.073 212.949 239.753 214.139C238.775 215.007 237.58 215.614 236.285 215.899C234.99 216.184 233.64 216.138 232.369 215.766C229.749 214.98 228.311 212.88 228.788 210.547C229.041 209.621 229.505 208.761 230.145 208.029C230.785 207.297 231.586 206.712 232.49 206.316C232.541 205.913 232.656 205.519 232.833 205.15C233.106 204.595 233.529 204.121 234.057 203.778C234.585 203.436 235.2 203.237 235.835 203.203C236.834 203.162 237.829 203.357 238.732 203.771C239.636 204.185 240.421 204.806 241.019 205.58C241.69 206.503 242.066 207.596 242.1 208.723C243.094 210.055 243.627 211.656 243.62 213.298C243.617 214.002 243.468 214.699 243.18 215.347C242.893 215.994 242.474 216.579 241.947 217.067C241.375 217.562 240.708 217.943 239.983 218.188C239.259 218.434 238.491 218.539 237.724 218.498ZM232.439 206.918C232.297 206.984 232.159 207.058 232.026 207.139C231.342 207.512 230.746 208.018 230.276 208.625C229.805 209.231 229.47 209.925 229.291 210.663C228.807 213.064 230.563 214.728 232.522 215.318C233.706 215.663 234.964 215.705 236.17 215.439C237.377 215.173 238.491 214.609 239.403 213.801C240.091 213.175 240.64 212.42 241.017 211.583C241.394 210.747 241.591 209.845 241.597 208.932C241.426 208.717 241.241 208.512 241.044 208.318C240.006 207.323 238.69 206.64 237.257 206.353C235.824 206.067 234.336 206.188 232.973 206.703C232.871 207.931 233.189 209.454 233.946 210.197C234.205 210.454 234.547 210.62 234.915 210.665C235.284 210.711 235.657 210.635 235.975 210.449C236.144 210.369 236.294 210.257 236.416 210.118C236.537 209.98 236.628 209.818 236.681 209.644C236.714 209.542 236.723 209.434 236.709 209.329C236.695 209.223 236.657 209.121 236.598 209.03C236.562 208.975 236.548 208.909 236.561 208.845C236.574 208.78 236.613 208.724 236.668 208.686C236.696 208.668 236.727 208.654 236.76 208.647C236.793 208.64 236.827 208.64 236.86 208.645C236.893 208.651 236.925 208.663 236.953 208.681C236.981 208.698 237.005 208.721 237.025 208.748C237.131 208.9 237.2 209.074 237.228 209.255C237.255 209.437 237.24 209.622 237.184 209.798C237.108 210.042 236.981 210.269 236.81 210.463C236.639 210.658 236.429 210.816 236.191 210.927C235.778 211.162 235.295 211.254 234.82 211.189C234.346 211.124 233.908 210.907 233.577 210.571C232.723 209.542 232.315 208.232 232.439 206.918ZM235.702 205.69C236.764 205.677 237.818 205.871 238.801 206.259C239.784 206.647 240.677 207.222 241.426 207.95L241.534 208.06C241.405 207.276 241.089 206.532 240.612 205.887C240.059 205.189 239.342 204.628 238.52 204.251C237.699 203.874 236.796 203.692 235.886 203.719C235.339 203.747 234.81 203.917 234.355 204.212C233.9 204.508 233.537 204.916 233.304 205.395C233.193 205.626 233.112 205.87 233.062 206.12C233.911 205.834 234.803 205.689 235.702 205.69Z" fill="#263238"/>
<path d="M245.506 182.394L229.859 173.072C227.423 171.62 224.229 172.35 222.726 174.702L220.598 178.03C219.095 180.382 219.851 183.465 222.287 184.917L237.934 194.239C240.37 195.69 243.564 194.961 245.067 192.609L247.195 189.28C248.698 186.928 247.942 183.845 245.506 182.394Z" fill="#407BFF"/>
<g opacity="0.7">
<path d="M245.506 182.394L229.859 173.072C227.423 171.62 224.229 172.35 222.726 174.702L220.598 178.03C219.095 180.382 219.851 183.465 222.287 184.917L237.934 194.239C240.37 195.69 243.564 194.961 245.067 192.609L247.195 189.28C248.698 186.928 247.942 183.845 245.506 182.394Z" fill="white"/>
</g>
<path d="M226.359 181.296C226.418 181.216 226.506 181.161 226.606 181.141C226.705 181.122 226.809 181.14 226.895 181.191C226.982 181.243 227.045 181.324 227.072 181.419C227.098 181.513 227.087 181.614 227.039 181.701C227.012 181.744 226.976 181.781 226.934 181.811C226.891 181.84 226.843 181.862 226.792 181.873C226.741 181.884 226.689 181.886 226.637 181.878C226.586 181.869 226.536 181.851 226.492 181.824C226.404 181.769 226.341 181.684 226.316 181.586C226.291 181.487 226.306 181.384 226.359 181.296ZM229.539 179.092C229.825 178.637 229.647 178.097 228.979 177.704C228.755 177.551 228.497 177.45 228.225 177.41C227.954 177.369 227.676 177.39 227.415 177.471L227.236 177.016C227.577 176.915 227.937 176.89 228.289 176.944C228.64 176.999 228.975 177.13 229.265 177.329C230.175 177.87 230.493 178.637 230.06 179.307C229.38 180.381 228.152 179.724 227.586 180.62L227.103 180.332C227.771 179.288 229.017 179.902 229.545 179.092H229.539Z" fill="#263238"/>
<path d="M229.062 182.905C229.089 182.861 229.125 182.824 229.168 182.795C229.21 182.765 229.258 182.744 229.309 182.734C229.361 182.723 229.413 182.722 229.465 182.731C229.516 182.741 229.565 182.76 229.609 182.788C229.654 182.813 229.694 182.846 229.726 182.886C229.757 182.926 229.78 182.972 229.793 183.021C229.805 183.07 229.807 183.121 229.798 183.17C229.79 183.22 229.771 183.268 229.742 183.31C229.687 183.396 229.599 183.458 229.496 183.483C229.394 183.507 229.286 183.491 229.195 183.439C229.105 183.384 229.041 183.298 229.016 183.198C228.991 183.098 229.007 182.993 229.062 182.905ZM231.752 178.858L232.293 179.178L230.232 182.192L229.876 181.984L231.752 178.858Z" fill="#263238"/>
<path d="M231.682 184.464C231.709 184.421 231.744 184.384 231.786 184.355C231.828 184.325 231.876 184.304 231.926 184.294C231.977 184.283 232.029 184.282 232.08 184.291C232.131 184.3 232.18 184.319 232.223 184.347C232.267 184.373 232.306 184.406 232.338 184.446C232.369 184.486 232.392 184.532 232.405 184.58C232.418 184.629 232.421 184.679 232.413 184.729C232.406 184.778 232.389 184.826 232.363 184.869C232.335 184.913 232.298 184.95 232.255 184.98C232.212 185.009 232.164 185.03 232.112 185.042C232.061 185.053 232.008 185.055 231.956 185.046C231.904 185.038 231.854 185.019 231.809 184.992C231.765 184.966 231.726 184.931 231.695 184.89C231.665 184.849 231.643 184.803 231.631 184.754C231.619 184.705 231.618 184.654 231.627 184.604C231.635 184.554 231.654 184.507 231.682 184.464ZM234.862 182.26C235.155 181.805 234.97 181.265 234.309 180.872C234.084 180.719 233.826 180.618 233.555 180.578C233.283 180.537 233.006 180.558 232.744 180.639L232.56 180.184C232.9 180.083 233.26 180.058 233.612 180.113C233.964 180.167 234.298 180.299 234.589 180.498C235.498 181.038 235.816 181.805 235.39 182.475C234.703 183.549 233.482 182.892 232.91 183.789L232.433 183.5C233.088 182.469 234.341 183.083 234.862 182.26Z" fill="#263238"/>
<path d="M234.379 186.073C234.407 186.03 234.444 185.993 234.487 185.964C234.531 185.935 234.58 185.915 234.631 185.905C234.683 185.894 234.736 185.894 234.788 185.904C234.839 185.914 234.888 185.934 234.932 185.962C234.977 185.987 235.016 186.02 235.047 186.06C235.078 186.099 235.1 186.144 235.113 186.193C235.125 186.241 235.127 186.291 235.119 186.34C235.111 186.389 235.093 186.436 235.066 186.478C235.039 186.521 235.003 186.559 234.961 186.59C234.919 186.62 234.871 186.641 234.82 186.653C234.769 186.665 234.716 186.667 234.665 186.659C234.613 186.651 234.563 186.634 234.519 186.607C234.427 186.553 234.362 186.467 234.335 186.367C234.309 186.268 234.325 186.162 234.379 186.073ZM237.069 182.026L237.616 182.352L235.555 185.361L235.199 185.152L237.069 182.026Z" fill="#263238"/>
<path d="M236.999 187.632C237.026 187.59 237.062 187.553 237.104 187.524C237.146 187.496 237.194 187.475 237.244 187.464C237.294 187.453 237.346 187.452 237.397 187.461C237.448 187.47 237.496 187.488 237.54 187.516C237.585 187.54 237.625 187.574 237.656 187.614C237.688 187.653 237.711 187.699 237.724 187.748C237.737 187.797 237.74 187.847 237.732 187.897C237.725 187.947 237.707 187.995 237.68 188.037C237.62 188.117 237.532 188.173 237.433 188.192C237.333 188.211 237.229 188.194 237.143 188.142C237.056 188.091 236.993 188.009 236.967 187.915C236.94 187.82 236.952 187.719 236.999 187.632ZM240.179 185.428C240.465 184.974 240.281 184.433 239.619 184.04C239.394 183.889 239.136 183.789 238.865 183.749C238.594 183.708 238.317 183.728 238.055 183.807L237.87 183.353C238.212 183.251 238.573 183.226 238.926 183.281C239.279 183.335 239.614 183.467 239.906 183.666C240.815 184.206 241.127 184.974 240.701 185.643C240.014 186.717 238.793 186.06 238.22 186.957L237.743 186.668C238.411 185.637 239.657 186.251 240.185 185.428H240.179Z" fill="#263238"/>
<path d="M239.702 189.241C239.73 189.198 239.766 189.161 239.809 189.133C239.852 189.104 239.9 189.084 239.951 189.073C240.002 189.063 240.055 189.063 240.106 189.073C240.157 189.082 240.206 189.102 240.249 189.13C240.295 189.155 240.334 189.188 240.366 189.229C240.398 189.269 240.42 189.315 240.433 189.363C240.445 189.412 240.447 189.463 240.439 189.513C240.43 189.563 240.411 189.61 240.383 189.652C240.355 189.695 240.319 189.733 240.277 189.762C240.235 189.792 240.187 189.813 240.136 189.824C240.085 189.836 240.032 189.837 239.981 189.829C239.929 189.82 239.88 189.802 239.836 189.775C239.745 189.721 239.681 189.634 239.656 189.534C239.631 189.434 239.648 189.329 239.702 189.241ZM242.386 185.195L242.933 185.52L240.872 188.529L240.516 188.32L242.386 185.195Z" fill="#263238"/>
<path d="M225.767 186.687L219.954 187.602L223.624 184.458L225.767 186.687Z" fill="#407BFF"/>
<g opacity="0.7">
<path d="M225.767 186.687L219.954 187.602L223.624 184.458L225.767 186.687Z" fill="white"/>
</g>
<path d="M201.844 107.899L177.945 114.098C175.181 114.815 173.542 117.561 174.284 120.23L175.336 124.007C176.079 126.676 178.922 128.258 181.687 127.541L205.586 121.341C208.35 120.624 209.989 117.879 209.246 115.21L208.195 111.433C207.452 108.764 204.609 107.182 201.844 107.899Z" fill="#407BFF"/>
<g opacity="0.7">
<path d="M201.844 107.899L177.945 114.098C175.181 114.815 173.542 117.561 174.284 120.23L175.336 124.007C176.079 126.676 178.922 128.258 181.687 127.541L205.586 121.341C208.35 120.624 209.989 117.879 209.246 115.21L208.195 111.433C207.452 108.764 204.609 107.182 201.844 107.899Z" fill="white"/>
</g>
<path d="M180.789 118.692L181.756 118.932L181.68 119.245L180.7 118.987L180.955 119.914L180.643 120L180.395 119.067L179.676 119.767L179.441 119.534L180.16 118.852L179.187 118.619L179.269 118.293L180.255 118.557L179.988 117.63L180.3 117.55L180.554 118.477L181.266 117.777L181.502 118.017L180.789 118.692Z" fill="#263238"/>
<path d="M188.975 118.643C189.286 119.754 189.038 120.522 188.339 120.7C188.241 120.732 188.138 120.744 188.035 120.735C187.933 120.726 187.833 120.697 187.743 120.649C187.652 120.601 187.573 120.535 187.511 120.457C187.448 120.378 187.403 120.287 187.378 120.19C187.303 120.452 187.155 120.689 186.951 120.876C186.748 121.063 186.495 121.193 186.221 121.253C185.764 121.353 185.285 121.279 184.883 121.045C184.482 120.812 184.19 120.438 184.068 120.001C183.947 119.564 184.005 119.099 184.231 118.703C184.456 118.307 184.832 118.01 185.28 117.876C185.543 117.798 185.824 117.789 186.092 117.848C186.361 117.907 186.609 118.033 186.812 118.213L186.628 117.556L187.073 117.44L187.76 119.896C187.862 120.264 188.091 120.344 188.32 120.283C188.739 120.172 188.873 119.601 188.625 118.717C188.538 118.364 188.376 118.032 188.148 117.744C187.92 117.455 187.631 117.216 187.301 117.043C186.972 116.869 186.607 116.764 186.233 116.735C185.858 116.706 185.481 116.754 185.127 116.875C184.755 116.954 184.404 117.105 184.094 117.318C183.785 117.531 183.523 117.803 183.324 118.116C183.126 118.43 182.996 118.779 182.94 119.142C182.885 119.506 182.907 119.876 183.004 120.232C183.101 120.587 183.271 120.919 183.504 121.209C183.738 121.5 184.03 121.741 184.362 121.92C184.695 122.098 185.061 122.21 185.44 122.248C185.818 122.287 186.201 122.251 186.564 122.143C187.015 122.031 187.432 121.821 187.785 121.529L187.989 121.818C187.604 122.135 187.15 122.364 186.66 122.487C186.251 122.607 185.821 122.646 185.396 122.602C184.971 122.558 184.56 122.432 184.187 122.232C183.814 122.031 183.486 121.759 183.224 121.434C182.962 121.108 182.77 120.735 182.661 120.336C182.551 119.937 182.526 119.521 182.587 119.113C182.648 118.705 182.793 118.312 183.014 117.96C183.235 117.607 183.528 117.301 183.875 117.059C184.221 116.818 184.615 116.647 185.032 116.556C185.432 116.422 185.857 116.37 186.279 116.405C186.701 116.439 187.111 116.559 187.483 116.755C187.854 116.952 188.179 117.221 188.436 117.547C188.693 117.872 188.876 118.245 188.975 118.643ZM187.099 119.208C187.017 118.967 186.864 118.754 186.659 118.596C186.453 118.438 186.204 118.342 185.943 118.32C185.681 118.297 185.418 118.349 185.187 118.469C184.956 118.589 184.766 118.772 184.641 118.995C184.517 119.218 184.463 119.472 184.486 119.724C184.509 119.977 184.609 120.217 184.772 120.416C184.936 120.614 185.156 120.762 185.405 120.841C185.655 120.92 185.923 120.926 186.176 120.86C186.354 120.817 186.52 120.738 186.664 120.63C186.808 120.522 186.928 120.385 187.014 120.23C187.101 120.075 187.154 119.904 187.168 119.728C187.182 119.552 187.159 119.375 187.099 119.208Z" fill="#263238"/>
<path d="M192.492 116.402L192.695 117.82L193.656 117.569L193.757 117.931L192.746 118.189L192.937 119.472L192.574 119.57L192.384 118.287L190.991 118.649L191.175 119.933L190.813 120.025L190.622 118.741L189.655 118.993L189.56 118.631L190.565 118.373L190.361 116.955L189.394 117.2L189.293 116.844L190.31 116.58L190.12 115.297L190.488 115.199L190.673 116.482L192.072 116.126L191.881 114.842L192.244 114.744L192.435 116.028L193.389 115.782L193.49 116.138L192.492 116.402ZM192.123 116.494L190.736 116.856L190.934 118.275L192.326 117.912L192.123 116.494Z" fill="#263238"/>
<path d="M198.712 118.054L197.872 117.569C197.726 117.828 197.525 118.053 197.281 118.231C197.038 118.409 196.758 118.535 196.46 118.6C195.532 118.846 194.737 118.545 194.552 117.851C194.4 117.311 194.616 116.826 195.347 116.113C194.762 115.776 194.546 115.536 194.451 115.186C194.285 114.603 194.648 114.087 195.379 113.897C195.509 113.842 195.649 113.814 195.791 113.815C195.933 113.817 196.073 113.848 196.201 113.906C196.33 113.964 196.444 114.049 196.536 114.153C196.627 114.257 196.695 114.379 196.734 114.511C196.861 114.965 196.664 115.364 196.015 115.997L197.675 116.955C197.755 116.637 197.78 116.31 197.751 115.985H198.171C198.206 116.375 198.165 116.769 198.05 117.145L198.909 117.642L198.712 118.054ZM194.896 115.064C194.972 115.334 195.125 115.493 195.678 115.806C196.257 115.248 196.416 114.965 196.314 114.634C196.288 114.553 196.245 114.478 196.187 114.414C196.129 114.349 196.059 114.298 195.979 114.261C195.9 114.225 195.813 114.205 195.725 114.202C195.637 114.2 195.55 114.215 195.468 114.247C195.372 114.258 195.279 114.289 195.196 114.337C195.113 114.386 195.042 114.451 194.987 114.528C194.932 114.606 194.895 114.693 194.878 114.786C194.861 114.878 194.865 114.973 194.889 115.064H194.896ZM197.516 117.366L195.691 116.316C195.055 116.93 194.902 117.28 195.01 117.685C195.15 118.183 195.704 118.385 196.39 118.207C196.629 118.154 196.853 118.052 197.047 117.906C197.24 117.761 197.398 117.577 197.51 117.366H197.516Z" fill="#263238"/>
<path d="M198.139 114.511C198.124 114.305 198.169 114.099 198.27 113.917C198.371 113.736 198.523 113.585 198.71 113.484C198.896 113.383 199.108 113.335 199.321 113.346C199.535 113.356 199.741 113.426 199.915 113.545C200.089 113.665 200.224 113.83 200.305 114.021C200.385 114.212 200.408 114.422 200.37 114.625C200.332 114.828 200.234 115.016 200.089 115.168C199.945 115.319 199.758 115.428 199.551 115.481C198.915 115.647 198.343 115.26 198.139 114.511ZM199.939 114.044C199.774 113.43 199.386 113.172 198.947 113.289C198.508 113.406 198.311 113.836 198.476 114.425C198.642 115.014 199.023 115.303 199.475 115.186C199.927 115.07 200.105 114.64 199.939 114.044ZM201.746 112.282L202.146 112.178L200.181 117.593L199.78 117.698L201.746 112.282ZM201.644 115.917C201.58 115.772 201.549 115.616 201.552 115.459C201.554 115.302 201.591 115.147 201.659 115.004C201.728 114.861 201.826 114.734 201.948 114.63C202.07 114.526 202.214 114.448 202.369 114.4C203.005 114.235 203.577 114.615 203.787 115.364C203.856 115.508 203.891 115.665 203.891 115.823C203.89 115.982 203.854 116.138 203.784 116.281C203.714 116.425 203.613 116.552 203.487 116.653C203.361 116.755 203.214 116.829 203.055 116.87C202.897 116.911 202.731 116.918 202.569 116.89C202.408 116.863 202.254 116.801 202.12 116.711C201.985 116.62 201.873 116.502 201.791 116.365C201.709 116.228 201.658 116.075 201.644 115.917ZM203.45 115.45C203.285 114.836 202.897 114.578 202.451 114.695C202.006 114.812 201.815 115.235 201.987 115.831C202.159 116.427 202.541 116.703 202.979 116.586C203.418 116.47 203.609 116.046 203.45 115.432V115.45Z" fill="#263238"/>
<path d="M186.545 125.618L183.957 130.721L183.429 126.017L186.545 125.618Z" fill="#407BFF"/>
<g opacity="0.7">
<path d="M186.545 125.618L183.957 130.721L183.429 126.017L186.545 125.618Z" fill="white"/>
</g>
<path d="M127.003 72.0161L138.699 60.3931L182.309 64.4762L189.356 93.3833L168.973 103.895L157.175 100.26L152.456 105.178L155.432 108.046L148.601 113.381L152.456 108.046L147.463 105.178L150.49 99.204L130.418 92.4132L127.003 72.0161Z" fill="#407BFF"/>
<g opacity="0.7">
<path d="M127.003 72.0161L138.699 60.3931L182.309 64.4762L189.356 93.3833L168.973 103.895L157.175 100.26L152.456 105.178L155.432 108.046L148.601 113.381L152.456 108.046L147.463 105.178L150.49 99.204L130.418 92.4132L127.003 72.0161Z" fill="white"/>
</g>
<path d="M162.027 95.698C160.347 95.7025 158.683 95.3766 157.137 94.7402C156.309 94.4374 155.57 93.9467 154.98 93.3096C154.543 92.7242 154.261 92.0442 154.159 91.3291C154.057 90.6141 154.138 89.8858 154.395 89.2081H154.205C152.861 89.3623 151.499 89.2174 150.223 88.7844C149.829 88.9932 149.441 89.1774 149.072 89.3431C149.349 89.6482 149.59 89.9818 149.791 90.3378C149.988 90.6076 150.114 90.9193 150.159 91.2464C150.205 91.5735 150.168 91.9063 150.051 92.2167C149.889 92.5499 149.623 92.8257 149.29 93.0052C148.956 93.1847 148.573 93.2589 148.194 93.2175C146.732 93.1684 144.715 92.0754 143.571 90.9948L142.903 91.0562C140.927 91.2292 138.946 90.7882 137.249 89.7975C136.175 89.0833 135.276 88.15 134.617 87.0635C133.957 85.9771 133.553 84.764 133.433 83.5101C133.219 81.0247 133.739 78.5316 134.934 76.3202C135.264 75.6704 135.636 75.0409 136.047 74.4352C135.486 74.4413 134.926 74.4167 134.368 74.3615C134.179 74.3632 133.993 74.3204 133.826 74.2369C133.659 74.1535 133.515 74.0319 133.407 73.8826C133.166 73.4283 133.477 72.9002 134.202 72.538C136.517 71.3764 138.902 70.3512 141.345 69.468C141.726 69.2408 142.121 69.0382 142.521 68.854C144.184 68.0679 145.996 67.6179 147.845 67.5313C149.694 67.4447 151.542 67.7235 153.276 68.3505C153.575 68.4671 153.861 68.5899 154.147 68.7312C155.716 68.2921 157.317 67.9698 158.936 67.7672C163.007 67.1807 167.155 67.3348 171.167 68.2215C175.332 69.2162 177.527 70.9477 177.832 73.5081C178.093 75.5895 177.005 77.1921 175.581 78.5183C176.052 79.1618 176.457 79.8487 176.789 80.5691C177.155 80.6376 177.512 80.7404 177.857 80.8761C179.514 81.5507 180.851 82.796 181.61 84.3697C182.341 85.8495 182.697 88.0537 181.495 89.7607C180.625 90.8726 179.397 91.6738 178.004 92.0386C176.466 92.5436 174.851 92.7928 173.227 92.7754C172.203 92.7982 171.188 92.5878 170.264 92.1614C169.619 91.8061 169.069 91.3111 168.656 90.7155C168.243 90.1199 167.979 89.4399 167.885 88.7291C167.675 89.1502 167.395 89.5358 167.058 89.8712C167.602 90.1705 168.032 90.6302 168.285 91.1827C168.537 91.7353 168.6 92.3516 168.464 92.9412C168.152 93.9052 167.192 94.6604 165.665 95.1147C164.49 95.4847 163.263 95.6813 162.027 95.698ZM154.955 89.1467C154.516 90.4176 154.459 91.8974 155.381 92.9964C155.915 93.5748 156.587 94.0176 157.34 94.2858C159.939 95.3439 162.841 95.4873 165.538 94.6911C166.479 94.4086 167.669 93.856 167.999 92.8491C168.114 92.3422 168.051 91.8129 167.821 91.344C167.591 90.8752 167.206 90.4932 166.727 90.258C165.557 91.3062 164.093 91.9981 162.517 92.2474C162.33 92.2953 162.135 92.3042 161.944 92.2735C161.753 92.2428 161.571 92.1732 161.41 92.0693C161.232 91.8995 161.122 91.6737 161.101 91.4328C161.08 91.1918 161.149 90.9515 161.296 90.7553C161.554 90.4288 161.902 90.1797 162.301 90.037C163.582 89.3785 165.076 89.2223 166.473 89.601L166.632 89.6624L166.721 89.5703C167.002 89.3356 167.23 89.0467 167.389 88.722C167.548 88.3974 167.634 88.0443 167.643 87.6853C167.58 86.8012 166.759 86.1995 165.888 85.8433C165.856 85.917 165.824 85.9907 165.786 86.0644C165.074 87.5011 163.694 88.723 161.671 89.6993C161.037 90.0517 160.328 90.2616 159.598 90.3133C159.211 90.3253 158.829 90.2343 158.492 90.0502C158.155 89.866 157.878 89.5959 157.69 89.2695C157.591 89.0781 157.535 88.869 157.524 88.6555C156.681 88.8756 155.822 89.0397 154.955 89.1467ZM144.232 90.915C145.294 91.8053 146.948 92.7017 148.213 92.757C148.491 92.796 148.775 92.7479 149.022 92.6196C149.269 92.4914 149.467 92.2899 149.587 92.0447C149.659 91.8039 149.675 91.5506 149.633 91.3032C149.591 91.0558 149.493 90.8205 149.346 90.6141C149.131 90.2464 148.873 89.9043 148.576 89.5949L148.5 89.6317C147.135 90.2205 145.702 90.6512 144.232 90.915ZM175.224 78.8683C174.658 79.3779 174.048 79.8507 173.463 80.3051C172.878 80.7594 172.369 81.1585 171.892 81.5822C169.984 83.283 168.852 84.9223 168.464 86.5986C168.057 88.373 168.642 90.7799 170.531 91.7439C171.382 92.1341 172.318 92.3195 173.259 92.2842C174.825 92.3088 176.383 92.0698 177.864 91.5781C179.149 91.244 180.285 90.5103 181.095 89.4905C182.176 87.9432 181.845 85.9416 181.171 84.5785C180.472 83.1147 179.231 81.9561 177.692 81.3304C177.485 81.2465 177.273 81.1767 177.056 81.1217C177.151 81.3857 177.24 81.6436 177.31 81.9076C177.766 83.3286 177.65 84.8633 176.986 86.2056C176.632 86.8874 176.063 87.4439 175.362 87.7956C174.661 88.1473 173.863 88.2763 173.081 88.1643C172.317 87.9738 171.641 87.5422 171.16 86.9381C170.68 86.3339 170.422 85.592 170.429 84.8302C170.455 84.0796 170.678 83.3476 171.077 82.7032C171.476 82.0587 172.039 81.5229 172.712 81.1462C173.769 80.5523 174.995 80.3005 176.21 80.4279C175.926 79.8832 175.596 79.3616 175.224 78.8683ZM165.048 89.8773C164.166 89.9111 163.3 90.1201 162.504 90.4913C162.198 90.5996 161.927 90.7864 161.722 91.0316C161.644 91.1246 161.602 91.2405 161.602 91.3601C161.602 91.4797 161.644 91.5957 161.722 91.6886C161.936 91.7959 162.184 91.8201 162.415 91.7562C163.814 91.5305 165.12 90.9378 166.193 90.0431C165.827 89.93 165.445 89.874 165.061 89.8773H165.048ZM134.336 79.2858C133.94 80.6466 133.811 82.0667 133.954 83.4733C134.063 84.6522 134.439 85.7936 135.054 86.8173C135.67 87.841 136.51 88.722 137.516 89.3984C139.118 90.3317 140.988 90.7449 142.852 90.5773H143.125C142.966 90.3905 142.834 90.184 142.731 89.9633C142.468 89.2049 142.383 88.3995 142.483 87.6055H142.152L141.548 87.5564C139.812 87.409 137.637 87.0529 136.218 85.5916C136.171 85.5447 136.145 85.4819 136.145 85.4166C136.145 85.3513 136.171 85.2886 136.218 85.2416C136.242 85.2184 136.27 85.2 136.301 85.1874C136.333 85.1748 136.366 85.1683 136.4 85.1683C136.433 85.1683 136.467 85.1748 136.498 85.1874C136.529 85.2 136.557 85.2184 136.581 85.2416C137.853 86.5801 139.933 86.9117 141.58 87.0468L142.178 87.0959L142.515 87.1266C142.515 87.0713 142.515 87.0161 142.515 86.967L142.547 86.6538C142.585 86.2424 142.61 85.8249 142.629 85.4258C141.846 85.3538 141.115 85.0141 140.569 84.468C139.761 83.6145 139.538 82.3067 139.901 80.5814C140.022 80.0079 140.192 79.4452 140.41 78.899C139.847 79.2183 139.265 79.5053 138.667 79.7586C137.806 80.1783 136.845 80.371 135.881 80.3173C135.607 80.2982 135.339 80.2245 135.095 80.1009C134.851 79.9773 134.636 79.8064 134.463 79.599C134.413 79.499 134.375 79.394 134.349 79.2858H134.336ZM142.998 87.6239C142.905 88.3408 142.979 89.0687 143.214 89.7545C143.346 90.0269 143.527 90.2744 143.749 90.4852C145.269 90.2466 146.751 89.8172 148.156 89.2081C146.782 88.0722 144.913 87.802 143.011 87.6239H142.998ZM157.951 88.5327C157.95 88.7138 157.994 88.8926 158.078 89.0546C158.232 89.2972 158.451 89.4956 158.712 89.6294C158.972 89.7632 159.265 89.8276 159.56 89.8159C160.207 89.7711 160.835 89.5865 161.398 89.2756C163.306 88.3485 164.622 87.2003 165.284 85.8679L165.36 85.7083L165.188 85.6653L164.724 85.5793C163.225 86.5155 161.623 87.2878 159.948 87.8818C159.273 88.1336 158.612 88.3485 157.963 88.5327H157.951ZM143.043 87.1266C145.122 87.3108 147.177 87.6239 148.684 88.9686C148.989 88.8335 149.32 88.6862 149.632 88.5204L149.517 88.4528C148.69 87.9678 147.959 86.9854 148.328 85.9968C148.49 85.5946 148.742 85.2319 149.066 84.9346C150.487 83.6119 152.161 82.5692 153.995 81.8646V81.7602C153.943 81.4848 153.869 81.2138 153.772 80.9498C152.921 81.4898 151.939 81.8053 150.923 81.8646C150.608 81.8631 150.294 81.826 149.988 81.7541C148.398 83.3566 146.579 84.9039 144.264 85.3276C143.921 85.3936 143.571 85.4245 143.221 85.4197C143.221 85.8372 143.176 86.2547 143.138 86.6477L143.106 86.9608L143.043 87.1266ZM150.789 88.4774C151.883 88.7599 153.021 88.8452 154.147 88.7291L154.561 88.6923C154.704 88.332 154.876 87.9831 155.076 87.6485C155.607 86.8074 156.205 86.0069 156.863 85.2539C157.483 84.5466 158.051 83.7977 158.561 83.0128C159.006 82.2848 159.346 81.502 159.572 80.6857C158.892 80.8208 158.23 80.9989 157.664 81.1585H157.544C156.537 81.4259 155.547 81.7498 154.58 82.1286C154.641 83.0312 154.502 83.9359 154.173 84.7827C153.844 85.6296 153.332 86.3992 152.672 87.0406C152.111 87.5904 151.483 88.0729 150.802 88.4774H150.789ZM160.132 80.5814C159.895 81.5252 159.514 82.4296 159 83.2645C158.482 84.0728 157.901 84.8425 157.264 85.567C156.624 86.3003 156.042 87.0781 155.521 87.8941C155.382 88.1287 155.257 88.3705 155.146 88.6186C155.938 88.5071 156.722 88.3471 157.493 88.1397C157.761 87.3023 158.35 86.5953 159.14 86.1626C160.775 85.1983 162.705 84.8079 164.603 85.0574C164.991 84.8057 165.36 84.5417 165.703 84.2715C165.769 83.7191 165.698 83.1595 165.494 82.6394C165.29 82.1192 164.961 81.6536 164.533 81.2813C163.363 80.3358 161.728 80.3235 160.145 80.5814H160.132ZM154.046 82.362C152.34 83.0478 150.784 84.0395 149.46 85.2846C149.188 85.5319 148.971 85.8308 148.824 86.1626C148.57 86.8749 149.117 87.6485 149.797 88.0476C149.924 88.1224 150.056 88.1901 150.191 88.2502C150.966 87.8307 151.676 87.31 152.303 86.7029C152.885 86.1321 153.341 85.4529 153.643 84.7066C153.945 83.9604 154.086 83.1626 154.058 82.362H154.046ZM163.477 85.4811C162.043 85.4813 160.637 85.8638 159.413 86.5863C158.84 86.9155 158.376 87.3972 158.078 87.9739C158.625 87.8143 159.191 87.6301 159.763 87.4152C161.206 86.9031 162.594 86.2596 163.91 85.4934L163.477 85.4811ZM175.6 80.9559C174.68 80.9595 173.779 81.2035 172.992 81.662C172.398 81.9908 171.9 82.4594 171.544 83.0241C171.188 83.5888 170.986 84.2313 170.957 84.8916C170.95 85.5383 171.166 86.1687 171.571 86.6835C171.977 87.1983 172.548 87.5681 173.196 87.7345C173.869 87.818 174.553 87.6982 175.153 87.3914C175.753 87.0847 176.24 86.6061 176.547 86.0214C177.151 84.7861 177.251 83.3766 176.827 82.0734C176.729 81.7224 176.608 81.3779 176.465 81.0419C176.183 80.9906 175.898 80.9619 175.612 80.9559H175.6ZM166.021 85.3951C166.8 85.6482 167.46 86.1594 167.885 86.838C167.885 86.7214 167.923 86.6047 167.949 86.488C168.362 84.7136 169.532 82.9882 171.536 81.2138C172.019 80.784 172.56 80.3665 173.126 79.9182C173.692 79.47 174.347 78.9665 174.913 78.4692C174.548 78.0011 174.155 77.5542 173.736 77.1307C170.613 73.944 165.265 71.4389 160.38 73.0292C160.094 73.1174 159.814 73.222 159.541 73.3423C162.023 73.4682 164.462 74.0256 166.74 74.9878C167.869 75.3839 168.83 76.1285 169.475 77.1061C170.194 78.4201 169.882 80.2437 168.635 81.9813C167.955 82.9283 167.144 83.7814 166.225 84.5171C166.19 84.8148 166.126 85.1088 166.034 85.3951H166.021ZM165.315 85.1864L165.532 85.2355C165.532 85.1557 165.576 85.0697 165.595 84.9837L165.315 85.1864ZM143.183 84.9039C143.496 84.904 143.809 84.8773 144.118 84.8241C146.242 84.4373 147.934 83.0374 149.435 81.5515C149.101 81.4054 148.8 81.1967 148.551 80.9375C148.138 80.4604 147.878 79.8779 147.803 79.261C147.727 78.644 147.839 78.019 148.124 77.4622C148.356 76.9867 148.67 76.5527 149.053 76.179C147.699 75.4523 146.124 75.2047 144.601 75.479C143.871 76.2878 143.062 77.026 142.184 77.6833C142.417 78.2566 142.589 78.8511 142.699 79.4577C143.068 81.2505 143.234 83.0765 143.195 84.9039H143.183ZM141.192 78.371C140.844 79.0877 140.585 79.8422 140.422 80.6182C140.098 82.1778 140.276 83.3382 140.969 84.0689C141.419 84.5177 142.018 84.8002 142.661 84.8671C142.701 83.0859 142.545 81.3056 142.197 79.556C142.098 79.0248 141.951 78.503 141.758 77.9964C141.593 78.1254 141.402 78.2543 141.192 78.371ZM161.735 79.9367C162.861 79.889 163.969 80.2308 164.858 80.9006C165.286 81.2697 165.629 81.7218 165.865 82.2275C166.101 82.7332 166.223 83.2811 166.225 83.8356C166.967 83.2021 167.626 82.4847 168.19 81.6988C169.322 80.1147 169.621 78.4876 168.992 77.3333C168.396 76.4604 167.523 75.797 166.505 75.4422C164.257 74.495 161.85 73.9499 159.401 73.8335C159.781 74.5799 160.061 75.3702 160.234 76.1851C160.495 77.4643 160.495 78.7803 160.234 80.0595C160.736 79.9804 161.245 79.9394 161.754 79.9367H161.735ZM154.192 80.6673C154.315 80.9862 154.408 81.315 154.472 81.6497C155.419 81.2826 156.387 80.9689 157.372 80.7103H157.493C158.167 80.5322 158.924 80.3296 159.7 80.1823C160.191 78.0337 159.878 75.7864 158.816 73.8396H158.542C157.906 74.1826 157.3 74.5748 156.729 75.0124C155.352 76.1078 154.076 77.3157 152.913 78.6227C153.334 79.1176 153.69 79.6598 153.976 80.2375C155.317 79.4683 156.353 78.2883 156.92 76.8851C156.945 76.8236 156.993 76.7734 157.054 76.7448C157.116 76.7163 157.186 76.7115 157.251 76.7316C157.283 76.7419 157.312 76.7583 157.337 76.7797C157.363 76.8011 157.383 76.8271 157.398 76.8562C157.413 76.8853 157.422 76.9169 157.424 76.9493C157.426 76.9817 157.421 77.0141 157.41 77.0447C156.8 78.5603 155.68 79.834 154.23 80.6612L154.192 80.6673ZM150.376 81.312C150.547 81.3339 150.719 81.3462 150.891 81.3489C151.841 81.2844 152.757 80.9817 153.549 80.4708C153.29 79.9327 152.964 79.4275 152.576 78.9665L152.417 79.1446C151.979 79.6112 151.546 80.084 151.107 80.5445L150.955 80.7103L150.376 81.312ZM149.524 76.4C149.136 76.7501 148.819 77.1665 148.589 77.628C148.344 78.0936 148.245 78.6179 148.304 79.1368C148.362 79.6558 148.576 80.1471 148.919 80.5507C149.167 80.8025 149.472 80.9958 149.81 81.1155C150.071 80.8515 150.325 80.5814 150.573 80.3235L150.726 80.1577C151.164 79.6972 151.597 79.2306 151.998 78.7639L152.214 78.5306C151.797 78.0896 151.346 77.6791 150.866 77.3026C150.449 76.979 150.007 76.6874 149.543 76.4307L149.524 76.4ZM138.96 75.8781C137.782 75.9234 136.648 76.3227 135.716 77.0202C135.08 77.5052 134.374 78.5122 134.902 79.2183C135.034 79.3666 135.195 79.4881 135.377 79.5756C135.558 79.6631 135.756 79.7149 135.958 79.7279C136.838 79.7735 137.715 79.5957 138.502 79.2121C139.309 78.8654 140.086 78.4546 140.823 77.9841C140.98 77.6829 141.156 77.3917 141.351 77.1123C141.065 76.6475 140.636 76.2804 140.124 76.0623C139.756 75.9386 139.367 75.8865 138.979 75.9088L138.96 75.8781ZM149.931 76.0562C150.376 76.3163 150.801 76.6077 151.203 76.9281C151.687 77.3044 152.142 77.7149 152.564 78.1561C153.725 76.8462 155.002 75.6361 156.38 74.5396C156.749 74.2572 157.124 73.9993 157.499 73.766C155.205 73.772 152.947 74.3201 150.923 75.3624C150.579 75.578 150.253 75.8203 149.95 76.0869L149.931 76.0562ZM163.516 72.0099C167.586 72.0099 171.561 74.1651 174.105 76.7561C174.521 77.1805 174.913 77.6252 175.282 78.0885C176.604 76.8605 177.558 75.4053 177.33 73.5449C177.037 71.2117 174.983 69.6215 171.052 68.6759C167.1 67.8056 163.015 67.6557 159.006 68.2338C157.588 68.4127 156.183 68.6835 154.802 69.0443C156.533 70.0189 157.977 71.403 159 73.066C159.401 72.8808 159.813 72.7188 160.234 72.5809C161.297 72.2299 162.411 72.0474 163.535 72.0406L163.516 72.0099ZM141.942 77.1614C142.493 76.7479 143.014 76.2986 143.501 75.8167C142.895 76.1679 142.371 76.6361 141.962 77.1921L141.942 77.1614ZM138.972 75.3869C139.427 75.3809 139.879 75.4623 140.302 75.6264C140.852 75.8547 141.323 76.2322 141.656 76.7132C142.119 76.166 142.69 75.7131 143.335 75.3808C143.649 75.2232 143.979 75.0997 144.321 75.0124C144.811 74.4524 145.261 73.8616 145.669 73.2441C145.932 72.8415 146.146 72.4109 146.305 71.9608L144.963 72.4643C142.33 73.5253 139.54 74.1801 136.695 74.4045C136.216 75.0805 135.791 75.7907 135.423 76.529L135.347 76.6825L135.417 76.6272C136.448 75.8733 137.698 75.4503 138.991 75.4176L138.972 75.3869ZM145.758 74.8282C147.05 74.8633 148.314 75.1937 149.447 75.7922C149.845 75.4762 150.271 75.1948 150.719 74.951C152.833 73.8616 155.192 73.2902 157.588 73.287C157.874 73.287 158.154 73.287 158.44 73.287L158.523 73.2441C157.457 71.5523 155.936 70.171 154.122 69.2469C151.724 69.9223 149.415 70.8003 147.024 71.7029L146.929 71.7398C146.762 72.3678 146.493 72.9665 146.134 73.5142C145.822 73.9809 145.498 74.4352 145.135 74.8712C145.349 74.8551 145.563 74.851 145.778 74.8589L145.758 74.8282ZM139.538 70.6714C137.808 71.3652 136.104 72.1327 134.45 72.9616C134.151 73.1151 133.751 73.416 133.872 73.6432C133.992 73.8703 134.228 73.8335 134.425 73.8581C135.084 73.9192 135.747 73.9377 136.409 73.9133C137.305 72.7116 138.364 71.6315 139.557 70.7021L139.538 70.6714ZM141.574 69.8978C139.819 70.9316 138.29 72.285 137.071 73.8826C139.722 73.6208 142.319 72.9858 144.779 71.9976L146.452 71.3836C146.526 71.0725 146.512 70.748 146.413 70.4436C146.313 70.1392 146.131 69.866 145.886 69.6522C144.932 68.8662 143.342 69.2838 142.26 69.6522L141.574 69.8978ZM144.461 68.6698C145.1 68.6453 145.726 68.8461 146.223 69.2346C146.503 69.4664 146.72 69.7613 146.854 70.0933C146.989 70.4253 147.036 70.7841 146.992 71.138C149.148 70.3153 151.247 69.5294 153.41 68.8908L153.092 68.768C150.229 67.7178 147.073 67.6852 144.188 68.6759L144.461 68.6698Z" fill="#263238"/>
<path d="M83.3669 181.879L88.4231 184.783L86.1971 180.559L83.3669 181.879Z" fill="#407BFF"/>
<g opacity="0.7">
<path d="M83.3669 181.879L88.4231 184.783L86.1971 180.559L83.3669 181.879Z" fill="white"/>
</g>
<path d="M86.3076 168.052L65.081 171.735C62.2634 172.224 60.3899 174.825 60.8964 177.546L61.6131 181.395C62.1196 184.115 64.8142 185.924 67.6318 185.435L88.8583 181.751C91.6759 181.263 93.5494 178.661 93.043 175.941L92.3262 172.092C91.8198 169.371 89.1251 167.563 86.3076 168.052Z" fill="#407BFF"/>
<g opacity="0.7">
<path d="M86.3076 168.052L65.081 171.735C62.2634 172.224 60.3899 174.825 60.8964 177.546L61.6131 181.395C62.1196 184.115 64.8142 185.924 67.6318 185.435L88.8583 181.751C91.6759 181.263 93.5494 178.661 93.043 175.941L92.3262 172.092C91.8198 169.371 89.1251 167.563 86.3076 168.052Z" fill="white"/>
</g>
<path d="M66.9581 178.128C66.9342 178.016 66.9337 177.9 66.9568 177.789C66.9799 177.677 67.026 177.57 67.0924 177.476C67.1588 177.381 67.2442 177.301 67.3435 177.239C67.4428 177.177 67.5539 177.134 67.6704 177.115C67.7878 177.093 67.9084 177.095 68.0252 177.119C68.1421 177.143 68.2528 177.189 68.351 177.255C68.4492 177.32 68.5329 177.404 68.5973 177.501C68.6617 177.599 68.7055 177.707 68.7262 177.821C68.7708 178.051 68.7188 178.289 68.5817 178.483C68.4445 178.676 68.2334 178.809 67.9948 178.852C67.8773 178.871 67.757 178.868 67.641 178.842C67.525 178.816 67.4155 178.767 67.319 178.7C67.2225 178.632 67.1408 178.547 67.0789 178.449C67.0169 178.351 66.9758 178.241 66.9581 178.128Z" fill="#263238"/>
<path d="M71.2893 177.378C71.2653 177.267 71.2649 177.151 71.288 177.039C71.3111 176.927 71.3572 176.821 71.4236 176.727C71.49 176.632 71.5754 176.551 71.6747 176.489C71.774 176.427 71.8851 176.385 72.0016 176.365C72.119 176.344 72.2396 176.346 72.3564 176.37C72.4732 176.394 72.584 176.44 72.6821 176.506C72.7803 176.571 72.8641 176.655 72.9285 176.752C72.9929 176.849 73.0367 176.958 73.0573 177.071C73.0986 177.302 73.0452 177.538 72.9086 177.731C72.772 177.923 72.563 178.057 72.3259 178.103C72.2086 178.121 72.0886 178.117 71.9729 178.091C71.8572 178.064 71.748 178.016 71.6517 177.949C71.5554 177.881 71.4738 177.796 71.4116 177.698C71.3494 177.601 71.3078 177.492 71.2893 177.378Z" fill="#263238"/>
<path d="M75.6141 176.623C75.5901 176.512 75.5893 176.396 75.6119 176.284C75.6345 176.172 75.68 176.066 75.7458 175.971C75.8115 175.876 75.8961 175.795 75.9947 175.732C76.0933 175.669 76.2039 175.625 76.3201 175.604C76.4988 175.569 76.6845 175.585 76.8533 175.653C77.0221 175.72 77.1662 175.834 77.2672 175.981C77.3683 176.128 77.4216 176.3 77.4203 176.476C77.419 176.652 77.3632 176.824 77.2601 176.97C77.157 177.115 77.0112 177.227 76.8415 177.292C76.6717 177.357 76.4858 177.371 76.3076 177.334C76.1293 177.296 75.9668 177.207 75.841 177.08C75.7152 176.952 75.6317 176.791 75.6014 176.617L75.6141 176.623Z" fill="#263238"/>
<path d="M79.9452 175.874C79.9243 175.762 79.9265 175.647 79.9517 175.536C79.9768 175.425 80.0244 175.319 80.0917 175.226C80.159 175.132 80.2448 175.052 80.3441 174.991C80.4433 174.929 80.5542 174.887 80.6703 174.867C80.7863 174.847 80.9054 174.849 81.0207 174.873C81.1359 174.898 81.2451 174.944 81.3419 175.009C81.4388 175.074 81.5214 175.156 81.5852 175.252C81.6489 175.348 81.6924 175.455 81.7133 175.567C81.7579 175.798 81.706 176.036 81.5688 176.229C81.4316 176.423 81.2205 176.555 80.9819 176.599C80.8644 176.618 80.7442 176.614 80.6281 176.588C80.5121 176.562 80.4026 176.514 80.3061 176.446C80.2096 176.379 80.128 176.294 80.066 176.195C80.004 176.097 79.963 175.988 79.9452 175.874Z" fill="#263238"/>
<path d="M84.2764 175.125C84.2525 175.013 84.252 174.898 84.2751 174.786C84.2982 174.674 84.3443 174.568 84.4107 174.473C84.4771 174.379 84.5625 174.298 84.6618 174.236C84.7611 174.174 84.8722 174.132 84.9887 174.112C85.1061 174.091 85.2267 174.092 85.3435 174.116C85.4604 174.14 85.5711 174.187 85.6693 174.252C85.7675 174.318 85.8512 174.402 85.9156 174.499C85.98 174.596 86.0238 174.704 86.0445 174.818C86.0857 175.048 86.0323 175.285 85.8957 175.477C85.7591 175.67 85.5501 175.803 85.3131 175.85C85.1957 175.868 85.0757 175.864 84.96 175.837C84.8443 175.811 84.7352 175.762 84.6388 175.695C84.5425 175.628 84.4609 175.543 84.3987 175.445C84.3365 175.347 84.2949 175.238 84.2764 175.125Z" fill="#263238"/>
<path d="M142.464 118.207C142.464 118.207 136.441 116.979 131.143 119.816C125.845 122.653 126.252 136.597 122.316 137.88C118.379 139.163 117.291 140.741 118.105 143.031C118.919 145.322 114.97 145.721 114.569 146.9C114.285 147.802 114.06 148.721 113.895 149.65C113.895 149.65 117.463 148.379 119.46 151.492C121.457 154.605 125.426 159.1 129.636 158.965C133.846 158.83 137.948 161.064 141.396 162.44C144.843 163.815 149.606 158.756 152.729 156.84C155.852 154.924 155.82 157.454 159.089 156.84C162.358 156.226 163.039 153.85 163.039 153.85C163.039 153.85 159.776 151.695 161.951 147.661C164.126 143.627 157.181 139.636 159.089 134.411C160.997 129.186 154.593 119.411 142.464 118.207Z" fill="#263238"/>
<path d="M165.608 152.063H165.557C164.578 151.877 163.699 151.361 163.077 150.608C162.904 150.344 162.79 150.049 162.742 149.74C162.694 149.431 162.712 149.116 162.797 148.815C162.867 148.539 162.937 148.269 163.013 148.005C163.547 146.04 163.967 144.493 161.379 142.08C158.981 139.857 158.968 138.31 158.943 135.749C158.943 134.963 158.943 134.073 158.847 133.029C158.842 132.964 158.864 132.9 158.908 132.85C158.953 132.801 159.015 132.77 159.083 132.765C159.15 132.76 159.217 132.782 159.268 132.824C159.319 132.867 159.351 132.927 159.356 132.992C159.445 134.048 159.452 134.951 159.458 135.743C159.458 138.261 159.496 139.642 161.735 141.723C164.546 144.333 164.063 146.095 163.509 148.134L163.299 148.926C163.232 149.162 163.216 149.41 163.252 149.653C163.288 149.896 163.376 150.129 163.509 150.338C164.063 150.968 164.82 151.401 165.659 151.566C165.692 151.572 165.724 151.584 165.752 151.602C165.78 151.619 165.804 151.642 165.823 151.669C165.842 151.696 165.855 151.726 165.862 151.758C165.869 151.79 165.869 151.823 165.862 151.854C165.852 151.913 165.821 151.965 165.774 152.003C165.728 152.041 165.669 152.063 165.608 152.063Z" fill="#263238"/>
<path d="M112.871 146.654C112.807 146.658 112.744 146.638 112.694 146.599C112.645 146.56 112.612 146.504 112.603 146.443C112.595 146.381 112.61 146.319 112.647 146.268C112.683 146.218 112.738 146.182 112.801 146.169C112.801 146.169 115.078 145.555 115.784 144.327C115.894 144.143 115.963 143.938 115.984 143.726C116.006 143.514 115.981 143.3 115.911 143.099C115.11 140.502 116.973 138.457 121.444 137.014C124.656 135.983 124.993 133.232 125.381 130.045C125.503 128.807 125.703 127.576 125.979 126.361C127.251 121.136 130.475 118.741 135.519 119.239C135.552 119.242 135.585 119.251 135.615 119.267C135.644 119.282 135.67 119.303 135.692 119.328C135.713 119.353 135.729 119.382 135.739 119.413C135.748 119.444 135.751 119.477 135.748 119.509C135.745 119.542 135.736 119.574 135.721 119.603C135.705 119.633 135.684 119.659 135.658 119.68C135.632 119.701 135.601 119.717 135.569 119.727C135.536 119.736 135.502 119.739 135.468 119.736C130.666 119.257 127.728 121.461 126.494 126.49C126.225 127.684 126.028 128.891 125.903 130.107C125.515 133.318 125.146 136.351 121.622 137.475C117.463 138.819 115.714 140.655 116.42 142.939C116.506 143.201 116.535 143.478 116.506 143.752C116.476 144.025 116.388 144.29 116.248 144.529C115.434 145.948 113.068 146.599 112.954 146.629L112.871 146.654Z" fill="#263238"/>
<path d="M214.497 195.252C212.508 192.155 210.355 189.159 208.048 186.275C205.74 183.412 202.49 181.394 198.835 180.552C195.179 179.711 191.336 180.096 187.938 181.646C186.666 182.223 185.413 182.818 184.179 183.432C155.788 197.303 132.243 217.602 132.243 217.602L133.147 219.284C113.857 226.093 96.1314 246.14 107.363 252.919C120.401 260.784 134.864 256.634 149.225 249.192L149.295 249.155L149.473 249.063C151.8 247.872 170.194 237.888 194.794 210.633C205.091 222.864 219.891 232.958 230.467 246.779C232.057 247.227 241.019 247.503 240.726 246.06C240.739 246.048 228.547 216.846 214.497 195.252Z" fill="#263238"/>
<path opacity="0.2" d="M240.739 246.048C241.031 247.491 232.07 247.209 230.48 246.767C221.773 235.377 210.192 226.505 200.626 216.926C198.578 214.869 196.619 212.782 194.807 210.62C170.206 237.876 151.813 247.86 149.485 249.051L149.307 249.143L149.237 249.18C137.465 255.277 125.623 259.163 114.563 256.032C112.027 255.312 109.607 254.258 107.37 252.9C96.1378 246.146 113.857 226.075 133.159 219.266L132.256 217.583C132.256 217.583 135.379 214.9 140.709 210.829C149.956 203.731 165.882 192.409 183.772 183.641L184.192 183.433C185.464 182.819 186.685 182.205 187.951 181.64C191.349 180.093 195.191 179.709 198.845 180.551C202.5 181.394 205.748 183.413 208.055 186.275C210.363 189.157 212.514 192.153 214.497 195.252C228.547 216.846 240.739 246.048 240.739 246.048Z" fill="white"/>
<path opacity="0.2" d="M200.626 216.926C198.578 214.869 196.619 212.782 194.807 210.62C170.206 237.876 151.813 247.86 149.485 249.051L149.307 249.143L149.237 249.18C137.465 255.277 125.623 259.163 114.563 256.032C115.784 245.79 127.206 227.346 140.696 210.799C149.943 203.701 165.869 192.379 183.759 183.611C187.442 188.879 192.956 198.69 200.626 216.926Z" fill="black"/>
<path d="M164.629 128.326L160.622 119.816L153.575 124.341C153.575 124.341 155.483 130.671 161.124 131.126L164.629 128.326Z" fill="#EBB376"/>
<path d="M155.159 115.757L150.745 120.344L153.575 124.341L160.622 119.816L155.159 115.757Z" fill="#EBB376"/>
<path d="M152.532 162.906C160.8 158.744 169.068 154.046 175.689 147.692L175.053 148.557C174.954 148.735 174.892 148.928 174.868 149.128C174.684 147.286 171.485 143.056 169.456 140.692C166.212 136.836 162.517 133.084 158.949 129.474C158.477 128.987 158.203 128.352 158.179 127.685C158.155 127.018 158.382 126.365 158.819 125.848C159.255 125.331 159.871 124.984 160.552 124.871C161.234 124.759 161.934 124.889 162.523 125.238C164.915 126.668 167.115 128.191 169.322 129.806C175.612 134.589 189.916 145.635 183.435 154.31C176.611 162.17 167.777 168.003 158.339 172.497L157.346 172.939C155.968 173.556 154.393 173.618 152.967 173.113C151.541 172.608 150.382 171.577 149.743 170.247C149.105 168.916 149.04 167.396 149.563 166.019C150.086 164.642 151.154 163.523 152.532 162.906Z" fill="#E9B376"/>
<path d="M164.406 172.663C161.417 174.282 158.339 175.742 155.184 177.035C152.125 178.263 149.015 179.227 147.1 179.018L146.681 177.606L141.383 159.935C141.383 159.935 150.656 161.163 163.713 155.637C163.725 155.661 167.465 163.742 164.406 172.663Z" fill="#2D7DBB"/>
<path opacity="0.2" d="M155.184 177.035C152.125 178.263 149.015 179.227 147.1 179.018L146.681 177.606C147.317 174.738 148.977 171.392 152.208 167.929C154.139 170.6 155.177 173.777 155.184 177.035Z" fill="black"/>
<path d="M105.856 168.132C104.768 171.564 103.579 174.081 101.741 182.475C100.049 189.542 98.5991 196.56 96.4049 208.3L132.88 217.902C134.947 207.79 139.335 196.805 152.188 176.212C155.171 171.435 159.82 162.489 154.561 160.536C153.155 160.015 145.021 162.581 143.475 162.09C137.44 160.199 132.479 158.688 126.939 157.73C125.095 157.417 123.168 157.116 121.317 156.914C114.607 156.079 107.808 161.979 105.856 168.132Z" fill="#3490D8"/>
<path d="M123.263 155.041C123.263 155.041 125.635 154.372 130.863 154.568C138.495 154.851 144.035 163.023 144.035 163.023C144.035 163.023 144.849 170.17 142 174.855L137.045 170.17L130.253 174.431C130.253 174.431 122.042 161.009 123.263 155.041Z" fill="#407BFF"/>
<path opacity="0.7" d="M123.263 155.041C123.263 155.041 125.635 154.372 130.863 154.568C138.495 154.851 144.035 163.023 144.035 163.023C144.035 163.023 144.849 170.17 142 174.855L137.045 170.17L130.253 174.431C130.253 174.431 122.042 161.009 123.263 155.041Z" fill="white"/>
<path d="M134.05 141.895C133.376 146.807 131.321 155.453 126.698 156.895C126.698 156.895 129.28 163.287 137.045 168.991C140.861 166.21 140.499 161.451 140.499 161.451C140.499 161.451 137.656 158.173 140.938 153.408L134.05 141.895Z" fill="#EBB376"/>
<path opacity="0.1" d="M134.05 141.895C133.376 146.807 131.321 155.453 126.698 156.895C126.698 156.895 129.28 163.287 137.045 168.991C140.861 166.21 140.499 161.451 140.499 161.451C140.499 161.451 137.656 158.173 140.938 153.408L134.05 141.895Z" fill="black"/>
<path d="M134.349 130.272C132.18 138.776 131.08 142.325 133.942 148.115C138.247 156.834 149.206 158.044 153.906 150.455C158.122 143.627 160.959 130.862 153.81 124.605C146.77 118.435 136.517 121.762 134.349 130.272Z" fill="#EBB376"/>
<path d="M154.338 139.378L156.157 139.482C156.157 139.482 154.904 140.508 154.338 139.378Z" fill="#263238"/>
<path d="M149.88 139.611C149.88 139.611 150.141 143.068 150.993 145.002C149.81 145.543 148.372 144.591 148.372 144.591L149.88 139.611Z" fill="#D58745"/>
<path d="M143.844 143.633C143.499 143.397 143.133 143.192 142.75 143.019C142.724 143.007 142.696 143.001 142.667 143C142.638 143 142.61 143.005 142.583 143.016C142.557 143.027 142.533 143.044 142.513 143.064C142.494 143.085 142.479 143.109 142.47 143.136C142.451 143.19 142.453 143.25 142.476 143.304C142.5 143.357 142.543 143.4 142.598 143.424C143.466 143.791 144.238 144.343 144.854 145.039C145.471 145.734 145.917 146.555 146.159 147.44C146.169 147.496 146.201 147.546 146.248 147.58C146.296 147.613 146.355 147.627 146.414 147.618C146.442 147.612 146.468 147.601 146.492 147.585C146.516 147.569 146.536 147.549 146.551 147.525C146.566 147.502 146.577 147.476 146.582 147.448C146.586 147.421 146.585 147.393 146.579 147.366C146.173 145.84 145.2 144.511 143.844 143.633Z" fill="#263238"/>
<path d="M148.78 133.005C148.721 133 148.662 133.008 148.607 133.028C148.552 133.048 148.502 133.08 148.462 133.121C148.087 133.497 147.623 133.777 147.109 133.937C146.595 134.097 146.048 134.131 145.517 134.036C145.462 134.022 145.405 134.019 145.348 134.027C145.292 134.035 145.238 134.054 145.191 134.084C145.143 134.113 145.102 134.152 145.07 134.198C145.039 134.244 145.018 134.295 145.008 134.349C144.989 134.464 145.014 134.581 145.08 134.678C145.146 134.774 145.248 134.843 145.364 134.871C146.034 135.005 146.727 134.973 147.38 134.778C148.033 134.582 148.624 134.23 149.098 133.754C149.18 133.671 149.226 133.561 149.226 133.447C149.226 133.332 149.18 133.222 149.098 133.14C149.013 133.058 148.899 133.01 148.78 133.005Z" fill="#263238"/>
<path d="M154.885 134.466C154.835 134.445 154.781 134.434 154.726 134.434C154.671 134.434 154.617 134.445 154.567 134.466C154.458 134.507 154.37 134.588 154.322 134.692C154.275 134.795 154.271 134.913 154.313 135.019C154.526 135.679 154.894 136.283 155.388 136.783C155.882 137.284 156.489 137.667 157.162 137.904C157.216 137.921 157.274 137.926 157.33 137.92C157.387 137.913 157.441 137.895 157.49 137.867C157.539 137.838 157.581 137.8 157.613 137.755C157.645 137.709 157.667 137.658 157.677 137.604C157.702 137.491 157.682 137.373 157.622 137.273C157.562 137.174 157.466 137.099 157.353 137.063C156.823 136.868 156.346 136.559 155.959 136.159C155.572 135.759 155.285 135.278 155.12 134.755C155.103 134.694 155.074 134.637 155.033 134.587C154.993 134.537 154.942 134.496 154.885 134.466Z" fill="#263238"/>
<path d="M154.338 139.378C154.338 139.378 153.702 140.606 152.22 139.427C152.22 139.427 153.13 141.545 154.936 139.888L154.338 139.378Z" fill="#263238"/>
<path d="M145.415 137.26L147.234 137.364C147.234 137.364 145.975 138.383 145.415 137.26Z" fill="#263238"/>
<path d="M145.415 137.26C145.415 137.26 144.741 138.488 143.297 137.303C143.297 137.303 144.2 139.427 146.013 137.763L145.415 137.26Z" fill="#263238"/>
<path d="M134.317 122.88C134.317 122.88 140.321 113.056 153.085 118.827C165.85 124.599 159.445 137.352 159.445 137.352L156.857 135.694L156.933 130.819C156.017 132.392 154.52 133.573 152.742 134.128C152.742 134.128 155.451 132.231 156.38 130.113C156.38 130.113 153.918 132.845 150.846 132.919L144.327 131.433C144.327 131.433 147.565 130.383 149.167 128.694C149.167 128.694 143.488 131.549 138.902 132.047L134.196 137.487L129.623 133.57C129.623 133.57 129.49 123.69 134.317 122.88Z" fill="#263238"/>
<path d="M129.362 136.13C129.537 137.036 129.894 137.9 130.415 138.672C130.935 139.444 131.609 140.11 132.396 140.631C134.463 141.932 136.212 140.096 136.212 137.653C136.212 135.448 135.156 132.127 132.803 131.82C130.45 131.513 128.898 133.809 129.362 136.13Z" fill="#EBB376"/>
<path opacity="0.1" d="M142.636 155.201C139.176 154.446 135.888 152.039 133.942 148.115C132.687 145.774 132.101 143.152 132.243 140.52C132.232 140.518 132.221 140.512 132.212 140.505C132.203 140.497 132.197 140.488 132.193 140.477C132.511 137.487 132.778 134.294 132.829 131.82C133.199 131.869 133.552 132.001 133.859 132.207C134.018 131.593 134.183 130.942 134.361 130.266C134.699 128.902 135.285 127.607 136.091 126.441C137.048 126.648 137.974 126.965 138.852 127.387C138.852 127.387 144.518 142.387 142.636 155.201Z" fill="black"/>
<path opacity="0.2" d="M130.183 166.075C130.183 166.075 120.509 180.694 107.573 174.855C107.573 174.855 114.804 161.157 130.183 166.075Z" fill="black"/>
<path d="M116.185 156.908C121.521 156.595 127.633 156.65 132.581 154.967C132.254 155.214 131.976 155.516 131.76 155.858C131.712 155.933 131.674 156.013 131.646 156.097C132.03 154.998 132.274 153.858 132.371 152.702C133.172 145.598 133.153 134.896 133.382 127.651C133.399 126.978 133.671 126.335 134.145 125.842C134.62 125.349 135.264 125.041 135.958 124.975C136.652 124.91 137.346 125.091 137.911 125.486C138.475 125.88 138.871 126.46 139.023 127.116C140.423 133.52 141.383 140.006 141.898 146.531C142.102 150.921 143.017 158.866 139.558 162.299C134.196 167.143 123.117 168.021 116.14 167.966C108.654 167.554 108.705 157.258 116.185 156.914V156.908Z" fill="#E9B376"/>
<path d="M103.522 175.309C103.522 175.309 104.38 161.132 110.766 156.834C117.151 152.536 125.705 155.446 125.705 155.446C125.705 155.446 127.276 163.643 124.993 169.888C124.993 169.888 112.299 176.451 103.522 175.309Z" fill="#3490D8"/>
<path d="M133.236 127.202L135.862 118.207L143.539 121.652C143.539 121.652 142.617 128.191 137.134 129.462L133.236 127.202Z" fill="#EBB376"/>
<path d="M140.626 113.4L145.708 117.286L143.539 121.652L135.862 118.207L140.626 113.4Z" fill="#EBB376"/>
<path d="M185.159 187.27C184.949 186.656 184.733 186.042 184.523 185.471C183.677 183.177 182.281 181.11 180.448 179.437C178.616 177.765 176.399 176.534 173.98 175.847C171.56 175.161 169.007 175.036 166.528 175.485C164.05 175.933 161.716 176.942 159.719 178.428C158.886 179.042 158.065 179.656 157.245 180.301C141.408 192.514 128.288 206.384 121.393 214.169L96.3922 208.324C96.3922 208.324 78.4316 239.945 99.8266 253.963C105.207 257.487 109.125 257.168 114.162 257.168C126.405 257.168 138.788 248.412 138.788 248.412C138.788 248.412 152.144 238.631 169.316 213.488C175.479 225.154 182.863 237.913 187.486 249.714C188.898 250.555 196.848 250.942 196.982 249.524C196.982 249.499 193.656 211.916 185.159 187.27Z" fill="#263238"/>
<path opacity="0.2" d="M185.159 187.27C184.949 186.656 184.733 186.042 184.523 185.471C183.677 183.177 182.281 181.11 180.448 179.437C178.616 177.765 176.399 176.534 173.98 175.847C171.56 175.161 169.007 175.036 166.528 175.485C164.05 175.933 161.716 176.942 159.719 178.428C158.886 179.042 158.065 179.656 157.245 180.301C141.408 192.514 128.288 206.384 121.393 214.169L96.3922 208.324C96.3922 208.324 78.4316 239.945 99.8266 253.963C105.207 257.487 109.125 257.168 114.162 257.168C126.405 257.168 138.631 242.256 138.631 242.256C138.631 242.256 150.644 233.467 167.816 208.324C173.979 219.99 182.863 237.913 187.486 249.714C188.898 250.555 196.848 250.942 196.982 249.524C196.982 249.499 193.656 211.916 185.159 187.27Z" fill="white"/>
<path d="M205.027 257.02C198.031 257.02 197.096 256.916 193.166 256.793C189.795 256.677 188.987 257.082 186.278 257.02C184.02 256.977 184.103 254.884 184.802 252.483C185.152 251.255 185.687 248.719 186.17 246.767L196.429 246.048C197.872 248.707 201.129 252.501 205.078 253.017C208.843 253.502 207.819 257.02 205.027 257.02Z" fill="#263238"/>
<path d="M249.312 257.02C242.316 257.02 241.387 256.916 237.451 256.793C234.08 256.677 233.278 257.082 230.569 257.02C228.305 256.977 228.388 254.884 229.087 252.483C229.437 251.255 229.978 248.719 230.455 246.767L240.713 246.048C242.157 248.707 245.42 252.501 249.363 253.017C253.128 253.502 252.129 257.02 249.312 257.02Z" fill="#263238"/>
<path opacity="0.2" d="M121.406 214.145C121.406 214.145 114.836 221.654 112.26 225.694C112.26 225.694 112.082 215.446 121.406 214.145Z" fill="black"/>
</svg>
