<svg width="231" height="228" viewBox="0 0 231 228" fill="none" xmlns="http://www.w3.org/2000/svg">
<path d="M153.472 23.3198C153.472 23.3198 117.81 6.11494 82.7349 22.7133C47.6599 39.3117 29.8498 78.3636 14.5761 109.522C-0.69764 140.681 7.93714 175.209 34.65 193.631C61.3628 212.054 79.5887 191.666 117.108 194.972C154.627 198.278 164.694 204.967 195.883 186.896C227.073 168.825 232.843 118.163 208.408 77.3057C183.973 36.4481 153.472 23.3198 153.472 23.3198Z" fill="#263238"/>
<path d="M97.5883 20.064V86.5899" stroke="#4F4F4F" stroke-width="3" stroke-miterlimit="10"/>
<path d="M83.7006 44.9662H111.476V72.8369H140" stroke="#4F4F4F" stroke-width="3" stroke-miterlimit="10"/>
<path d="M153.509 27.4968V59.4579H140V116.321H218.064" stroke="#4F4F4F" stroke-width="3" stroke-miterlimit="10"/>
<path d="M140 87.7025H209.055" stroke="#4F4F4F" stroke-width="3" stroke-miterlimit="10"/>
<path d="M155.384 73.5802H203.428" stroke="#4F4F4F" stroke-width="3" stroke-miterlimit="10"/>
<path d="M168.524 73.5802V59.8318H183.16V52.7684" stroke="#4F4F4F" stroke-width="3" stroke-miterlimit="10"/>
<path d="M153.509 44.5923H167.771" stroke="#4F4F4F" stroke-width="3" stroke-miterlimit="10"/>
<path d="M126.112 44.9662H140V21.5506" stroke="#4F4F4F" stroke-width="3" stroke-miterlimit="10"/>
<path d="M125.738 21.1766V60.2011" stroke="#4F4F4F" stroke-width="3" stroke-miterlimit="10"/>
<path d="M112.599 31.5872H126.112" stroke="#4F4F4F" stroke-width="3" stroke-miterlimit="10"/>
<path d="M69.4386 36.0468V87.7025" stroke="#4F4F4F" stroke-width="3" stroke-miterlimit="10"/>
<path d="M27.78 91.0496V101.455H40.1663V87.7025H83.3263V102.568H111.476V88.4458H126.486V116.69H69.4386" stroke="#4F4F4F" stroke-width="3" stroke-miterlimit="10"/>
<path d="M69.4386 102.568V130.069H27.78" stroke="#4F4F4F" stroke-width="3" stroke-miterlimit="10"/>
<path d="M40.9147 130.443V185.446H69.4386" stroke="#4F4F4F" stroke-width="3" stroke-miterlimit="10"/>
<path d="M40.5405 157.945H26.2786" stroke="#4F4F4F" stroke-width="3" stroke-miterlimit="10"/>
<path d="M11.2635 144.192H26.6528" stroke="#4F4F4F" stroke-width="3" stroke-miterlimit="10"/>
<path d="M16.5211 115.578H55.1767V102.199" stroke="#4F4F4F" stroke-width="3" stroke-miterlimit="10"/>
<path d="M55.5509 171.324V143.822H112.224V130.443H168.524V143.822H182.407V101.825H197.796" stroke="#4F4F4F" stroke-width="3" stroke-miterlimit="10"/>
<path d="M154.636 102.199H169.646V87.7025" stroke="#4F4F4F" stroke-width="3" stroke-miterlimit="10"/>
<path d="M211.684 165.378V130.069H197.048V158.688H112.599V172.81H97.5883V193.622" stroke="#4F4F4F" stroke-width="3" stroke-miterlimit="10"/>
<path d="M97.2141 186.189H82.9521" stroke="#4F4F4F" stroke-width="3" stroke-miterlimit="10"/>
<path d="M97.5883 158.688H69.4386V198.082" stroke="#4F4F4F" stroke-width="3" stroke-miterlimit="10"/>
<path d="M83.7006 159.057V173.18" stroke="#4F4F4F" stroke-width="3" stroke-miterlimit="10"/>
<path d="M84.0747 144.192V130.813" stroke="#4F4F4F" stroke-width="3" stroke-miterlimit="10"/>
<path d="M97.5883 116.69V130.813" stroke="#4F4F4F" stroke-width="3" stroke-miterlimit="10"/>
<path d="M111.85 194.365V186.559H125.738" stroke="#4F4F4F" stroke-width="3" stroke-miterlimit="10"/>
<path d="M126.486 195.109V172.81" stroke="#4F4F4F" stroke-width="3" stroke-miterlimit="10"/>
<path d="M140.374 158.688V186.559H168.898V196.595" stroke="#4F4F4F" stroke-width="3" stroke-miterlimit="10"/>
<path d="M155.01 172.436H207.554" stroke="#4F4F4F" stroke-width="3" stroke-miterlimit="10"/>
<path d="M183.16 172.81V186.933" stroke="#4F4F4F" stroke-width="3" stroke-miterlimit="10"/>
<path d="M154.262 159.057V144.192" stroke="#4F4F4F" stroke-width="3" stroke-miterlimit="10"/>
<path d="M140.374 130.443V144.192" stroke="#4F4F4F" stroke-width="3" stroke-miterlimit="10"/>
<path d="M126.112 158.314V144.566" stroke="#4F4F4F" stroke-width="3" stroke-miterlimit="10"/>
<path d="M97.5883 73.5802H83.7006" stroke="#4F4F4F" stroke-width="3" stroke-miterlimit="10"/>
<path d="M82.9521 59.4579H70.1917" stroke="#4F4F4F" stroke-width="3" stroke-miterlimit="10"/>
<path d="M36.7844 73.5802H55.1766V50.1691" stroke="#4F4F4F" stroke-width="3" stroke-miterlimit="10"/>
<path d="M25.8997 171.324V182.842" stroke="#4F4F4F" stroke-width="3" stroke-miterlimit="10"/>
<path opacity="0.2" d="M164.121 29.4393C157.653 25.1165 153.472 23.3198 153.472 23.3198C153.472 23.3198 117.81 6.11494 82.735 22.7133C75.2212 26.3115 68.2646 30.9468 62.0743 36.48L23.6498 184.087C26.9422 187.666 30.6322 190.867 34.65 193.631C61.3444 212.049 79.5887 191.666 117.108 194.972C154.627 198.278 164.694 204.967 195.883 186.896C198.658 185.283 201.261 183.4 203.654 181.274L164.121 29.4393Z" fill="white"/>
<path d="M58.1288 51.4505L60.4619 42.4627" stroke="#263238" stroke-miterlimit="10"/>
<path d="M28.2928 166.504L57.0015 55.7916" stroke="#263238" stroke-miterlimit="10"/>
<path d="M25.8998 175.715L26.7175 172.573" stroke="#263238" stroke-miterlimit="10"/>
<path d="M182.421 100.115L200.314 169.34" stroke="#263238" stroke-miterlimit="10"/>
<path d="M168.016 44.3734L181.28 95.6916" stroke="#263238" stroke-miterlimit="10"/>
<path d="M110.108 214.972C138.729 214.972 161.931 212.33 161.931 209.071C161.931 205.813 138.729 203.171 110.108 203.171C81.4876 203.171 58.2859 205.813 58.2859 209.071C58.2859 212.33 81.4876 214.972 110.108 214.972Z" fill="#263238" stroke="#263238" stroke-miterlimit="10"/>
<path d="M112.797 208.155H115.5L121.044 169.6H143.747L145.645 208.292H147.882L149.73 128.036C149.73 127.673 149.583 127.325 149.324 127.068C149.064 126.812 148.711 126.668 148.344 126.668L114.821 126.969L99.0527 169.705L116.844 169.6L112.797 208.155Z" fill="#263238" stroke="#263238" stroke-miterlimit="10"/>
<path d="M145.978 129.167H114.983L117.006 164.584H144.712L145.978 129.167Z" fill="#8C8C8C" stroke="#263238" stroke-miterlimit="10"/>
<path d="M69.4293 130.37L68.9026 92.942H118.337L121.996 155.669H72.0442L69.4293 130.37Z" fill="#CCCCCC" stroke="#263238" stroke-miterlimit="10"/>
<path d="M68.9026 92.942C68.9026 92.942 72.825 94.766 74.3958 109.718C75.9666 124.67 76.4886 146.891 76.4886 146.891L69.2168 139.595L68.9026 92.942Z" fill="#263238" stroke="#263238" stroke-miterlimit="10"/>
<path d="M141.381 154.119H95.5508C94.7011 154.119 94.0123 154.799 94.0123 155.637V166.28C94.0123 167.119 94.7011 167.799 95.5508 167.799H141.381C142.231 167.799 142.92 167.119 142.92 166.28V155.637C142.92 154.799 142.231 154.119 141.381 154.119Z" fill="#B8B8B8" stroke="#263238" stroke-miterlimit="10"/>
<path d="M130.044 154.119H94.0123V167.799H130.044V154.119Z" fill="#263238" stroke="#263238" stroke-miterlimit="10"/>
<path d="M108.681 85.728C108.681 85.728 102.947 87.7253 100.471 89.6132C97.9948 91.501 97.0985 97.7163 98.6739 103.489C100.249 109.262 99.3485 111.15 97.9994 115.254C96.6504 119.358 85.4007 127.242 82.5917 133.904C79.7828 140.567 81.5799 147.671 85.8534 151.999C90.1269 156.326 100.471 156.663 103.622 156.663C106.773 156.663 110.145 156.44 110.145 156.44C110.145 156.44 120.041 155.984 127.577 153.996C135.112 152.008 140.175 145.45 138.263 140.899C136.35 136.349 130.053 135.236 127.355 134.237C124.657 133.239 121.39 131.018 120.379 130.243C119.367 129.468 118.244 128.464 118.244 128.464C118.244 128.464 120.157 125.692 121.94 124.912C123.724 124.132 128.801 125.824 132.4 117.698C132.861 115.999 133.017 114.234 132.862 112.482C132.525 110.037 132.862 108.264 132.977 104.155C133.093 100.046 136.673 96.8271 136.124 91.9433C135.574 87.0596 126.676 82.1758 118.692 83.6168C110.709 85.0577 108.681 85.728 108.681 85.728Z" fill="#3490D8" stroke="#263238" stroke-miterlimit="10"/>
<path d="M91.3142 133.371C91.3142 133.371 101.326 128.483 113.208 134.452" stroke="#263238" stroke-miterlimit="10"/>
<path d="M93.0144 130.799C96.666 129.96 100.486 130.193 104.005 131.469" stroke="#263238" stroke-miterlimit="10"/>
<path d="M116.937 86.599C116.669 90.9128 115.81 105.943 116.581 109.504C117.505 113.672 125.026 115.163 128.348 112.778C131.67 110.393 132.839 99.6908 133.476 93.1289C133.703 90.7668 132.594 88.1768 130.995 85.8329C127.275 83.7194 122.931 82.9337 118.692 83.6076L117.962 83.7444C117.385 84.7248 117.011 85.4408 117.011 85.4408C117.011 85.4408 116.978 85.8603 116.937 86.599Z" fill="white" stroke="#263238" stroke-miterlimit="10"/>
<path d="M115.07 87.7664L113.222 84.6564C109.73 85.3769 108.695 85.7144 108.695 85.7144C108.695 85.7144 102.961 87.7116 100.485 89.5995C98.0086 91.4873 97.1123 97.7026 98.6877 103.476C99.4593 106.298 99.6117 108.195 99.4593 109.86C102.804 111.542 108.237 113.585 110.261 110.384C113.264 105.632 115.07 87.7664 115.07 87.7664Z" fill="white" stroke="#263238" stroke-miterlimit="10"/>
<path d="M102.61 88.3774C102.61 88.3774 96.7612 89.9323 95.6386 97.7026C94.5159 105.473 102.837 118.127 104.879 122.126C106.921 126.125 112.64 135.35 115.338 136.335C118.036 137.32 120.85 132.336 120.85 127.01C120.85 121.684 113.763 111.355 111.85 107.028C109.937 102.7 108.588 96.0382 108.588 96.0382" fill="white"/>
<path d="M102.61 88.3774C102.61 88.3774 96.7612 89.9323 95.6386 97.7026C94.5159 105.473 102.837 118.127 104.879 122.126C106.921 126.125 112.64 135.35 115.338 136.335C118.036 137.32 120.85 132.336 120.85 127.01C120.85 121.684 113.763 111.355 111.85 107.028C109.937 102.7 108.588 96.0382 108.588 96.0382" stroke="#263238" stroke-miterlimit="10"/>
<path d="M144.449 97.584C144.449 97.584 143.322 109.896 142.31 117.119C141.298 124.342 139.612 131.109 137.025 133.325C134.437 135.541 128.478 133.658 128.029 128.888C127.581 124.119 130.284 119.016 131.628 114.242C132.973 109.467 134.775 100.812 134.89 98.5918C135.006 96.371 142.984 93.48 144.449 97.584Z" fill="white" stroke="#263238" stroke-miterlimit="10"/>
<path d="M112.067 68.1811C112.067 68.1811 112.067 69.5491 107.632 72.4311C103.197 75.313 98.2582 79.3075 98.2582 83.9359C98.2582 88.5643 100.411 89.8138 103.58 90.0646C105.536 90.1822 107.47 89.6048 109.032 88.4367C109.032 88.4367 108.02 90.9355 111.564 94.0637C115.107 97.1919 118.032 96.9411 119.547 96.3163C121.063 95.6916 133.869 100.94 138.803 100.42C143.737 99.9005 146.911 99.0523 146.528 93.6715C146.528 93.6715 151.093 95.6688 154.511 91.6697C157.93 87.6706 155.652 83.293 152.358 79.8137C149.064 76.3344 147.544 67.0457 144.758 62.0571C141.973 57.0684 132.442 51.87 123.197 55.3675C113.952 58.8651 113.841 66.0562 112.067 68.1811Z" fill="#263238" stroke="#263238" stroke-miterlimit="10"/>
<path d="M136.133 67.5382C136.133 67.5382 141.501 75.9013 148.002 77.8575" stroke="#8F8F8F" stroke-miterlimit="10"/>
<path d="M148.454 84.0043C152.4 86.7403 154.983 88.6236 153.074 90.6802" stroke="#8F8F8F" stroke-miterlimit="10"/>
<path d="M133.633 68.0306C135.38 71.4005 138.253 76.0106 142.07 79.2482C143.303 80.297 144.55 81.2364 145.766 82.1028" stroke="#8F8F8F" stroke-miterlimit="10"/>
<path d="M131.615 63.6348C131.615 63.6348 131.845 64.255 132.303 65.2719" stroke="#8F8F8F" stroke-miterlimit="10"/>
<path d="M118.891 77.4608C117.969 77.6865 117.027 77.8194 116.078 77.8575" stroke="#8F8F8F" stroke-miterlimit="10"/>
<path d="M128.792 58.3361C128.792 58.3361 127.614 69.8912 125.401 73.3841C124.374 74.9013 122.898 76.0686 121.173 76.7266" stroke="#8F8F8F" stroke-miterlimit="10"/>
<path d="M103.53 86.5396C104.313 86.7139 105.127 86.6999 105.904 86.4987" stroke="#8F8F8F" stroke-miterlimit="10"/>
<path d="M125.225 64.0361C124.546 66.8496 123.262 70.2377 120.878 71.9978C116.359 75.3449 106.754 74.2322 103.081 78.6919C100.536 81.7836 100.388 83.863 101.233 85.1215" stroke="#8F8F8F" stroke-miterlimit="10"/>
<path d="M125.964 59.4533C125.964 59.4533 125.909 60.3653 125.687 61.7333" stroke="#8F8F8F" stroke-miterlimit="10"/>
<path d="M144.49 88.2224C145.397 89.2086 145.937 90.4688 146.024 91.7974" stroke="#8F8F8F" stroke-miterlimit="10"/>
<path d="M129.637 70.3289C129.637 70.3289 131.023 77.5337 134.156 80.9218C136.156 83.0924 140.342 84.6519 143.169 86.9592" stroke="#8F8F8F" stroke-miterlimit="10"/>
<path d="M126.764 76.0563C126.764 76.0563 126.509 79.7043 124.735 80.4339C122.961 81.1635 120.3 80.1831 120.3 80.1831C120.3 80.1831 125.752 78.8105 126.764 76.0563Z" fill="white" stroke="#263238" stroke-miterlimit="10"/>
<path d="M128.284 75.4315C128.503 76.4197 128.414 77.4502 128.029 78.3877C127.644 79.3252 126.98 80.1259 126.126 80.6846C125.265 81.292 124.244 81.6391 123.186 81.6836C122.129 81.7281 121.081 81.4682 120.171 80.9354C120.171 80.9354 119.159 84.1867 117.889 89.189C116.618 94.1914 119.917 98.5644 121.585 100.94C123.252 103.316 126.274 104.187 127.54 103.562C128.806 102.937 130.196 101.565 133.869 98.6921C137.542 95.8193 139.57 90.4385 139.7 90.0646C139.829 89.6906 128.538 82.308 128.284 75.4315Z" fill="white" stroke="#263238" stroke-miterlimit="10"/>
<path d="M132.709 90.9857C132.709 90.9857 131.785 98.2817 130.469 100.215C129.905 101.05 127.849 99.7592 127.849 99.7592" stroke="#263238" stroke-miterlimit="10"/>
<path d="M127.577 140.266C127.577 140.266 126.302 146.025 124.601 147.831C122.901 149.636 119.903 146.376 119.903 146.376C119.903 146.376 115.283 154.999 116.077 155.519C116.872 156.039 124.592 156.467 129.429 154.151C134.266 151.834 133.767 142.249 132.46 140.571C131.153 138.893 129.411 138.843 127.577 140.266Z" fill="#8F8F8F" stroke="#263238" stroke-miterlimit="10"/>
<path d="M113.222 137.53C113.222 137.53 107.988 140.174 105.83 151.515C103.673 162.856 102.513 186.299 102 190.207C101.488 194.115 100.614 204.069 100.614 205.711C100.614 207.352 101.511 207.603 103.299 208.105C105.087 208.606 107.766 208.862 111.342 209.746C114.918 210.631 121.298 209.746 123.47 208.989C125.641 208.232 123.345 205.081 120.152 203.194C116.96 201.306 112.839 199.272 110.926 196.992C109.014 194.712 109.54 190.818 109.646 189.181C109.753 187.544 118.332 160.968 120.12 156.18C121.908 151.392 124.842 145.592 123.567 140.931C122.291 136.271 116.161 135.386 113.222 137.53Z" fill="white" stroke="#263238" stroke-miterlimit="10"/>
<path d="M120.12 203.189C116.928 201.297 112.839 199.281 110.926 197.01C109.864 195.756 109.54 194.001 109.499 192.4C104.989 193.403 102.892 191.611 101.982 190.257C101.469 194.197 100.596 204.074 100.596 205.706C100.596 207.339 101.492 207.599 103.28 208.1C105.068 208.602 107.748 208.857 111.323 209.742C114.899 210.626 121.28 209.742 123.451 208.985C125.622 208.228 123.312 205.077 120.12 203.189Z" fill="white" stroke="#263238" stroke-miterlimit="10"/>
<path d="M103.266 208.1C103.446 208.155 103.645 208.201 103.844 208.246C103.855 206.11 103.159 204.028 101.862 202.318C101.576 201.943 101.246 201.603 100.878 201.306C100.702 203.417 100.582 205.123 100.582 205.72C100.582 207.348 101.478 207.599 103.266 208.1Z" fill="#ADADAD" stroke="#263238" stroke-miterlimit="10"/>
<path d="M115.5 210.107C118.628 210.056 121.968 209.491 123.442 208.985C124.916 208.479 124.31 206.805 122.73 205.205C121.714 205.588 120.42 206.117 118.72 206.842C116.479 207.831 115.736 209.185 115.5 210.107Z" fill="#ADADAD" stroke="#263238" stroke-miterlimit="10"/>
<path d="M130.589 136.645C130.589 136.645 125.969 138.159 127.267 147.233C128.565 156.308 141.825 178.241 143.483 183.777C145.142 189.313 147.059 200.54 147.059 204.069C147.059 207.599 148.339 210.873 152.169 210.622C155.999 210.371 159.062 209.254 158.041 203.189C157.02 197.124 153.315 187.183 151.91 183.148C150.506 179.112 148.464 169.792 146.292 158.196C144.121 146.599 142.846 143.075 140.037 139.167C137.228 135.259 131.993 135.637 130.589 136.645Z" fill="white" stroke="#263238" stroke-miterlimit="10"/>
<path d="M151.91 183.148C151.73 182.623 151.531 182.003 151.328 181.301C150.755 182.429 149.781 183.311 148.593 183.777C147.059 184.438 145.383 184.717 143.714 184.589C145.317 190.348 147.059 200.704 147.059 204.069C147.059 207.599 148.339 210.873 152.169 210.622C155.999 210.371 159.062 209.254 158.041 203.189C157.02 197.124 153.315 187.183 151.91 183.148Z" fill="white" stroke="#263238" stroke-miterlimit="10"/>
<path d="M158.207 206.112C153.892 205.259 149.466 206.408 147.438 207.07C148.048 209.24 149.475 210.809 152.169 210.631C155.278 210.417 157.884 209.632 158.207 206.112Z" fill="#ADADAD" stroke="#263238" stroke-miterlimit="10"/>
<path d="M111.499 124.908C111.591 124.529 111.693 124.132 111.809 123.731C113.079 119.353 115.87 108.441 116.502 106.316C117.135 104.191 117.39 100.566 117.39 100.566C117.39 100.566 116.248 91.314 115.87 89.563C115.73 88.8383 115.761 88.0918 115.958 87.3805C116.156 86.6692 116.516 86.0119 117.011 85.459C117.768 84.5835 118.91 80.5843 119.667 81.209C120.425 81.8338 120.429 83.7079 120.051 84.7066C119.672 85.7052 118.665 87.7116 118.665 87.7116V88.92L124.366 82.536C124.366 82.536 125.886 81.168 126.265 83.6623C126.265 83.6623 127.027 81.9113 128.417 82.4129C129.808 82.9145 128.898 84.816 128.898 84.816C128.898 84.816 130.164 84.4421 130.418 85.6915C130.672 86.941 128.773 93.4435 128.773 93.4435C128.773 93.4435 130.039 90.5662 130.547 89.0659C131.055 87.5657 131.813 87.3149 131.933 88.1904C132.118 90.1915 131.814 92.2072 131.046 94.0682C130.034 96.3209 127.373 99.5676 126.486 100.822C125.599 102.076 123.955 103.448 123.955 103.945C123.955 104.442 123.7 127.329 123.571 130.452C123.442 133.576 123.192 134.579 120.277 136.08C117.362 137.58 113.934 136.285 112.423 133.658C112.082 133.078 111.799 132.468 111.578 131.834" fill="white"/>
<path d="M111.499 124.908C111.591 124.529 111.693 124.132 111.809 123.731C113.079 119.353 115.87 108.441 116.502 106.316C117.135 104.191 117.39 100.566 117.39 100.566C117.39 100.566 116.248 91.314 115.87 89.563C115.73 88.8383 115.761 88.0918 115.958 87.3805C116.156 86.6692 116.516 86.0119 117.011 85.459C117.768 84.5835 118.91 80.5843 119.667 81.209C120.425 81.8338 120.429 83.7079 120.051 84.7066C119.672 85.7052 118.665 87.7116 118.665 87.7116V88.92L124.366 82.536C124.366 82.536 125.886 81.168 126.265 83.6623C126.265 83.6623 127.027 81.9113 128.417 82.4129C129.808 82.9145 128.898 84.816 128.898 84.816C128.898 84.816 130.164 84.4421 130.418 85.6915C130.672 86.941 128.773 93.4435 128.773 93.4435C128.773 93.4435 130.039 90.5662 130.547 89.0659C131.055 87.5657 131.813 87.3149 131.933 88.1904C132.118 90.1915 131.814 92.2072 131.046 94.0682C130.034 96.3209 127.373 99.5676 126.486 100.822C125.599 102.076 123.955 103.448 123.955 103.945C123.955 104.442 123.7 127.329 123.571 130.452C123.442 133.576 123.192 134.579 120.277 136.08C117.362 137.58 113.934 136.285 112.423 133.658C112.082 133.078 111.799 132.468 111.578 131.834" stroke="#263238" stroke-miterlimit="10"/>
<path d="M128.916 84.8115L125.622 93.1882" stroke="#263238" stroke-miterlimit="10"/>
<path d="M126.255 83.6851L122.074 91.9387" stroke="#263238" stroke-miterlimit="10"/>
<path d="M118.655 88.92C118.655 88.92 117.514 91.045 117.514 91.656" stroke="#263238" stroke-miterlimit="10"/>
<path d="M132.594 100.817C132.594 98.3136 132.215 90.5616 132.215 90.0646C132.215 89.5676 132.469 88.4367 133.102 88.4367C133.735 88.4367 134.114 89.6861 134.114 90.0646V86.5625C134.098 86.3822 134.141 86.2017 134.236 86.0469C134.331 85.8922 134.473 85.7713 134.643 85.7017C134.812 85.6321 134.999 85.6175 135.177 85.66C135.355 85.7024 135.515 85.7997 135.634 85.9378L136.142 86.5625C136.142 86.5625 135.634 84.3099 137.283 84.3099C138.933 84.3099 139.436 86.6856 139.436 86.6856C139.794 86.6896 140.145 86.7838 140.455 86.9594C140.766 87.135 141.026 87.3861 141.21 87.6888C141.718 88.6875 142.855 94.3145 143.238 95.8148C143.622 97.315 141.852 100.831 140.577 104.068C139.302 107.306 138.549 114.068 139.191 119.194C139.833 124.319 140.457 127.575 139.191 130.197C137.925 132.819 137.163 134.702 132.987 134.826C128.81 134.949 128.043 132.45 127.156 128.574C126.269 124.698 130.325 117.069 131.845 112.317C133.365 107.566 133.744 104.816 133.365 103.818C133.046 102.834 132.788 101.832 132.594 100.817Z" fill="white" stroke="#263238" stroke-miterlimit="10"/>
<path d="M134.109 90.0646C134.109 90.0646 135.375 94.5653 135.251 97.4381" stroke="#263238" stroke-miterlimit="10"/>
<path d="M136.138 86.5625C136.138 86.5625 138.29 92.0619 138.29 96.6903" stroke="#263238" stroke-miterlimit="10"/>
<path d="M139.432 86.6856C139.432 86.6856 141.076 92.9374 141.584 95.9378" stroke="#263238" stroke-miterlimit="10"/>
<path d="M65.1974 208.123H67.9139L73.4579 169.6H96.1606L98.0502 208.123H100.296L102.144 128.054C102.144 127.691 101.998 127.343 101.738 127.087C101.478 126.83 101.125 126.686 100.758 126.686L67.2348 126.987L69.6187 168.674L65.1974 208.123Z" fill="#263238" stroke="#263238" stroke-miterlimit="10"/>
<path d="M98.3783 129.167H67.3827L69.4062 164.584H97.1078L98.3783 129.167Z" fill="#8C8C8C" stroke="#263238" stroke-miterlimit="10"/>
</svg>
