<svg width="476" height="497" viewBox="0 0 476 497" fill="none" xmlns="http://www.w3.org/2000/svg">
<path d="M111.794 380.757C-36.3095 297.63 58.0417 204.681 116.886 169.384C175.73 134.086 379.749 10.0844 356.939 81.243C334.128 152.402 443.569 185.434 407.632 286.141C371.695 386.848 259.897 463.884 111.794 380.757Z" fill="#ADE7E7"/>
<path d="M183.639 113.435C196.882 110.995 213.135 112.942 220.159 121.936C225.266 128.474 224.054 136.869 220.87 144.097C214.733 158.018 202.302 169.642 191.418 181.715C177.299 197.377 165.341 214.539 160.093 233.18C154.841 251.821 156.783 272.13 169.01 288.712C142.261 280.855 127.779 259.359 120.253 238.064C112.727 216.768 114.833 191.736 118.463 174.59C121.361 160.91 129.772 148.035 140.436 136.876C151.094 125.712 166.153 116.657 183.639 113.435Z" fill="#507798"/>
<path d="M190.868 163.767C191.661 162.96 192.56 162.217 193.548 161.553C191.326 161.83 189.079 161.99 186.826 162.028C187.986 161.219 189.03 160.32 190.01 159.381C187.374 159.369 184.699 159.434 182.128 159.219C181.055 159.129 179.998 158.97 178.949 158.774C179.249 160.062 179.635 161.337 180.199 162.57C176.653 161.503 173.428 159.803 170.849 157.644C170.704 158.356 170.56 159.068 170.416 159.78C167.951 157.499 166.11 154.836 164.936 152.009C164.535 151.633 164.127 151.261 163.762 150.862C159.289 155.603 155.201 160.559 151.529 165.695C154.523 168.488 159.186 169.889 163.783 170.637C168.381 171.385 173.123 171.597 177.647 172.58C182.169 173.565 186.633 175.493 188.839 178.692C191.919 172.483 196.016 166.573 201 161.15C200.9 161.101 200.791 161.076 200.69 161.03C197.601 162.284 194.289 163.216 190.868 163.767Z" fill="#0E2B39"/>
<path d="M177.939 132.763C179.282 132.876 180.401 133.664 181.03 134.584C181.662 135.504 181.888 136.552 182.106 137.579C182.885 141.255 183.664 144.933 184.443 148.608C180.447 147.697 176.975 145.798 173.584 143.933C172.246 143.198 170.841 142.395 170.253 141.213C169.732 140.171 169.947 138.978 170.525 137.953C171.102 136.928 172.015 136.042 172.922 135.172C174.218 133.935 175.891 132.589 177.939 132.763Z" fill="#0E2B39"/>
<path d="M210.43 147.281C210.343 146.502 209.956 145.687 209.114 145.25C207.777 144.559 205.985 145.082 204.547 145.639C200.426 147.237 196.43 149.025 192.587 150.988C194.69 152.152 198.672 150.896 201.221 151.234C203.771 151.572 204.906 153.463 207.055 152.356C209.207 151.249 210.653 149.27 210.43 147.281Z" fill="#0E2B39"/>
<path d="M272.37 154.475C261.097 146.115 259.868 131.562 267.595 121.077C275.325 110.592 290.475 104.148 305.981 102.579C321.487 101.008 337.287 103.826 351.726 108.458C400.227 124.017 435.633 161.48 439.988 201.849C444.343 242.218 417.452 283.678 372.952 305.205C328.449 326.732 268.342 327.353 223.106 306.757C252.691 307.87 291.147 296.78 315.296 283.552C331.739 274.545 340.362 268.343 348.228 254.021C356.214 239.484 349.876 216.495 343.571 201.475C338.39 189.142 327.109 178.096 312.722 171.385C298.937 164.958 283.984 163.091 272.37 154.475Z" fill="#507798"/>
<path d="M347.063 184.067C341.795 191.049 330.873 194.909 320.414 194.466C309.955 194.023 300.155 189.684 293.226 183.626C291.641 182.24 290.151 180.768 288.372 179.539C288.187 177.787 288.124 176.021 287.947 174.269C287.612 170.99 286.722 167.571 283.954 165.067C280.871 162.278 275.802 161.076 271.077 161.45C267.274 163.341 266.144 164.387 269.249 166.397C271.796 166.695 273.852 167.907 275.426 169.501C274.816 169.787 274.242 170.137 273.721 170.53C270.148 167.445 265.572 165.057 260.443 163.832C259.256 163.549 258 163.32 256.777 163.492C255.554 163.664 254.372 164.328 254.127 165.269C253.874 166.241 254.68 167.222 255.737 167.789C256.793 168.354 258.068 168.604 259.288 168.919C263.499 169.999 267.133 171.891 270.431 174.168C270.273 174.403 270.126 174.643 269.982 174.882C266.525 172.072 262.102 169.955 257.186 169.26C255.805 169.064 254.345 168.984 253.021 169.348C251.697 169.711 250.542 170.604 250.434 171.683C250.3 173.009 251.749 174.162 253.356 174.645C254.963 175.128 256.734 175.126 258.441 175.313C262.11 175.714 265.575 177.062 268.239 179.045C268.048 179.818 267.901 180.595 267.838 181.381C267.634 181.225 267.457 181.051 267.244 180.902C264.21 178.757 260.31 177.247 256.197 177.077C253.778 176.976 250.875 177.638 250.218 179.438C249.657 180.98 251.128 182.586 252.945 183.359C254.764 184.134 256.886 184.33 258.883 184.771C261.968 185.456 264.818 186.764 267.065 188.531C270.306 191.076 272.839 194.645 277.439 195.964C283.51 197.703 289.146 200.223 295.045 202.315C302.032 204.794 309.527 206.766 317.216 206.653C327.651 206.499 337.846 202.238 343.71 195.579C346.668 192.215 348.575 187.966 347.063 184.067Z" fill="#507798"/>
<path d="M358.148 155.689C362.966 156.268 367.509 158.003 371.124 160.526C372.842 160.139 374.545 159.713 376.193 159.163C365.069 149.407 352.706 139.083 336.167 136.609C337.151 138.327 337.292 140.19 336.862 142.015C340.403 144.177 342.53 147.724 342.089 151.204C340.632 150.072 339.158 148.93 337.407 148.081C336.396 147.592 335.269 147.228 334.108 147.027C333.414 147.806 332.646 148.545 331.78 149.192C327.465 152.408 321.685 154.128 316.075 155.766C314.35 156.271 312.624 156.775 310.9 157.279C312.278 159.018 314.301 160.455 316.707 161.305C312.182 162.448 307.002 161.7 303.178 159.535C301.489 160.028 299.803 160.52 298.114 161.013C313.133 164.578 327.198 170.511 339.196 178.337C339.014 177.369 339.055 176.401 339.251 175.449C337.48 174.907 335.92 173.935 334.71 172.784C333.076 171.227 332.006 169.366 331.052 167.501C334.468 168.986 338.278 169.913 342.173 170.253C343.173 169.196 344.344 168.228 345.657 167.421C349.906 164.813 355.239 163.508 360.518 162.525C361.141 162.41 361.77 162.301 362.4 162.192C361.572 159.835 360.123 157.602 358.148 155.689Z" fill="#0E2B39"/>
<path d="M333.599 126.084C334.136 126.319 334.724 126.632 334.784 127.107C334.836 127.523 334.457 127.888 334.1 128.201C329.274 132.457 324.445 136.714 319.618 140.969C318.556 141.906 317.341 142.908 315.737 143.047C314.133 143.185 312.376 141.828 313.204 140.759C314.1 140.747 314.836 140.148 315.094 139.487C315.353 138.827 315.236 138.117 315.105 137.435C314.168 132.543 312.559 127.729 310.314 123.095C318.21 121.955 326.61 123.032 333.599 126.084Z" fill="#0E2B39"/>
<path d="M302.557 149.245C301.389 149.003 300.408 149.888 299.379 150.375C297.772 151.135 295.726 150.944 293.863 150.728C290.407 150.327 286.95 149.923 283.494 149.522C282.451 149.4 281.375 149.281 280.351 149.476C279.327 149.671 278.354 150.264 278.196 151.07C278.011 152.011 278.934 152.845 279.792 153.53C281.271 154.708 282.764 155.899 284.553 156.788C286.343 157.674 288.478 158.243 290.589 158.044C291.981 157.911 293.286 157.458 294.525 156.953C297.213 155.861 299.722 154.506 301.972 152.931C302.701 152.419 303.437 151.847 303.687 151.11C303.944 150.369 303.513 149.442 302.557 149.245Z" fill="#0E2B39"/>
<path d="M403.223 112.263C400.788 106.122 396.978 100.108 391.983 94.8554C389.455 92.1963 386.625 89.7115 383.55 87.42C379.868 84.6769 377.141 83.2781 376.855 78.9933C376.645 75.8553 374.393 73.2109 372.394 70.5834C368.627 65.6349 369.272 59.0879 364.645 54.4461C361.472 51.264 355.695 49.296 350.904 50.8671C349.705 51.2599 348.493 52.0369 348.564 53.0409C348.656 54.3936 350.784 54.9397 352.388 55.4879C356.999 57.0653 359.437 60.9636 360.927 64.6813C361.21 65.387 362.305 65.6769 360.949 66.8531C359.009 67.6533 358.007 68.2708 356.544 69.7264C355.626 68.8043 355.041 68.4914 354.224 67.542C351.247 64.0911 348.417 60.449 343.865 57.9033C339.314 55.3577 332.456 54.1962 327.466 56.3344C325.252 57.2837 323.642 58.7708 322.449 60.3503C321.67 61.3816 321.073 62.6922 322.059 63.6416C322.757 64.3137 324.069 64.5742 325.281 64.5532C326.494 64.5322 327.667 64.2759 328.86 64.1225C332.276 63.6815 335.92 64.1079 338.925 65.2946C343.855 67.2458 346.78 70.9824 350.43 73.9692C350.43 74.8009 350.43 75.2609 350.43 76.0926C349.937 76.5001 349.465 76.9244 349.013 77.3592C348.291 78.0565 346.979 78.1678 346.123 77.5692C345.048 76.8152 344.042 75.9897 343.097 75.1622C340.137 72.5682 337.141 69.7159 332.894 68.6132C329.144 67.6386 324.982 68.212 321.318 69.3672C318.764 70.1738 316.285 71.3038 314.662 73.0261C313.038 74.7484 312.431 77.1533 313.698 79.0458C314.599 80.3942 316.876 81.373 318.562 80.5895C319.714 80.0539 320.139 78.9429 320.997 78.1448C322.057 77.1597 323.778 76.6913 325.439 76.7018C327.101 76.7123 328.711 77.1512 330.198 77.7225C334.027 79.1928 337.176 81.5222 340.763 83.3201C341.746 83.8137 342.795 84.261 343.882 84.6412C343.285 86.0422 342.847 87.483 342.621 88.9491C342.615 88.9764 342.615 89.0058 342.613 89.0331C340.167 89.6191 337.789 90.3921 335.327 90.9424C331.078 91.8917 326.575 92.1564 322.19 91.7111C319.622 91.4507 316.457 91.1293 314.953 92.755C313.414 94.4185 315.024 96.7772 317.099 98.048C321.844 100.955 328.596 101.131 334.45 99.9215C340.303 98.7117 345.595 96.3025 351.13 94.3975C352.41 93.9564 353.723 93.5468 355.057 93.1793C360.445 92.8768 365.895 93.3137 371.097 94.4332C378.514 98.6675 384.792 104.091 389.286 110.308C396.281 119.984 398.942 131.48 396.725 142.425L407.097 153.429C408.554 139.636 408.472 125.5 403.223 112.263Z" fill="#507798"/>
<path d="M94.3369 223.804C91.3844 218.02 83.6626 214.111 75.6413 213.481C67.6227 212.851 59.506 215.195 53.1951 219.066C41.8835 226.003 35.1232 238.727 34.9271 249.872C34.731 261.014 36.3026 273.907 42.5127 283.972C49.7768 295.74 64.1853 303.927 79.3455 309.693C92.7735 314.799 108.764 314.797 123.192 311.707C137.62 308.618 150.726 302.665 163.135 296.204C145.946 295.543 128.258 293.833 113.357 287.196C98.4552 280.556 86.9202 267.92 88.6552 254.715C90.0361 244.18 99.3622 233.653 94.3369 223.804Z" fill="#507798"/>
<path d="M65.5661 233.342C66.0727 233.758 66.8925 233.804 67.6307 233.823C71.0163 233.911 74.4046 233.999 77.7901 234.088C78.2259 234.098 78.6835 234.107 79.0676 233.949C79.8057 233.649 79.8057 233.447 80.0672 233.006C80.3641 232.502 81.3664 230.643 80.4322 230.443C79.5497 230.924 79.0839 230.943 78.5419 230.567C77.9999 230.189 77.8065 229.607 77.5069 229.093C76.2758 226.982 72.7622 225.938 69.9159 226.671C67.0696 227.404 65.114 229.689 65.0731 232.004C65.0622 232.483 65.1466 232.995 65.5661 233.342Z" fill="#0E2B39"/>
<path d="M92.3565 236.237C92.9693 236.035 93.3697 235.581 93.6939 235.132C94.2904 234.304 94.7452 233.416 95.0394 232.496C95.23 231.899 95.339 231.227 94.9168 230.706C94.3149 229.961 92.8985 229.885 91.8336 230.198C90.7686 230.511 89.8807 231.108 88.8402 231.467C88.2219 231.679 87.462 231.794 86.9009 231.507C86.6231 231.364 86.3616 231.122 86.0375 231.177C85.7433 231.225 85.6153 231.49 85.5472 231.717C85.3157 232.467 85.1713 233.233 85.1169 234.002C85.0978 234.277 85.0978 234.579 85.3184 234.798C85.5091 234.985 85.8223 235.069 86.1165 235.14C87.4075 235.46 88.6986 235.781 89.9896 236.1C90.7577 236.291 91.6102 236.482 92.3565 236.237Z" fill="#0E2B39"/>
<path d="M88.4154 243.68C87.4866 244.657 86.3127 245.495 84.9345 246.075C85.2968 245.449 85.4466 244.76 85.4193 244.073C82.061 244.357 78.6318 244.107 75.3988 243.355C74.5789 244.174 73.977 245.125 73.721 246.142C72.4735 245.113 71.828 243.699 71.847 242.292C71.7081 242.239 71.5611 242.202 71.4249 242.147C69.3494 241.334 67.037 240.261 64.858 240.893C62.9459 241.448 62.0144 243.103 61.516 244.632C60.2222 248.583 60.4428 252.798 61.9218 256.709C62.9623 255.354 64.335 254.165 65.9202 253.172C66.4405 251.5 67.5218 249.931 69.077 248.698C69.1587 249.265 69.2432 249.832 69.3249 250.397C70.3136 249.544 71.5747 248.883 72.9665 248.486C72.7513 249.158 72.6587 249.851 72.6614 250.542C73.0155 250.473 73.3669 250.393 73.7264 250.341C76.2377 249.979 78.8416 250.078 81.312 250.574C81.6089 249.986 81.7941 249.366 81.8213 248.736C82.5186 249.183 83.1287 249.713 83.6217 250.299C83.8587 249.696 84.2699 249.135 84.8201 248.671C85.3839 249.736 85.6972 250.868 85.8061 252.015C86.4653 252.315 87.1081 252.634 87.71 253.002C88.1158 249.66 89.0828 246.358 90.5862 243.21C89.8699 243.395 89.1454 243.548 88.4154 243.68Z" fill="#0E2B39"/>
<path d="M209.766 202.321C210.199 205.132 206.372 207.039 203.923 209.146C199.759 212.731 199.345 218.576 202.975 222.489C204.719 224.369 207.293 225.871 208.221 228.068C208.654 229.093 208.725 230.259 209.613 231.09C210.934 232.325 213.366 232.254 215.434 232.094C229.673 230.99 244.033 230.811 258.311 231.561C261.35 231.721 264.48 231.914 267.383 231.2C270.287 230.483 272.942 228.608 273.119 226.262C273.4 222.561 267.751 219.755 268.078 216.056C268.435 212.046 275.445 210.026 276.208 206.05C276.815 202.886 273.198 200.25 269.764 198.459C266.329 196.667 262.366 194.693 261.702 191.536C261.083 188.598 263.605 185.894 264.986 183.116C268.334 176.373 264.442 168.23 256.921 163.929C249.404 159.627 239.037 158.928 230.12 161.131C221.205 163.334 213.663 168.157 207.911 173.853C204.487 177.241 201.573 181.068 200.595 185.296C199.617 189.524 200.829 194.214 204.724 197.285C206.693 198.833 209.433 200.166 209.766 202.321Z" fill="#0E2B39"/>
<path d="M328.291 293.882C325.178 296.879 319.733 298.847 315.13 297.381C311.687 296.284 309.601 293.64 307.501 291.269C299.463 282.206 288.162 275.167 279.256 266.6C270.352 258.032 263.75 246.774 267.62 236.207C269.143 232.051 273.28 227.793 278.88 227.896C284.545 228.001 288.274 232.313 291.262 236.027C296.769 242.868 303.14 249.297 310.249 255.195C316.898 260.71 324.309 265.881 328.847 272.55C333.384 279.217 334.4 288.005 328.291 293.882Z" fill="#CDF1EB"/>
<path d="M268.274 251.21C270.483 256.759 274.536 262.058 279.256 266.6C288.16 275.167 299.463 282.205 307.501 291.269C309.604 293.64 311.69 296.284 315.13 297.381C318.458 298.441 322.214 297.691 325.224 296.07C311.42 277.988 292.169 262.407 268.274 251.21Z" fill="#0E2B39"/>
<path d="M184.803 287.465C188.444 279.851 194.878 273.262 200.407 266.358C205.939 259.454 210.741 251.767 210.49 243.653C210.389 240.364 209.444 237.091 207.723 234.081C206.911 232.659 205.865 231.244 204.193 230.378C201.782 229.133 198.568 229.293 195.798 229.96C189.866 231.391 185.045 234.852 181.578 238.83C178.11 242.809 175.836 247.318 173.524 251.767C168.232 261.951 162.542 272.121 154.324 281.082C151.276 284.407 147.787 287.725 146.875 291.737C145.589 297.387 150.369 303.394 157.35 305.377C164.331 307.357 172.758 305.347 177.413 300.874C181.376 297.061 182.61 292.046 184.803 287.465Z" fill="#CDF1EB"/>
<path d="M159.908 305.906C166.292 306.83 173.314 304.807 177.413 300.869C181.376 297.061 182.61 292.043 184.803 287.462C188.444 279.849 194.878 273.26 200.407 266.356C204.119 261.722 207.461 256.732 209.21 251.502C186.328 265.917 170.375 284.9 159.908 305.906Z" fill="#0E2B39"/>
<path d="M209.618 283.61C216.983 290.682 219.53 300.052 220.184 309.109C220.837 318.166 219.83 327.286 221.137 336.301C245.501 337.145 269.957 336.391 294.155 334.049C287.631 316.137 294.966 297.141 294.993 278.534C295.021 259.58 284.97 230.256 278.804 228.047C254.505 226.852 231.373 227.612 208.101 228.301C196.016 228.66 190.196 240.002 190.351 242.521C190.457 244.26 190.068 247.452 189.662 249.164C187.766 257.137 188.071 257.314 187.594 263.648C187.21 268.721 190.983 269.261 195.529 272.938C200.075 276.616 205.492 279.649 209.618 283.61Z" fill="#CDF1EB"/>
<path d="M191.29 263.363C192.067 262.183 193.712 261.517 195.3 261.019C213.393 255.346 234.05 262.34 253.391 260.233C261.777 259.32 269.916 256.686 278.376 256.99C281.307 257.095 284.477 257.677 286.272 259.469C288.919 262.111 287.364 265.953 285.291 268.887C275.941 282.126 257.221 291.376 237.672 291.479C218.124 291.58 198.761 282.052 191.702 267.994C190.955 266.505 190.353 264.787 191.29 263.363Z" fill="#0E2B39"/>
<path d="M232.435 251.758C229.55 251.758 226.677 251.658 223.825 251.454C223.264 251.414 222.85 251.032 222.902 250.599C222.954 250.168 223.417 249.86 224.01 249.887C236.161 250.742 248.731 249.721 260.372 246.915C263.417 246.178 266.904 245.203 269.676 243.525C272.558 241.781 274.285 239.454 274.418 237.148C274.446 236.713 274.974 236.386 275.486 236.396C276.05 236.417 276.486 236.785 276.461 237.219C276.298 239.988 274.285 242.737 270.937 244.766C267.906 246.602 264.204 247.644 260.985 248.419C251.82 250.628 242.093 251.758 232.435 251.758Z" fill="#0E2B39"/>
<path d="M357.481 330.892C353.581 323.801 343.525 320.632 334.027 320.655C326.036 320.676 318.292 322.655 310.786 324.765C303.279 326.876 295.743 329.159 287.8 329.832C282.377 330.292 276.17 329.722 272.768 326.435C251.049 328.962 228.804 328.786 207.156 325.912L206.99 329.905C197.157 328.034 187.322 326.164 177.489 324.293C169.223 322.72 160.643 321.138 152.276 322.354C143.909 323.57 135.784 328.403 134.926 334.935C134.327 339.512 137.383 344.013 141.656 347.223C148.98 352.722 159.611 355.082 167.444 359.445C172.494 362.257 178.209 364.242 184.097 365.807C197.879 369.47 213.029 377.197 229.158 376.922C234.521 376.83 240.034 375.647 244.567 373.463C251.433 370.155 259.607 369.109 267.634 369.928C272.822 370.457 278.237 370.14 283.322 369.184C293.46 367.279 302.192 366.838 311.145 362.705C320.101 358.573 331.745 355.303 341.831 353.24C348.626 351.85 354.085 346.641 357.549 340.558C359.29 337.5 359.173 333.967 357.481 330.892Z" fill="#0E2B39"/>
<path d="M297.148 413.357C301.555 420.161 302.712 424.723 311.818 427.644C328.746 405.51 309.565 402.412 303.723 392.27C301.402 388.243 302.413 383.908 300.043 381.864C291.101 374.156 291.213 383.757 237.487 354.433C230.041 360.321 225.468 363.702 218.936 371.719C234.173 376.067 249.513 380.453 263.423 386.922C277.333 393.393 289.886 402.15 297.148 413.357Z" fill="white"/>
<path d="M311.815 428.432C311.682 428.432 311.548 428.411 311.42 428.373C303.551 425.846 301.351 422.169 298.305 417.077C297.674 416.021 297.001 414.901 296.23 413.71C289.707 403.635 278.49 394.851 262.894 387.598C249.012 381.142 233.544 376.727 218.579 372.459C218.291 372.377 218.067 372.198 217.964 371.976C217.866 371.751 217.904 371.503 218.067 371.304C224.182 363.795 228.556 360.346 235.175 355.129L236.749 353.885C237.103 353.606 237.662 353.568 238.07 353.793C271.907 372.259 284.338 375.236 291.017 376.834C295.081 377.808 297.319 378.344 300.795 381.341C302.255 382.602 302.582 384.423 302.963 386.533C303.268 388.233 303.614 390.155 304.649 391.952C306.163 394.58 308.585 396.697 311.153 398.936C318.17 405.061 325.426 411.394 312.689 428.045C312.507 428.289 312.166 428.432 311.815 428.432ZM220.475 371.32C235.156 375.509 250.27 379.886 263.948 386.248C279.885 393.656 291.36 402.658 298.06 413.002C298.839 414.208 299.52 415.344 300.16 416.414C303.004 421.165 304.919 424.363 311.39 426.64C322.754 411.427 316.375 405.861 309.631 399.976C307.076 397.743 304.431 395.437 302.789 392.587C301.637 390.585 301.269 388.544 300.945 386.744C300.612 384.889 300.324 383.286 299.281 382.387C296.178 379.714 294.375 379.283 290.418 378.336C283.679 376.72 271.172 373.727 237.607 355.462L236.64 356.225C230.36 361.18 226.127 364.515 220.475 371.32Z" fill="#0E2B39"/>
<path d="M179.739 324.82C170.873 321.728 161.272 319.208 151.589 319.951C141.907 320.695 132.194 325.452 129.726 332.711C127.261 339.964 132.608 347.706 140.248 352.346C147.888 356.983 157.459 359.199 166.731 361.453C194.289 368.155 222.452 376.609 241.96 393.051C250.776 381.665 259.59 370.277 268.407 358.89C236.169 352.992 209.923 335.351 179.739 324.82Z" fill="#48A39C"/>
<path d="M220.748 348.848C220.491 348.848 220.235 348.775 220.037 348.628C207.892 339.565 193.115 332.341 177.301 327.74C176.776 327.586 176.509 327.133 176.708 326.725C176.907 326.322 177.492 326.116 178.023 326.267C194.093 330.945 209.115 338.286 221.456 347.498C221.859 347.802 221.87 348.3 221.48 348.611C221.281 348.769 221.012 348.848 220.748 348.848Z" fill="#0E2B39"/>
<path d="M242.635 351.608C229.335 357.933 216.76 365.213 203.991 372.343C218.209 377.559 231.364 384.122 241.96 393.051C250.776 381.665 259.593 370.277 268.407 358.89C259.419 357.246 250.907 354.669 242.635 351.608Z" fill="#0E2B39"/>
<path d="M193.785 413.357C189.378 420.161 188.22 424.723 179.115 427.644C162.187 405.51 181.367 402.412 187.21 392.27C189.53 388.243 188.52 383.908 190.89 381.864C199.832 374.156 199.72 383.757 253.445 354.433C260.892 360.321 265.465 363.702 271.997 371.719C256.76 376.067 241.42 380.453 227.51 386.922C213.597 393.393 201.046 402.15 193.785 413.357Z" fill="white"/>
<path d="M179.115 428.432C178.764 428.432 178.423 428.291 178.235 428.043C165.499 411.389 172.755 405.059 179.772 398.934C182.337 396.695 184.761 394.578 186.276 391.95C187.311 390.152 187.657 388.228 187.962 386.531C188.343 384.42 188.67 382.599 190.13 381.339C193.605 378.342 195.844 377.806 199.908 376.832C206.587 375.233 219.02 372.257 252.854 353.791C253.26 353.566 253.821 353.604 254.175 353.883L255.75 355.126C262.371 360.344 266.743 363.793 272.857 371.301C273.024 371.503 273.059 371.749 272.961 371.973C272.86 372.196 272.637 372.375 272.345 372.457C257.384 376.725 241.913 381.14 228.03 387.596C212.432 394.849 201.215 403.635 194.695 413.708C193.924 414.897 193.254 416.019 192.619 417.075C189.574 422.166 187.371 425.844 179.505 428.371C179.382 428.411 179.249 428.432 179.115 428.432ZM253.326 355.464C219.764 373.727 207.254 376.722 200.515 378.338C196.558 379.285 194.755 379.716 191.652 382.389C190.607 383.29 190.321 384.891 189.988 386.746C189.664 388.546 189.296 390.587 188.144 392.589C186.502 395.437 183.86 397.745 181.302 399.978C174.556 405.865 168.179 411.429 179.543 426.642C186.014 424.365 187.929 421.167 190.773 416.415C191.41 415.346 192.091 414.21 192.873 413.004C199.573 402.662 211.051 393.66 226.985 386.25C240.66 379.888 255.777 375.511 270.458 371.322C264.806 364.517 260.573 361.182 254.293 356.231L253.326 355.464Z" fill="#0E2B39"/>
<path d="M311.194 324.82C320.06 321.728 329.661 319.208 339.344 319.951C349.027 320.695 358.742 325.452 361.207 332.711C363.672 339.964 358.325 347.706 350.685 352.346C343.045 356.983 333.474 359.199 324.203 361.453C296.644 368.155 268.481 376.609 248.973 393.051C240.157 381.665 231.34 370.277 222.526 358.89C254.761 352.992 281.007 335.351 311.194 324.82Z" fill="#48A39C"/>
<path d="M348.422 346.87C311.455 359.539 276.039 372.215 246.821 390.272C247.538 391.198 248.257 392.125 248.973 393.051C268.48 376.609 296.644 368.155 324.202 361.453C333.474 359.197 343.045 356.983 350.685 352.345C355.138 349.64 358.799 345.881 360.602 341.776C356.955 344.94 352.088 346.87 348.422 346.87Z" fill="#0E2B39"/>
<path d="M297.589 333.929C267.38 345.246 227.036 345.114 196.261 334.748C194.142 327.393 204.078 323.064 201.959 315.708C200.965 312.253 192.227 303.627 190.563 300.329C183.914 287.147 186.657 276.795 187.861 263.655C206.409 260.464 226.603 263.436 242.324 271.668C256.774 263.615 275.132 259.847 292.858 261.292C301.241 276.177 301.761 293.593 294.277 308.762C292.326 312.713 289.812 316.908 291.229 320.991C292.806 325.553 299.108 329.355 297.589 333.929Z" fill="#B7DBD8"/>
<path d="M266.52 231.38C263.951 230.553 261.108 230.444 258.329 230.345C256.736 230.288 255.143 230.231 253.549 230.175C247.778 223.939 245.111 215.995 246.446 208.392C238.177 207.026 230.433 203.815 224.395 199.251C225.481 209.444 222.774 219.847 216.735 228.952C215.251 229.005 213.799 229.194 212.541 229.78C208.883 231.485 208.553 235.487 209.365 238.723C209.88 240.778 210.743 242.87 212.617 244.382C215.275 246.524 219.391 247.077 223.221 247.337C236.194 248.219 249.393 247.043 261.764 243.903C264.218 243.279 266.697 242.557 268.669 241.267C270.641 239.977 272.041 238.013 271.714 236.035C271.362 233.909 269.085 232.208 266.52 231.38Z" fill="white"/>
<path d="M231.626 248.413C228.796 248.413 225.936 248.316 223.131 248.125C219.198 247.856 214.785 247.268 211.882 244.928C209.635 243.12 208.796 240.606 208.363 238.875C207.23 234.355 208.594 230.702 212.013 229.108C213.38 228.472 214.902 228.27 216.09 228.196C221.916 219.226 224.433 209.251 223.376 199.316C223.341 198.991 223.575 198.678 223.962 198.539C224.346 198.4 224.803 198.459 225.111 198.69C230.978 203.122 238.634 206.296 246.661 207.623C247.184 207.709 247.53 208.092 247.462 208.499C246.193 215.716 248.611 223.313 254.102 229.406L258.378 229.558C261.086 229.654 264.155 229.763 266.917 230.654C269.439 231.467 272.291 233.279 272.73 235.938C273.07 238.001 271.768 240.274 269.333 241.87C267.154 243.292 264.452 244.052 262.088 244.653C252.261 247.146 242.012 248.413 231.626 248.413ZM225.577 201.169C226.16 210.883 223.439 220.574 217.645 229.312C217.476 229.562 217.149 229.726 216.785 229.74C215.15 229.797 214.006 230.02 213.072 230.457C209.136 232.29 210.008 237.136 210.37 238.574C210.757 240.112 211.484 242.328 213.358 243.84C215.796 245.802 219.759 246.312 223.313 246.554C236.131 247.434 249.213 246.262 261.448 243.158C263.63 242.603 266.114 241.908 268.01 240.669C269.924 239.415 270.957 237.678 270.701 236.138C270.428 234.498 268.636 232.916 266.127 232.107C263.698 231.324 260.947 231.227 258.28 231.133L253.506 230.963C253.192 230.95 252.901 230.828 252.719 230.633C246.917 224.365 244.245 216.52 245.318 209.003C238.089 207.684 231.19 204.941 225.577 201.169Z" fill="#0E2B39"/>
<path d="M250.027 170.488C247.524 169.516 244.642 169.308 241.84 169.293C237.327 169.27 232.753 169.722 228.583 171.06C224.416 172.398 220.668 174.676 218.495 177.728C214.643 183.133 216.294 189.929 219.644 195.529C223.411 201.824 229.095 207.117 236.855 210.616C244.615 214.117 254.965 214.395 263.488 212.189C264.065 200.902 268.175 197.617 264.253 188.409C263.662 187.022 260.691 183.956 259.92 182.612C259.299 181.528 259.13 178.455 258.392 177.403C256.561 174.8 253.454 171.818 250.027 170.488Z" fill="white"/>
<path d="M252.165 214.384C246.296 214.384 240.821 213.315 236.338 211.293C228.717 207.854 222.787 202.66 218.715 195.855C216.275 191.78 212.887 183.956 217.599 177.344C219.753 174.322 223.515 171.829 228.191 170.327C231.972 169.115 236.447 168.501 241.494 168.501H241.848C244.373 168.514 247.633 168.672 250.488 169.779C254.249 171.238 257.501 174.477 259.291 177.021C259.767 177.701 260.004 178.854 260.252 180.072C260.424 180.917 260.62 181.873 260.857 182.286C261.165 182.824 261.938 183.761 262.69 184.668C263.758 185.956 264.855 187.287 265.228 188.157C267.808 194.216 266.996 197.89 265.967 202.54C265.381 205.185 264.716 208.178 264.512 212.215C264.493 212.54 264.218 212.826 263.815 212.931C260.143 213.884 256.118 214.384 252.165 214.384ZM241.494 170.081C236.719 170.081 232.506 170.652 228.978 171.789C224.727 173.15 221.322 175.397 219.391 178.109C215.112 184.112 218.293 191.394 220.573 195.199C224.465 201.706 230.117 206.665 237.37 209.94C241.54 211.82 246.655 212.813 252.165 212.813C255.66 212.813 259.22 212.399 262.499 211.612C262.742 207.749 263.382 204.853 263.951 202.284C264.97 197.676 265.708 194.347 263.284 188.659C262.995 187.976 261.916 186.674 260.966 185.525C260.138 184.523 259.356 183.58 258.986 182.933C258.64 182.335 258.444 181.36 258.234 180.331C258.043 179.394 257.804 178.226 257.493 177.783C255.851 175.45 252.906 172.492 249.567 171.196C247.094 170.234 244.136 170.1 241.832 170.087H241.494V170.081Z" fill="#0E2B39"/>
<path d="M214.832 202.391C208.943 197.262 206.309 190.007 207.891 183.267C209.474 176.527 215.235 170.442 223.079 167.228C230.923 164.015 240.688 163.742 248.815 166.506C243.038 167.594 238.8 171.566 236.678 175.853C234.557 180.137 234.162 184.792 233.41 189.341C232.661 193.891 231.452 198.566 228.009 202.307C226.652 203.781 224.792 205.149 222.469 205.39C219.519 205.695 216.806 204.111 214.832 202.391Z" fill="#0E2B39"/>
<path d="M242.352 315.404C242.042 315.404 241.734 315.295 241.532 315.089C232.931 306.215 222.771 298.324 211.34 291.628C210.89 291.366 210.803 290.872 211.144 290.525C211.487 290.177 212.127 290.11 212.574 290.374C224.158 297.158 234.451 305.157 243.169 314.146C243.507 314.495 243.414 314.989 242.962 315.249C242.78 315.354 242.565 315.404 242.352 315.404Z" fill="#0E2B39"/>
<path d="M265.163 307.064C264.921 307.064 264.679 306.998 264.483 306.864C264.063 306.572 264.025 306.076 264.401 305.751C269.075 301.714 272.798 296.889 275.173 291.798C275.361 291.388 275.941 291.17 276.478 291.323C277.006 291.468 277.284 291.92 277.093 292.329C274.634 297.608 270.772 302.611 265.926 306.799C265.725 306.975 265.444 307.064 265.163 307.064Z" fill="#0E2B39"/>
<path d="M276.851 334.366C276.513 334.366 276.184 334.238 275.99 334.001C273.324 330.766 270.426 327.616 267.372 324.635C267.021 324.295 267.095 323.799 267.541 323.53C267.98 323.264 268.623 323.316 268.974 323.659C272.073 326.681 275.015 329.876 277.714 333.154C278.017 333.522 277.878 334.007 277.401 334.242C277.229 334.326 277.042 334.366 276.851 334.366Z" fill="#0E2B39"/>
<path d="M285.904 327.922C281.614 327.922 277.306 327.225 273.408 325.873C272.893 325.694 272.664 325.228 272.896 324.831C273.13 324.434 273.729 324.259 274.247 324.436C279.242 326.169 284.967 326.753 290.374 326.068C290.949 326.007 291.458 326.29 291.548 326.719C291.638 327.147 291.259 327.553 290.704 327.624C289.121 327.824 287.511 327.922 285.904 327.922Z" fill="#0E2B39"/>
<path d="M208.319 336.299C207.815 336.299 207.374 336.011 207.306 335.616C207.233 335.183 207.625 334.786 208.183 334.73C216.354 333.894 224.008 330.577 229.18 325.637C229.537 325.299 230.18 325.249 230.616 325.517C231.054 325.79 231.125 326.286 230.771 326.624C225.269 331.877 217.136 335.402 208.456 336.292C208.406 336.297 208.363 336.299 208.319 336.299Z" fill="#0E2B39"/>
<path d="M260.756 275.871C260.751 275.871 260.743 275.871 260.734 275.871C250.842 275.717 241.69 272.348 232.838 269.091C224.005 265.839 214.87 262.481 205.22 262.481C205.19 262.481 205.162 262.481 205.132 262.481C204.569 262.481 204.111 262.13 204.108 261.695C204.106 261.235 204.639 260.914 205.22 260.906C215.333 260.906 224.681 264.344 233.718 267.671C242.374 270.857 251.324 274.148 260.778 274.295C261.342 274.304 261.789 274.665 261.778 275.1C261.767 275.528 261.312 275.871 260.756 275.871Z" fill="#0E2B39"/>
<path d="M268.857 267.209C268.391 267.209 267.972 266.963 267.863 266.598C267.735 266.176 268.078 265.753 268.628 265.655L277.431 264.081C277.998 263.983 278.531 264.249 278.657 264.67C278.785 265.094 278.442 265.516 277.894 265.615L269.086 267.188C269.007 267.203 268.93 267.209 268.857 267.209Z" fill="#0E2B39"/>
<path d="M253.751 389.758C253.435 389.758 253.124 389.644 252.923 389.432C244.534 380.482 237.577 370.749 232.255 360.495C232.045 360.092 232.299 359.632 232.822 359.472C233.345 359.31 233.938 359.506 234.148 359.909C239.413 370.043 246.285 379.665 254.576 388.51C254.906 388.863 254.805 389.354 254.347 389.608C254.168 389.707 253.958 389.758 253.751 389.758Z" fill="#0E2B39"/>
<path d="M183.264 294.302C178.307 291.26 173.344 288.011 167.344 286.438C161.346 284.865 153.924 285.381 149.754 289.061C145.965 292.403 145.818 297.442 147.499 301.689C149.479 306.698 153.744 311.153 159.372 314.085C172.042 320.693 189.684 319.166 202.39 325.734C207.884 321.14 210.594 315.217 208.159 307.799C199.525 303.684 191.206 299.175 183.264 294.302Z" fill="#CDF1EB"/>
<path d="M202.387 326.521C202.191 326.521 201.989 326.479 201.818 326.389C195.643 323.197 188.049 321.93 180.706 320.706C173.137 319.441 165.312 318.135 158.797 314.738C152.943 311.684 148.583 307.131 146.521 301.918C144.462 296.719 145.382 291.722 148.983 288.542C151.707 286.137 155.907 284.814 160.804 284.814C163.103 284.814 165.478 285.121 167.67 285.694C173.352 287.185 178.1 290.113 182.694 292.947L183.896 293.69C191.786 298.53 200.129 303.052 208.692 307.131C208.918 307.24 209.082 307.41 209.144 307.61C211.476 314.709 209.455 320.989 203.136 326.272C202.94 326.435 202.665 326.521 202.387 326.521ZM160.807 286.387C156.506 286.387 152.856 287.522 150.525 289.58C147.395 292.344 146.627 296.786 148.476 301.458C150.402 306.326 154.474 310.582 159.943 313.434C166.131 316.66 173.761 317.935 181.139 319.164C188.384 320.372 195.866 321.621 202.21 324.707C207.491 320.019 209.191 314.505 207.265 308.299C198.759 304.232 190.471 299.729 182.626 294.919L181.42 294.176C176.964 291.426 172.358 288.586 167.014 287.186C165.031 286.665 162.882 286.387 160.807 286.387Z" fill="#0E2B39"/>
<path d="M239.445 312.684L234.025 309.664C232.211 308.654 230 307.591 227.883 308.169C227.333 308.32 226.829 308.576 226.263 308.685C224.198 309.088 222.373 307.482 220.257 307.322C218.723 307.207 217.285 307.866 215.972 308.5C214.73 309.101 213.486 309.702 212.244 310.302C211.933 310.452 211.612 310.607 211.25 310.647C210.906 310.687 210.56 310.622 210.225 310.557C208.689 310.256 207.178 309.895 205.674 309.513C201.106 312.256 197.832 316.524 199.301 322.184C201.251 322.699 203.912 323.718 205.862 324.232C206.551 324.415 207.243 324.598 207.875 324.877C209.258 325.488 210.266 326.518 211.647 327.131C213.148 327.799 214.943 327.91 216.672 328.009C220.031 328.2 223.389 328.389 226.75 328.58C227.273 328.609 227.829 328.635 228.297 328.444C229.531 327.939 229.308 326.366 230.452 325.747C231.585 325.131 233.344 325.835 234.439 325.182C235.591 324.495 234.992 322.974 235.853 322.067C236.722 321.155 238.8 321.147 239.282 320.078C239.688 319.179 238.62 318.084 239.298 317.288C239.47 317.087 239.731 316.942 239.988 316.803C240.644 316.448 241.341 316.047 241.575 315.455C242.009 314.348 240.652 313.356 239.445 312.684Z" fill="white"/>
<path d="M227.314 329.391C227.102 329.391 226.884 329.38 226.674 329.368L216.599 328.796C214.85 328.696 212.873 328.582 211.138 327.813C210.359 327.467 209.716 327.024 209.09 326.595C208.515 326.198 207.97 325.826 207.368 325.56C206.832 325.322 206.211 325.159 205.557 324.984C204.536 324.715 203.356 324.325 202.18 323.934C201.052 323.558 199.924 323.184 198.971 322.93C198.625 322.84 198.369 322.615 198.298 322.34C196.939 317.099 199.339 312.325 205.05 308.893C205.32 308.734 205.674 308.683 205.998 308.765C207.48 309.143 208.967 309.498 210.479 309.794C210.694 309.836 210.887 309.872 211.032 309.872C211.255 309.851 211.495 309.738 211.704 309.635L215.43 307.835C216.988 307.081 218.555 306.398 220.358 306.541C221.447 306.623 222.436 307.007 223.305 307.345C224.302 307.734 225.225 308.074 226.015 307.923C226.274 307.87 226.516 307.778 226.756 307.688C227.017 307.593 227.273 307.499 227.546 307.427C228.052 307.291 228.586 307.219 229.134 307.219C231.103 307.219 232.936 308.087 234.625 309.026L240.045 312.046C242.188 313.239 243.033 314.461 242.551 315.684C242.205 316.568 241.221 317.097 240.57 317.45C240.407 317.538 240.219 317.641 240.151 317.723C240.017 317.877 240.116 318.225 240.216 318.597C240.355 319.095 240.524 319.714 240.246 320.338C239.838 321.241 238.781 321.617 237.931 321.922C237.405 322.111 236.91 322.287 236.675 322.533C236.439 322.781 236.368 323.201 236.291 323.646C236.172 324.352 236.022 325.232 235.06 325.805C234.363 326.221 233.543 326.276 232.911 326.276L231.936 326.259C231.479 326.259 231.209 326.299 231.037 326.394C230.754 326.545 230.583 326.931 230.4 327.339C230.117 327.963 229.768 328.738 228.771 329.143C228.363 329.311 227.897 329.391 227.314 329.391ZM200.199 321.596C201.06 321.846 202.024 322.168 202.983 322.485C204.111 322.861 205.238 323.235 206.192 323.489C206.935 323.686 207.676 323.879 208.384 324.194C209.169 324.541 209.82 324.988 210.449 325.419C211.021 325.814 211.56 326.184 212.159 326.448C213.486 327.041 215.221 327.139 216.749 327.225L226.827 327.795C227.227 327.822 227.638 327.824 227.818 327.75C228.104 327.633 228.284 327.24 228.469 326.822C228.728 326.253 229.044 325.549 229.863 325.106C230.547 324.732 231.332 324.686 231.939 324.686L232.914 324.703C233.38 324.703 233.649 324.659 233.813 324.562C234.091 324.398 234.17 324.031 234.268 323.447C234.369 322.852 234.483 322.18 235.028 321.605C235.575 321.031 236.37 320.748 237.073 320.496C237.77 320.248 238.201 320.078 238.315 319.824C238.411 319.616 238.318 319.282 238.22 318.929C238.051 318.322 237.841 317.566 238.443 316.862C238.726 316.532 239.097 316.329 239.396 316.167C239.955 315.862 240.467 315.568 240.598 315.23C240.846 314.602 239.783 313.85 238.846 313.329L233.426 310.309C231.691 309.343 229.76 308.49 228.224 308.918C228.022 308.973 227.826 309.044 227.635 309.118C227.27 309.25 226.903 309.381 226.513 309.456C225.081 309.74 223.64 309.246 222.381 308.757C221.605 308.456 220.867 308.169 220.159 308.114L219.903 308.106C218.819 308.106 217.724 308.589 216.515 309.175L212.786 310.977C212.421 311.153 211.971 311.37 211.397 311.435C211.345 311.441 211.081 311.456 211.029 311.456C210.648 311.456 210.296 311.393 209.969 311.328C208.591 311.057 207.232 310.739 205.881 310.403C203.016 312.22 198.963 315.894 200.199 321.596Z" fill="#0E2B39"/>
<path d="M197.362 323.758C196.929 323.758 196.526 323.543 196.389 323.207C194.093 317.631 196.261 311.185 201.782 307.173C202.191 306.875 202.842 306.885 203.223 307.207C203.613 307.522 203.594 308.022 203.18 308.318C198.22 311.926 196.272 317.719 198.334 322.731C198.506 323.144 198.206 323.587 197.67 323.72C197.566 323.745 197.463 323.758 197.362 323.758Z" fill="#0E2B39"/>
<path d="M334.398 281.273C333.684 278.488 331.881 275.72 328.73 274.251C324.543 272.298 318.976 273.119 314.86 275.159C310.745 277.198 305.518 280.513 302.29 283.348C291.603 292.737 297.322 292.231 282.868 299.895C279.027 308.255 289.87 318.532 296.192 318.009C308.389 312.088 308.345 313.818 321.065 304.726C329.552 298.656 336.639 290.025 334.398 281.273Z" fill="#CDF1EB"/>
<path d="M295.721 318.811C292.51 318.811 288.44 316.635 285.354 313.266C281.304 308.844 280.013 303.745 281.903 299.628C281.974 299.47 282.11 299.334 282.288 299.241C290.979 294.633 292.218 293.05 294.266 290.426C295.634 288.679 297.336 286.503 301.52 282.825C304.595 280.126 309.852 276.7 314.305 274.493C319.167 272.084 325.164 271.666 329.255 273.573C333.409 275.511 334.885 279.13 335.397 281.115C338.216 292.123 326.799 301.695 321.757 305.299C312.943 311.598 310.078 312.806 305.33 314.803C303.197 315.702 300.542 316.822 296.737 318.67C296.603 318.733 296.454 318.775 296.301 318.788C296.11 318.804 295.917 318.811 295.721 318.811ZM283.728 300.393C282.214 303.988 283.437 308.439 287.024 312.358C289.699 315.276 293.193 317.236 295.721 317.236C295.77 317.236 295.816 317.235 295.865 317.233C299.613 315.423 302.239 314.314 304.355 313.423C309.122 311.417 311.745 310.313 320.373 304.144C325.162 300.72 336.016 291.653 333.395 281.424C332.951 279.695 331.685 276.551 328.201 274.925C324.778 273.325 319.619 273.737 315.416 275.82C311.102 277.956 306.022 281.266 303.059 283.865C298.995 287.437 297.344 289.548 296.02 291.243C293.847 294.018 292.529 295.704 283.728 300.393Z" fill="#0E2B39"/>
<path d="M257.796 313.197L261.666 308.99C262.962 307.582 264.61 306.026 266.855 306.047C267.44 306.051 268.02 306.171 268.603 306.133C270.728 306.001 271.782 304.026 273.718 303.35C275.121 302.861 276.758 303.127 278.267 303.4C279.694 303.661 281.121 303.919 282.551 304.18C282.908 304.245 283.276 304.31 283.635 304.26C283.976 304.211 284.278 304.064 284.567 303.919C285.893 303.251 287.176 302.537 288.44 301.8C293.909 303.262 298.793 306.488 299.771 312.212C298.139 313.184 296.047 314.808 294.416 315.78C293.841 316.125 293.261 316.469 292.779 316.891C291.725 317.813 291.202 319.04 290.151 319.962C289.009 320.966 287.356 321.52 285.76 322.043C282.66 323.058 279.561 324.075 276.461 325.089C275.979 325.247 275.462 325.408 274.941 325.345C273.563 325.175 273.116 323.629 271.776 323.327C270.447 323.026 269.074 324.129 267.764 323.783C266.386 323.417 266.318 321.829 265.125 321.184C263.921 320.535 261.952 321.046 261.045 320.153C260.285 319.403 260.838 318.103 259.866 317.517C259.618 317.368 259.31 317.299 259.01 317.229C258.24 317.055 257.414 316.849 256.943 316.347C256.063 315.408 256.935 314.131 257.796 313.197Z" fill="white"/>
<path d="M275.178 326.147C275.124 326.147 274.832 326.128 274.781 326.122C273.667 325.988 273.013 325.339 272.485 324.82C272.139 324.48 271.815 324.158 271.485 324.083C270.981 324.053 270.578 324.177 270.153 324.301C269.358 324.53 268.325 324.767 267.429 324.526C266.277 324.221 265.771 323.427 265.362 322.789C265.103 322.388 264.861 322.008 264.534 321.831C264.207 321.655 263.665 321.611 263.088 321.562C262.156 321.487 260.999 321.392 260.236 320.638C259.713 320.119 259.612 319.489 259.536 318.983C259.479 318.607 259.422 318.252 259.234 318.141C259.136 318.082 258.904 318.029 258.716 317.989C257.954 317.815 256.801 317.555 256.11 316.807C255.145 315.776 255.431 314.404 256.962 312.743L260.83 308.536C262.393 306.834 264.202 305.261 266.806 305.261C267.146 305.263 267.429 305.288 267.715 305.312C267.931 305.333 268.148 305.354 268.366 305.354C269.355 305.299 270.041 304.757 270.839 304.129C271.52 303.591 272.294 302.984 273.291 302.634C274.77 302.125 276.766 302.321 278.496 302.636L282.78 303.415C282.995 303.453 283.202 303.491 283.36 303.491C283.597 303.463 283.823 303.352 284.003 303.259C285.311 302.602 286.572 301.898 287.816 301.174C288.089 301.016 288.443 300.974 288.767 301.058C295.606 302.883 299.872 306.809 300.776 312.111C300.825 312.388 300.675 312.665 300.386 312.837C299.588 313.314 298.679 313.946 297.769 314.583C296.816 315.244 295.865 315.91 295.031 316.406C294.476 316.736 293.953 317.051 293.533 317.414C293.076 317.813 292.716 318.302 292.34 318.819C291.929 319.38 291.502 319.962 290.911 320.483C289.595 321.644 287.765 322.243 286.152 322.77L276.851 325.813C276.458 325.946 275.848 326.147 275.178 326.147ZM271.283 322.486C271.55 322.486 271.809 322.514 272.057 322.568C273.016 322.785 273.612 323.377 274.092 323.847C274.446 324.196 274.778 324.526 275.097 324.566L275.176 324.57C275.426 324.57 275.788 324.45 276.053 324.362L285.357 321.316C286.768 320.854 288.364 320.331 289.377 319.441C289.832 319.042 290.189 318.554 290.567 318.04C290.981 317.475 291.412 316.891 292.008 316.368C292.556 315.889 293.182 315.517 293.787 315.154C294.585 314.677 295.495 314.045 296.404 313.409C297.181 312.867 297.957 312.325 298.67 311.877C297.458 306.168 292.082 303.701 288.606 302.686C287.47 303.339 286.316 303.978 285.125 304.576C284.807 304.736 284.371 304.957 283.818 305.032C283.292 305.101 282.726 305.018 282.32 304.946L278.033 304.167C276.576 303.9 275.11 303.73 274.138 304.066C273.49 304.293 272.912 304.747 272.299 305.228C271.354 305.971 270.284 306.818 268.685 306.918C268.658 306.92 268.396 306.927 268.369 306.927C268.072 306.927 267.775 306.902 267.478 306.876C267.269 306.857 267.056 306.836 266.844 306.834C265.131 306.834 263.744 308.088 262.497 309.443L258.629 313.65C257.962 314.377 257.27 315.351 257.771 315.885C258.035 316.168 258.64 316.324 259.294 316.473C259.626 316.547 260.081 316.649 260.487 316.891C261.35 317.41 261.467 318.176 261.565 318.792C261.622 319.153 261.674 319.491 261.848 319.666C262.061 319.878 262.54 319.93 263.303 319.991C264.074 320.054 264.948 320.128 265.705 320.535C266.462 320.943 266.852 321.552 267.195 322.087C267.533 322.617 267.762 322.944 268.091 323.032C268.617 323.051 269.012 322.944 269.434 322.822C269.981 322.665 270.602 322.486 271.283 322.486Z" fill="#0E2B39"/>
<path d="M302.478 315.698C302.473 315.698 302.47 315.698 302.465 315.698C302.002 315.694 301.601 315.45 301.49 315.104L301.304 314.543C301.19 314.194 301.394 313.841 301.781 313.669C302.269 311.128 301.31 308.256 299.106 305.793C297.061 303.503 293.948 301.453 289.587 299.527C289.097 299.311 288.928 298.83 289.208 298.452C289.492 298.074 290.115 297.941 290.603 298.16C295.233 300.208 298.567 302.409 300.787 304.898C303.633 308.082 304.633 311.905 303.464 315.123C303.339 315.465 302.936 315.698 302.478 315.698Z" fill="#0E2B39"/>
<path d="M201.945 255.726C201.834 255.726 201.719 255.711 201.61 255.682C201.077 255.539 200.796 255.089 200.981 254.678C203.364 249.406 204.062 243.699 203.002 238.177C202.921 237.747 203.305 237.345 203.863 237.282C204.429 237.211 204.942 237.516 205.023 237.946C206.129 243.72 205.402 249.685 202.912 255.194C202.763 255.524 202.37 255.726 201.945 255.726Z" fill="#0E2B39"/>
<path d="M286.678 260.628C286.248 260.628 285.847 260.418 285.708 260.087C283.979 256.016 282.843 251.796 282.334 247.537C282.279 247.104 282.693 246.72 283.257 246.682C283.875 246.644 284.316 246.961 284.365 247.394C284.867 251.536 285.97 255.642 287.65 259.597C287.827 260.011 287.533 260.456 286.999 260.593C286.89 260.616 286.784 260.628 286.678 260.628Z" fill="#0E2B39"/>
<path d="M251.089 202.508C250.5 199 262.089 204.508 262.089 204.508" stroke="black"/>
<path d="M245 189C244.5 192.09 239 192.09 239 192.09" stroke="black"/>
<path d="M261.791 187.548C259.811 189.175 255.062 187.031 255.062 187.031" stroke="black"/>
</svg>
